<?xml version="1.0" encoding="UTF-8" standalone="no"?>
<!DOCTYPE svg PUBLIC "-//W3C//DTD SVG 1.1//EN"
 "http://www.w3.org/Graphics/SVG/1.1/DTD/svg11.dtd">
<!-- Generated by graphviz version 12.2.1 (0)
 -->
<!-- Title: BiomarkerSchema Pages: 1 -->
<svg width="1163pt" height="590pt"
 viewBox="0.00 0.00 1163.00 590.25" xmlns="http://www.w3.org/2000/svg" xmlns:xlink="http://www.w3.org/1999/xlink">
<g id="graph0" class="graph" transform="scale(1 1) rotate(0) translate(4 586.25)">
<title>BiomarkerSchema</title>
<polygon fill="#f5f5f5" stroke="none" points="-4,4 -4,-586.25 1159,-586.25 1159,4 -4,4"/>
<g id="clust1" class="cluster">
<title>cluster_schema</title>
<polygon fill="#e8f4e8" stroke="black" points="8,-8 8,-552.5 350,-552.5 350,-8 8,-8"/>
<text text-anchor="middle" x="179" y="-535.2" font-family="Arial" font-size="14.00">Neo4j Schema Structure</text>
</g>
<g id="clust2" class="cluster">
<title>cluster_example</title>
<polygon fill="#f4f4e8" stroke="black" points="358,-43.62 358,-531.12 833,-531.12 833,-43.62 358,-43.62"/>
<text text-anchor="middle" x="595.5" y="-513.83" font-family="Arial" font-size="14.00">Example: Total Cholesterol with values 163 (in&#45;range) and 220 (out&#45;of&#45;range)</text>
</g>
<g id="clust3" class="cluster">
<title>cluster_legend</title>
<polygon fill="white" stroke="black" points="841,-396 841,-574.25 1147,-574.25 1147,-396 841,-396"/>
<text text-anchor="middle" x="994" y="-558.85" font-family="Arial" font-size="12.00">Legend</text>
</g>
<!-- ObservationType -->
<g id="node1" class="node">
<title>ObservationType</title>
<polygon fill="lightgreen" stroke="black" points="205,-520.75 57,-520.75 57,-427.25 205,-427.25 205,-520.75"/>
<text text-anchor="middle" x="131" y="-505.35" font-family="Arial" font-size="12.00">ObservationTypeNode</text>
<text text-anchor="middle" x="131" y="-491.1" font-family="Arial" font-size="12.00">────────────────</text>
<text text-anchor="middle" x="131" y="-476.85" font-family="Arial" font-size="12.00">uuid</text>
<text text-anchor="middle" x="131" y="-462.6" font-family="Arial" font-size="12.00">name</text>
<text text-anchor="middle" x="131" y="-448.35" font-family="Arial" font-size="12.00">code</text>
<text text-anchor="middle" x="131" y="-434.1" font-family="Arial" font-size="12.00">unit</text>
</g>
<!-- ObservationValue -->
<g id="node2" class="node">
<title>ObservationValue</title>
<polygon fill="lightyellow" stroke="black" points="164,-344 16,-344 16,-236.25 164,-236.25 164,-344"/>
<text text-anchor="middle" x="90" y="-328.6" font-family="Arial" font-size="12.00">ObservationValueNode</text>
<text text-anchor="middle" x="90" y="-314.35" font-family="Arial" font-size="12.00">────────────────</text>
<text text-anchor="middle" x="90" y="-300.1" font-family="Arial" font-size="12.00">uuid</text>
<text text-anchor="middle" x="90" y="-285.85" font-family="Arial" font-size="12.00">value_numeric</text>
<text text-anchor="middle" x="90" y="-271.6" font-family="Arial" font-size="12.00">value_text</text>
<text text-anchor="middle" x="90" y="-257.35" font-family="Arial" font-size="12.00">observed_at</text>
<text text-anchor="middle" x="90" y="-243.1" font-family="Arial" font-size="12.00">unit</text>
</g>
<!-- ObservationType&#45;&gt;ObservationValue -->
<g id="edge1" class="edge">
<title>ObservationType&#45;&gt;ObservationValue</title>
<path fill="none" stroke="black" stroke-width="2" d="M120.65,-427.11C115.76,-405.39 109.83,-379.1 104.5,-355.44"/>
<polygon fill="black" stroke="black" stroke-width="2" points="108.29,-356.36 102.68,-347.38 101.47,-357.9 108.29,-356.36"/>
<text text-anchor="middle" x="140.5" y="-376.5" font-family="Arial" font-size="10.00">HAS_VALUE</text>
<text text-anchor="middle" x="140.5" y="-364.5" font-family="Arial" font-size="10.00">(one&#45;to&#45;many)</text>
</g>
<!-- ReferenceRange -->
<g id="node3" class="node">
<title>ReferenceRange</title>
<polygon fill="lightblue" stroke="black" points="342.38,-344 181.62,-344 181.62,-236.25 342.38,-236.25 342.38,-344"/>
<text text-anchor="middle" x="262" y="-328.6" font-family="Arial" font-size="12.00">ReferenceRangeNode</text>
<text text-anchor="middle" x="262" y="-314.35" font-family="Arial" font-size="12.00">────────────────</text>
<text text-anchor="middle" x="262" y="-300.1" font-family="Arial" font-size="12.00">uuid</text>
<text text-anchor="middle" x="262" y="-285.85" font-family="Arial" font-size="12.00">range_type</text>
<text text-anchor="middle" x="262" y="-271.6" font-family="Arial" font-size="12.00">source_type</text>
<text text-anchor="middle" x="262" y="-257.35" font-family="Arial" font-size="12.00">source_id</text>
<text text-anchor="middle" x="262" y="-243.1" font-family="Arial" font-size="12.00">intervals_json (deprecated)</text>
</g>
<!-- ObservationType&#45;&gt;ReferenceRange -->
<g id="edge2" class="edge">
<title>ObservationType&#45;&gt;ReferenceRange</title>
<path fill="none" stroke="black" stroke-width="2" d="M164.06,-427.11C180.12,-404.8 199.67,-377.67 217.06,-353.52"/>
<polygon fill="black" stroke="black" stroke-width="2" points="218.83,-357.04 221.84,-346.88 213.15,-352.95 218.83,-357.04"/>
<text text-anchor="middle" x="239.36" y="-376.5" font-family="Arial" font-size="10.00">HAS_RANGE</text>
<text text-anchor="middle" x="239.36" y="-364.5" font-family="Arial" font-size="10.00">(one&#45;to&#45;one)</text>
</g>
<!-- RangeInterval -->
<g id="node4" class="node">
<title>RangeInterval</title>
<polygon fill="lightcyan" stroke="black" points="258.5,-152.25 83.5,-152.25 83.5,-16 258.5,-16 258.5,-152.25"/>
<text text-anchor="middle" x="171" y="-136.85" font-family="Arial" font-size="12.00">RangeIntervalNode (NEW)</text>
<text text-anchor="middle" x="171" y="-122.6" font-family="Arial" font-size="12.00">────────────────</text>
<text text-anchor="middle" x="171" y="-108.35" font-family="Arial" font-size="12.00">uuid</text>
<text text-anchor="middle" x="171" y="-94.1" font-family="Arial" font-size="12.00">label</text>
<text text-anchor="middle" x="171" y="-79.85" font-family="Arial" font-size="12.00">category</text>
<text text-anchor="middle" x="171" y="-65.6" font-family="Arial" font-size="12.00">color ← READ THIS</text>
<text text-anchor="middle" x="171" y="-51.35" font-family="Arial" font-size="12.00">low / high</text>
<text text-anchor="middle" x="171" y="-37.1" font-family="Arial" font-size="12.00">low_inclusive / high_inclusive</text>
<text text-anchor="middle" x="171" y="-22.85" font-family="Arial" font-size="12.00">text</text>
</g>
<!-- ObservationValue&#45;&gt;RangeInterval -->
<g id="edge4" class="edge">
<title>ObservationValue&#45;&gt;RangeInterval</title>
<path fill="none" stroke="blue" stroke-width="2" d="M103.73,-235.99C109.71,-215.18 117.35,-191.29 126,-170.25 127.02,-167.77 128.09,-165.27 129.19,-162.76"/>
<polygon fill="blue" stroke="blue" stroke-width="2" points="131.7,-165.7 132.68,-155.15 125.33,-162.79 131.7,-165.7"/>
<text text-anchor="middle" x="177" y="-208.75" font-family="Arial" font-size="10.00">MATCHES_INTERVAL</text>
<text text-anchor="middle" x="177" y="-196.75" font-family="Arial" font-size="10.00">(one&#45;to&#45;one:</text>
<text text-anchor="middle" x="177" y="-184.75" font-family="Arial" font-size="10.00">value links to</text>
<text text-anchor="middle" x="177" y="-172.75" font-family="Arial" font-size="10.00">MATCHED interval)</text>
</g>
<!-- ReferenceRange&#45;&gt;RangeInterval -->
<g id="edge3" class="edge">
<title>ReferenceRange&#45;&gt;RangeInterval</title>
<path fill="none" stroke="darkgreen" stroke-width="2" d="M250.52,-235.77C245.05,-214.82 237.57,-190.89 228,-170.25 226.79,-167.64 225.5,-165.02 224.16,-162.4"/>
<polygon fill="darkgreen" stroke="darkgreen" stroke-width="2" points="227.98,-162.11 220.14,-154.98 221.83,-165.44 227.98,-162.11"/>
<text text-anchor="middle" x="285.29" y="-208.75" font-family="Arial" font-size="10.00">HAS_INTERVAL</text>
<text text-anchor="middle" x="285.29" y="-196.75" font-family="Arial" font-size="10.00">(one&#45;to&#45;many:</text>
<text text-anchor="middle" x="285.29" y="-184.75" font-family="Arial" font-size="10.00">range owns ALL</text>
<text text-anchor="middle" x="285.29" y="-172.75" font-family="Arial" font-size="10.00">potential intervals)</text>
</g>
<!-- CholesterolType -->
<g id="node5" class="node">
<title>CholesterolType</title>
<polygon fill="lightgreen" stroke="black" points="660,-499.38 524,-499.38 524,-448.62 660,-448.62 660,-499.38"/>
<text text-anchor="middle" x="592" y="-483.98" font-family="Arial" font-size="12.00">ObservationTypeNode</text>
<text text-anchor="middle" x="592" y="-469.73" font-family="Arial" font-size="12.00">&quot;Total Cholesterol&quot;</text>
<text text-anchor="middle" x="592" y="-455.48" font-family="Arial" font-size="12.00">unit: mg/dL</text>
</g>
<!-- CholesterolRange -->
<g id="node6" class="node">
<title>CholesterolRange</title>
<polygon fill="lightblue" stroke="black" points="660.38,-308.38 523.62,-308.38 523.62,-271.88 660.38,-271.88 660.38,-308.38"/>
<text text-anchor="middle" x="592" y="-292.98" font-family="Arial" font-size="12.00">ReferenceRangeNode</text>
<text text-anchor="middle" x="592" y="-278.73" font-family="Arial" font-size="12.00">range: &quot;&lt;200&quot;</text>
</g>
<!-- CholesterolType&#45;&gt;CholesterolRange -->
<g id="edge7" class="edge">
<title>CholesterolType&#45;&gt;CholesterolRange</title>
<path fill="none" stroke="black" d="M592,-448.47C592,-415.17 592,-355.73 592,-320.21"/>
<polygon fill="black" stroke="black" points="595.5,-320.24 592,-310.24 588.5,-320.24 595.5,-320.24"/>
<text text-anchor="middle" x="623.12" y="-370.5" font-family="Arial" font-size="10.00">HAS_RANGE</text>
</g>
<!-- Value163 -->
<g id="node7" class="node">
<title>Value163</title>
<polygon fill="#90ee90" stroke="black" points="505.88,-315.5 366.12,-315.5 366.12,-264.75 505.88,-264.75 505.88,-315.5"/>
<text text-anchor="middle" x="436" y="-300.1" font-family="Arial" font-size="12.00">ObservationValueNode</text>
<text text-anchor="middle" x="436" y="-285.85" font-family="Arial" font-size="12.00">value: 163 mg/dL</text>
<text text-anchor="middle" x="436" y="-271.6" font-family="Arial" font-size="12.00">✓ IN&#45;RANGE</text>
</g>
<!-- CholesterolType&#45;&gt;Value163 -->
<g id="edge5" class="edge">
<title>CholesterolType&#45;&gt;Value163</title>
<path fill="none" stroke="black" d="M570.96,-448.47C543.51,-416.47 495.37,-360.35 464.62,-324.5"/>
<polygon fill="black" stroke="black" points="467.36,-322.31 458.19,-316.99 462.04,-326.86 467.36,-322.31"/>
<text text-anchor="middle" x="543.25" y="-370.5" font-family="Arial" font-size="10.00">HAS_VALUE</text>
</g>
<!-- Value220 -->
<g id="node8" class="node">
<title>Value220</title>
<polygon fill="#ffb6c1" stroke="black" points="817.88,-315.5 678.12,-315.5 678.12,-264.75 817.88,-264.75 817.88,-315.5"/>
<text text-anchor="middle" x="748" y="-300.1" font-family="Arial" font-size="12.00">ObservationValueNode</text>
<text text-anchor="middle" x="748" y="-285.85" font-family="Arial" font-size="12.00">value: 220 mg/dL</text>
<text text-anchor="middle" x="748" y="-271.6" font-family="Arial" font-size="12.00">✗ OUT&#45;OF&#45;RANGE</text>
</g>
<!-- CholesterolType&#45;&gt;Value220 -->
<g id="edge6" class="edge">
<title>CholesterolType&#45;&gt;Value220</title>
<path fill="none" stroke="black" d="M613.04,-448.47C640.49,-416.47 688.63,-360.35 719.38,-324.5"/>
<polygon fill="black" stroke="black" points="721.96,-326.86 725.81,-316.99 716.64,-322.31 721.96,-326.86"/>
<text text-anchor="middle" x="713.22" y="-370.5" font-family="Arial" font-size="10.00">HAS_VALUE</text>
</g>
<!-- Interval1 -->
<g id="node9" class="node">
<title>Interval1</title>
<polygon fill="#32cd32" stroke="black" points="558.38,-116.62 421.62,-116.62 421.62,-51.62 558.38,-51.62 558.38,-116.62"/>
<text text-anchor="middle" x="490" y="-101.22" font-family="Arial" font-size="12.00" fill="white">RangeIntervalNode #1</text>
<text text-anchor="middle" x="490" y="-86.97" font-family="Arial" font-size="12.00" fill="white">label: &quot;&lt;200&quot;</text>
<text text-anchor="middle" x="490" y="-72.72" font-family="Arial" font-size="12.00" fill="white">category: Normal</text>
<text text-anchor="middle" x="490" y="-58.48" font-family="Arial" font-size="12.00" fill="white">color: GREEN ✓</text>
</g>
<!-- CholesterolRange&#45;&gt;Interval1 -->
<g id="edge8" class="edge">
<title>CholesterolRange&#45;&gt;Interval1</title>
<path fill="none" stroke="darkgreen" d="M574.39,-271.55C561.61,-257.98 544.72,-238.21 533.75,-218.25 518.11,-189.8 506.89,-154.84 499.73,-127.89"/>
<polygon fill="darkgreen" stroke="darkgreen" points="503.15,-127.15 497.28,-118.33 496.37,-128.89 503.15,-127.15"/>
<text text-anchor="middle" x="570.88" y="-190.75" font-family="Arial" font-size="10.00">HAS_INTERVAL</text>
</g>
<!-- Interval2 -->
<g id="node10" class="node">
<title>Interval2</title>
<polygon fill="#dc143c" stroke="black" points="735,-116.62 593,-116.62 593,-51.62 735,-51.62 735,-116.62"/>
<text text-anchor="middle" x="664" y="-101.22" font-family="Arial" font-size="12.00" fill="white">RangeIntervalNode #2</text>
<text text-anchor="middle" x="664" y="-86.97" font-family="Arial" font-size="12.00" fill="white">label: &quot;≥200&quot; (synthetic)</text>
<text text-anchor="middle" x="664" y="-72.72" font-family="Arial" font-size="12.00" fill="white">category: High</text>
<text text-anchor="middle" x="664" y="-58.48" font-family="Arial" font-size="12.00" fill="white">color: RED ✗</text>
</g>
<!-- CholesterolRange&#45;&gt;Interval2 -->
<g id="edge9" class="edge">
<title>CholesterolRange&#45;&gt;Interval2</title>
<path fill="none" stroke="darkgreen" d="M596.38,-271.58C602.38,-248.18 613.9,-205.62 626.75,-170.25 631.88,-156.13 638.2,-141.02 644.18,-127.51"/>
<polygon fill="darkgreen" stroke="darkgreen" points="647.34,-129.01 648.24,-118.45 640.96,-126.14 647.34,-129.01"/>
<text text-anchor="middle" x="663.88" y="-190.75" font-family="Arial" font-size="10.00">HAS_INTERVAL</text>
</g>
<!-- Value163&#45;&gt;Interval1 -->
<g id="edge10" class="edge">
<title>Value163&#45;&gt;Interval1</title>
<path fill="none" stroke="blue" stroke-width="2" d="M420.44,-264.35C407.13,-239.85 392.03,-201.59 405,-170.25 411.88,-153.63 423.74,-138.57 436.46,-125.88"/>
<polygon fill="blue" stroke="blue" stroke-width="2" points="438.73,-128.56 443.61,-119.16 433.93,-123.46 438.73,-128.56"/>
<text text-anchor="middle" x="456" y="-196.75" font-family="Arial" font-size="10.00">MATCHES_INTERVAL</text>
<text text-anchor="middle" x="456" y="-184.75" font-family="Arial" font-size="10.00">(163 &lt; 200)</text>
</g>
<!-- Value220&#45;&gt;Interval2 -->
<g id="edge11" class="edge">
<title>Value220&#45;&gt;Interval2</title>
<path fill="none" stroke="blue" stroke-width="2" d="M738.52,-264.44C729.19,-240.33 714.44,-202.64 701,-170.25 695.37,-156.69 689.07,-142 683.27,-128.7"/>
<polygon fill="blue" stroke="blue" stroke-width="2" points="686.56,-127.48 679.35,-119.72 680.15,-130.29 686.56,-127.48"/>
<text text-anchor="middle" x="770.47" y="-196.75" font-family="Arial" font-size="10.00">MATCHES_INTERVAL</text>
<text text-anchor="middle" x="770.47" y="-184.75" font-family="Arial" font-size="10.00">(220 ≥ 200)</text>
</g>
<!-- legend -->
<g id="node11" class="node">
<title>legend</title>
<polygon fill="white" stroke="black" points="1132.5,-544 849.5,-544 849.5,-404 1138.5,-404 1138.5,-538 1132.5,-544"/>
<polyline fill="none" stroke="black" points="1132.5,-544 1132.5,-538"/>
<polyline fill="none" stroke="black" points="1138.5,-538 1132.5,-538"/>
<text text-anchor="middle" x="994" y="-530.5" font-family="Arial" font-size="10.00">Relationships:</text>
<text text-anchor="middle" x="994" y="-518.5" font-family="Arial" font-size="10.00">• HAS_VALUE: Type owns its measurement values</text>
<text text-anchor="middle" x="994" y="-506.5" font-family="Arial" font-size="10.00">• HAS_RANGE: Type owns its reference range</text>
<text text-anchor="middle" x="994" y="-494.5" font-family="Arial" font-size="10.00">• HAS_INTERVAL: Range owns ALL potential intervals</text>
<text text-anchor="middle" x="994" y="-482.5" font-family="Arial" font-size="10.00">• MATCHES_INTERVAL: Value links to ONE matched interval</text>
<text text-anchor="middle" x="994" y="-458.5" font-family="Arial" font-size="10.00">Colors indicate interval status:</text>
<text text-anchor="middle" x="994" y="-446.5" font-family="Arial" font-size="10.00">• GREEN: Normal/Optimal (in&#45;range)</text>
<text text-anchor="middle" x="994" y="-434.5" font-family="Arial" font-size="10.00">• YELLOW: Borderline/Elevated</text>
<text text-anchor="middle" x="994" y="-422.5" font-family="Arial" font-size="10.00">• RED: High/Low/Abnormal (out&#45;of&#45;range)</text>
<text text-anchor="middle" x="994" y="-410.5" font-family="Arial" font-size="10.00">• WHITE: No reference range available</text>
</g>
</g>
</svg>
