<?xml version="1.0" encoding="UTF-8" standalone="no"?>
<!DOCTYPE svg PUBLIC "-//W3C//DTD SVG 1.1//EN"
 "http://www.w3.org/Graphics/SVG/1.1/DTD/svg11.dtd">
<!-- Generated by graphviz version 12.2.1 (0)
 -->
<!-- Title: MonitoringObservability Pages: 1 -->
<svg width="1144pt" height="159pt"
 viewBox="0.00 0.00 1143.50 158.88" xmlns="http://www.w3.org/2000/svg" xmlns:xlink="http://www.w3.org/1999/xlink">
<g id="graph0" class="graph" transform="scale(1 1) rotate(0) translate(4 154.88)">
<title>MonitoringObservability</title>
<polygon fill="#f5f5f5" stroke="none" points="-4,4 -4,-154.88 1139.5,-154.88 1139.5,4 -4,4"/>
<!-- Request -->
<g id="node1" class="node">
<title>Request</title>
<polygon fill="lightblue" stroke="black" points="210.25,-53.25 114.75,-53.25 114.75,-17.25 210.25,-17.25 210.25,-53.25"/>
<text text-anchor="middle" x="162.5" y="-30.98" font-family="Arial" font-size="12.00">HTTP Request</text>
</g>
<!-- APIGateway -->
<g id="node2" class="node">
<title>APIGateway</title>
<polygon fill="wheat" stroke="black" points="452,-53.5 366.25,-53.5 366.25,-17 452,-17 452,-53.5"/>
<text text-anchor="middle" x="409.12" y="-38.1" font-family="Arial" font-size="12.00">API Gateway</text>
<text text-anchor="middle" x="409.12" y="-23.85" font-family="Arial" font-size="12.00">Request ID</text>
</g>
<!-- Request&#45;&gt;APIGateway -->
<g id="edge1" class="edge">
<title>Request&#45;&gt;APIGateway</title>
<path fill="none" stroke="black" d="M210.67,-35.25C251.87,-35.25 311.66,-35.25 354.63,-35.25"/>
<polygon fill="black" stroke="black" points="354.49,-38.75 364.49,-35.25 354.49,-31.75 354.49,-38.75"/>
<text text-anchor="middle" x="345.62" y="-37.75" font-family="Arial" font-size="10.00">1</text>
</g>
<!-- Middleware -->
<g id="node3" class="node">
<title>Middleware</title>
<polygon fill="wheat" stroke="black" points="580.5,-53.5 493.25,-53.5 493.25,-17 580.5,-17 580.5,-53.5"/>
<text text-anchor="middle" x="536.88" y="-38.1" font-family="Arial" font-size="12.00">Middleware</text>
<text text-anchor="middle" x="536.88" y="-23.85" font-family="Arial" font-size="12.00">Log + Metrics</text>
</g>
<!-- APIGateway&#45;&gt;Middleware -->
<g id="edge2" class="edge">
<title>APIGateway&#45;&gt;Middleware</title>
<path fill="none" stroke="black" d="M452.35,-35.25C461.78,-35.25 471.92,-35.25 481.76,-35.25"/>
<polygon fill="black" stroke="black" points="481.61,-38.75 491.61,-35.25 481.61,-31.75 481.61,-38.75"/>
<text text-anchor="middle" x="472.62" y="-37.75" font-family="Arial" font-size="10.00">2</text>
</g>
<!-- ServiceLayer -->
<g id="node4" class="node">
<title>ServiceLayer</title>
<polygon fill="palegreen" stroke="black" points="735.25,-91.5 637.5,-91.5 637.5,-55 735.25,-55 735.25,-91.5"/>
<text text-anchor="middle" x="686.38" y="-76.1" font-family="Arial" font-size="12.00">Service Layer</text>
<text text-anchor="middle" x="686.38" y="-61.85" font-family="Arial" font-size="12.00">Business Logic</text>
</g>
<!-- Middleware&#45;&gt;ServiceLayer -->
<g id="edge3" class="edge">
<title>Middleware&#45;&gt;ServiceLayer</title>
<path fill="none" stroke="black" d="M580.93,-46.34C595.1,-49.99 611.1,-54.11 626.25,-58.02"/>
<polygon fill="black" stroke="black" points="625.06,-61.33 635.62,-60.43 626.81,-54.55 625.06,-61.33"/>
<text text-anchor="middle" x="609" y="-57.89" font-family="Arial" font-size="10.00">3</text>
</g>
<!-- Sentry -->
<g id="node6" class="node">
<title>Sentry</title>
<polygon fill="lightcoral" stroke="black" points="731.88,-36.5 640.88,-36.5 640.88,0 731.88,0 731.88,-36.5"/>
<text text-anchor="middle" x="686.38" y="-21.1" font-family="Arial" font-size="12.00">Sentry</text>
<text text-anchor="middle" x="686.38" y="-6.85" font-family="Arial" font-size="12.00">Error Tracking</text>
</g>
<!-- Middleware&#45;&gt;Sentry -->
<g id="edge5" class="edge">
<title>Middleware&#45;&gt;Sentry</title>
<path fill="none" stroke="black" stroke-dasharray="1,5" d="M580.93,-30.29C595.99,-28.55 613.12,-26.58 629.09,-24.74"/>
<polygon fill="black" stroke="black" points="629.43,-28.22 638.96,-23.6 628.63,-21.27 629.43,-28.22"/>
<text text-anchor="middle" x="609" y="-30.27" font-family="Arial" font-size="10.00">Logs</text>
</g>
<!-- Database -->
<g id="node5" class="node">
<title>Database</title>
<path fill="skyblue" stroke="black" d="M908,-127.78C908,-130.3 890.63,-132.34 869.25,-132.34 847.87,-132.34 830.5,-130.3 830.5,-127.78 830.5,-127.78 830.5,-86.72 830.5,-86.72 830.5,-84.2 847.87,-82.16 869.25,-82.16 890.63,-82.16 908,-84.2 908,-86.72 908,-86.72 908,-127.78 908,-127.78"/>
<path fill="none" stroke="black" d="M908,-127.78C908,-125.26 890.63,-123.22 869.25,-123.22 847.87,-123.22 830.5,-125.26 830.5,-127.78"/>
<text text-anchor="middle" x="869.25" y="-110.1" font-family="Arial" font-size="12.00">Database</text>
<text text-anchor="middle" x="869.25" y="-95.85" font-family="Arial" font-size="12.00">Query Time</text>
</g>
<!-- ServiceLayer&#45;&gt;Database -->
<g id="edge4" class="edge">
<title>ServiceLayer&#45;&gt;Database</title>
<path fill="none" stroke="black" d="M735.37,-82.27C761.17,-87.12 792.93,-93.09 818.93,-97.98"/>
<polygon fill="black" stroke="black" points="818.1,-101.38 828.57,-99.79 819.39,-94.5 818.1,-101.38"/>
<text text-anchor="middle" x="774.25" y="-95.8" font-family="Arial" font-size="10.00">4</text>
</g>
<!-- Langfuse -->
<g id="node7" class="node">
<title>Langfuse</title>
<polygon fill="plum" stroke="black" points="925.25,-64.5 813.25,-64.5 813.25,-28 925.25,-28 925.25,-64.5"/>
<text text-anchor="middle" x="869.25" y="-49.1" font-family="Arial" font-size="12.00">Langfuse</text>
<text text-anchor="middle" x="869.25" y="-34.85" font-family="Arial" font-size="12.00">LLM Observability</text>
</g>
<!-- ServiceLayer&#45;&gt;Langfuse -->
<g id="edge6" class="edge">
<title>ServiceLayer&#45;&gt;Langfuse</title>
<path fill="none" stroke="black" stroke-dasharray="1,5" d="M735.67,-58.07C741.55,-56.59 747.51,-55.27 753.25,-54.25 768.79,-51.5 785.67,-49.69 801.59,-48.49"/>
<polygon fill="black" stroke="black" points="801.72,-51.99 811.47,-47.83 801.25,-45.01 801.72,-51.99"/>
<text text-anchor="middle" x="774.25" y="-68.75" font-family="Arial" font-size="10.00">Traces</text>
<text text-anchor="middle" x="774.25" y="-56.75" font-family="Arial" font-size="10.00">LLM calls</text>
</g>
<!-- Prometheus -->
<g id="node8" class="node">
<title>Prometheus</title>
<polygon fill="lightyellow" stroke="black" points="1135.5,-125.5 1014.5,-125.5 1014.5,-89 1135.5,-89 1135.5,-125.5"/>
<text text-anchor="middle" x="1075" y="-110.1" font-family="Arial" font-size="12.00">Prometheus</text>
<text text-anchor="middle" x="1075" y="-95.85" font-family="Arial" font-size="12.00">Time Series Metrics</text>
</g>
<!-- Database&#45;&gt;Prometheus -->
<g id="edge7" class="edge">
<title>Database&#45;&gt;Prometheus</title>
<path fill="none" stroke="black" stroke-dasharray="1,5" d="M908.1,-107.25C934.76,-107.25 971.26,-107.25 1003.24,-107.25"/>
<polygon fill="black" stroke="black" points="1002.83,-110.75 1012.83,-107.25 1002.83,-103.75 1002.83,-110.75"/>
<text text-anchor="middle" x="969.88" y="-121.75" font-family="Arial" font-size="10.00">Metrics</text>
<text text-anchor="middle" x="969.88" y="-109.75" font-family="Arial" font-size="10.00">Query times</text>
</g>
<!-- StackNote -->
<g id="node9" class="node">
<title>StackNote</title>
<polygon fill="lightyellow" stroke="black" stroke-dasharray="5,2" points="319,-150.88 0,-150.88 0,-71.62 325,-71.62 325,-144.88 319,-150.88"/>
<polyline fill="none" stroke="black" stroke-dasharray="5,2" points="319,-150.88 319,-144.88"/>
<polyline fill="none" stroke="black" stroke-dasharray="5,2" points="325,-144.88 319,-144.88"/>
<text text-anchor="middle" x="162.5" y="-135.47" font-family="Arial" font-size="12.00">Observability Stack:</text>
<text text-anchor="middle" x="162.5" y="-121.22" font-family="Arial" font-size="12.00">&#45; Sentry: Error tracking (confirmed in use)</text>
<text text-anchor="middle" x="162.5" y="-106.97" font-family="Arial" font-size="12.00">&#45; Langfuse: LLM tracing (deployed in K8s, optional for dev)</text>
<text text-anchor="middle" x="162.5" y="-92.72" font-family="Arial" font-size="12.00">&#45; Structlog: Structured logging (Python)</text>
<text text-anchor="middle" x="162.5" y="-78.47" font-family="Arial" font-size="12.00">&#45; Prometheus: Metrics (infrastructure level)</text>
</g>
</g>
</svg>
