<?xml version="1.0" encoding="UTF-8" standalone="no"?>
<!DOCTYPE svg PUBLIC "-//W3C//DTD SVG 1.1//EN"
 "http://www.w3.org/Graphics/SVG/1.1/DTD/svg11.dtd">
<!-- Generated by graphviz version 12.2.1 (0)
 -->
<!-- Title: HighLevelArchitecture Pages: 1 -->
<svg width="607pt" height="729pt"
 viewBox="0.00 0.00 607.00 728.94" xmlns="http://www.w3.org/2000/svg" xmlns:xlink="http://www.w3.org/1999/xlink">
<g id="graph0" class="graph" transform="scale(1 1) rotate(0) translate(4 724.94)">
<title>HighLevelArchitecture</title>
<polygon fill="#f5f5f5" stroke="none" points="-4,4 -4,-724.94 603,-724.94 603,4 -4,4"/>
<g id="clust1" class="cluster">
<title>cluster_client</title>
<polygon fill="lightblue" stroke="black" points="8,-637.19 8,-712.94 112,-712.94 112,-637.19 8,-637.19"/>
<text text-anchor="middle" x="60" y="-695.64" font-family="Arial" font-size="14.00">Client Layer</text>
</g>
<g id="clust2" class="cluster">
<title>cluster_frontend</title>
<polygon fill="lightyellow" stroke="black" points="13,-530.94 13,-607.19 241,-607.19 241,-530.94 13,-530.94"/>
<text text-anchor="middle" x="127" y="-589.89" font-family="Arial" font-size="14.00">Frontend Service</text>
</g>
<g id="clust3" class="cluster">
<title>cluster_backend</title>
<polygon fill="lightgreen" stroke="black" points="58,-318.69 58,-500.94 184,-500.94 184,-318.69 58,-318.69"/>
<text text-anchor="middle" x="121" y="-483.64" font-family="Arial" font-size="14.00">Backend Services</text>
</g>
<g id="clust4" class="cluster">
<title>cluster_agents</title>
<polygon fill="lightcyan" stroke="black" points="192,-128.19 192,-394.69 340,-394.69 340,-128.19 192,-128.19"/>
<text text-anchor="middle" x="266" y="-377.39" font-family="Arial" font-size="14.00">Agent Layer</text>
</g>
<g id="clust5" class="cluster">
<title>cluster_data</title>
<polygon fill="lightgray" stroke="black" points="95,-8 95,-97.94 428,-97.94 428,-8 95,-8"/>
<text text-anchor="middle" x="261.5" y="-80.64" font-family="Arial" font-size="14.00">Data Layer</text>
</g>
<g id="clust6" class="cluster">
<title>cluster_external</title>
<polygon fill="lavender" stroke="black" points="348,-127.94 348,-204.19 591,-204.19 591,-127.94 348,-127.94"/>
<text text-anchor="middle" x="469.5" y="-186.89" font-family="Arial" font-size="14.00">External Services</text>
</g>
<!-- Browser -->
<g id="node1" class="node">
<title>Browser</title>
<polygon fill="lightgrey" stroke="black" points="104,-681.19 16,-681.19 16,-645.19 104,-645.19 104,-681.19"/>
<text text-anchor="middle" x="60" y="-658.91" font-family="Arial" font-size="12.00">Web Browser</text>
</g>
<!-- NextJS -->
<g id="node2" class="node">
<title>NextJS</title>
<polygon fill="yellow" stroke="black" points="98.75,-575.44 21.25,-575.44 21.25,-538.94 98.75,-538.94 98.75,-575.44"/>
<text text-anchor="middle" x="60" y="-560.04" font-family="Arial" font-size="12.00">Next.js App</text>
<text text-anchor="middle" x="60" y="-545.79" font-family="Arial" font-size="12.00">Port 3000</text>
</g>
<!-- Browser&#45;&gt;NextJS -->
<g id="edge1" class="edge">
<title>Browser&#45;&gt;NextJS</title>
<path fill="none" stroke="black" d="M60,-645.01C60,-629.3 60,-605.74 60,-587.12"/>
<polygon fill="black" stroke="black" points="63.5,-587.25 60,-577.25 56.5,-587.25 63.5,-587.25"/>
<text text-anchor="middle" x="99.75" y="-617.69" font-family="Arial" font-size="10.00">HTTP/WebSocket</text>
</g>
<!-- FastAPI -->
<g id="node4" class="node">
<title>FastAPI</title>
<polygon fill="green" stroke="black" points="175.5,-469.19 66.5,-469.19 66.5,-432.69 175.5,-432.69 175.5,-469.19"/>
<text text-anchor="middle" x="121" y="-453.79" font-family="Arial" font-size="12.00">FastAPI Backend</text>
<text text-anchor="middle" x="121" y="-439.54" font-family="Arial" font-size="12.00">Port 8000</text>
</g>
<!-- NextJS&#45;&gt;FastAPI -->
<g id="edge2" class="edge">
<title>NextJS&#45;&gt;FastAPI</title>
<path fill="none" stroke="black" d="M70.35,-538.5C79.87,-522.23 94.13,-497.85 105.1,-479.11"/>
<polygon fill="black" stroke="black" points="108.01,-481.07 110.04,-470.67 101.97,-477.53 108.01,-481.07"/>
<text text-anchor="middle" x="116.1" y="-511.44" font-family="Arial" font-size="10.00">wretch HTTP</text>
</g>
<!-- NextAPI -->
<g id="node3" class="node">
<title>NextAPI</title>
<polygon fill="wheat" stroke="black" points="233.25,-575.19 116.75,-575.19 116.75,-539.19 233.25,-539.19 233.25,-575.19"/>
<text text-anchor="middle" x="175" y="-552.91" font-family="Arial" font-size="12.00">Next.js API Routes</text>
</g>
<!-- NextAPI&#45;&gt;FastAPI -->
<g id="edge3" class="edge">
<title>NextAPI&#45;&gt;FastAPI</title>
<path fill="none" stroke="black" d="M166.08,-538.97C157.73,-522.85 145.1,-498.47 135.34,-479.62"/>
<polygon fill="black" stroke="black" points="138.51,-478.14 130.81,-470.87 132.3,-481.36 138.51,-478.14"/>
<text text-anchor="middle" x="180.74" y="-511.44" font-family="Arial" font-size="10.00">Server&#45;side</text>
</g>
<!-- MedCat -->
<g id="node5" class="node">
<title>MedCat</title>
<polygon fill="palegreen" stroke="black" points="172.5,-363.19 69.5,-363.19 69.5,-326.69 172.5,-326.69 172.5,-363.19"/>
<text text-anchor="middle" x="121" y="-347.79" font-family="Arial" font-size="12.00">Medical Catalog</text>
<text text-anchor="middle" x="121" y="-333.54" font-family="Arial" font-size="12.00">Port 8001</text>
</g>
<!-- FastAPI&#45;&gt;MedCat -->
<g id="edge5" class="edge">
<title>FastAPI&#45;&gt;MedCat</title>
<path fill="none" stroke="black" d="M121,-432.3C121,-416.61 121,-393.37 121,-374.95"/>
<polygon fill="black" stroke="black" points="124.5,-375.18 121,-365.18 117.5,-375.18 124.5,-375.18"/>
<text text-anchor="middle" x="134.12" y="-405.19" font-family="Arial" font-size="10.00">HTTP</text>
</g>
<!-- ADK -->
<g id="node6" class="node">
<title>ADK</title>
<polygon fill="#e1f5ff" stroke="black" points="331.75,-362.94 200.25,-362.94 200.25,-326.94 331.75,-326.94 331.75,-362.94"/>
<text text-anchor="middle" x="266" y="-340.66" font-family="Arial" font-size="12.00">Google ADK Runtime</text>
</g>
<!-- FastAPI&#45;&gt;ADK -->
<g id="edge4" class="edge">
<title>FastAPI&#45;&gt;ADK</title>
<path fill="none" stroke="black" d="M145.6,-432.3C169.49,-415.16 205.94,-389.01 232.48,-369.98"/>
<polygon fill="black" stroke="black" points="234.45,-372.87 240.54,-364.2 230.37,-367.19 234.45,-372.87"/>
<text text-anchor="middle" x="213.69" y="-405.19" font-family="Arial" font-size="10.00">Internal Calls</text>
</g>
<!-- GCP -->
<g id="node14" class="node">
<title>GCP</title>
<polygon fill="plum" stroke="black" points="583.12,-172.44 492.88,-172.44 492.88,-135.94 583.12,-135.94 583.12,-172.44"/>
<text text-anchor="middle" x="538" y="-157.04" font-family="Arial" font-size="12.00">Google Cloud</text>
<text text-anchor="middle" x="538" y="-142.79" font-family="Arial" font-size="12.00">Vertex AI</text>
</g>
<!-- FastAPI&#45;&gt;GCP -->
<g id="edge13" class="edge">
<title>FastAPI&#45;&gt;GCP</title>
<path fill="none" stroke="black" d="M175.71,-446.15C223.36,-440.69 292.67,-427.33 344,-394.69 430.42,-339.73 496.05,-233.09 523.68,-182.75"/>
<polygon fill="black" stroke="black" points="526.6,-184.7 528.27,-174.24 520.44,-181.38 526.6,-184.7"/>
<text text-anchor="middle" x="475.49" y="-299.19" font-family="Arial" font-size="10.00">Auth/Storage</text>
</g>
<!-- Agents -->
<g id="node7" class="node">
<title>Agents</title>
<polygon fill="#b3e5fc" stroke="black" points="314,-278.69 244,-278.69 244,-242.19 314,-242.19 314,-278.69"/>
<text text-anchor="middle" x="279" y="-263.29" font-family="Arial" font-size="12.00">23 Agents</text>
<text text-anchor="middle" x="279" y="-249.04" font-family="Arial" font-size="12.00">11 Types</text>
</g>
<!-- ADK&#45;&gt;Agents -->
<g id="edge6" class="edge">
<title>ADK&#45;&gt;Agents</title>
<path fill="none" stroke="black" d="M268.76,-326.44C270.41,-315.94 272.56,-302.33 274.46,-290.27"/>
<polygon fill="black" stroke="black" points="277.91,-290.83 276.01,-280.4 271,-289.74 277.91,-290.83"/>
<text text-anchor="middle" x="293.15" y="-299.19" font-family="Arial" font-size="10.00">Manages</text>
</g>
<!-- Tools -->
<g id="node8" class="node">
<title>Tools</title>
<polygon fill="#81d4fa" stroke="black" points="318.5,-172.19 239.5,-172.19 239.5,-136.19 318.5,-136.19 318.5,-172.19"/>
<text text-anchor="middle" x="279" y="-149.91" font-family="Arial" font-size="12.00">Agent Tools</text>
</g>
<!-- Agents&#45;&gt;Tools -->
<g id="edge7" class="edge">
<title>Agents&#45;&gt;Tools</title>
<path fill="none" stroke="black" d="M279,-241.75C279,-225.93 279,-202.45 279,-183.93"/>
<polygon fill="black" stroke="black" points="282.5,-184.12 279,-174.12 275.5,-184.12 282.5,-184.12"/>
<text text-anchor="middle" x="287.62" y="-214.69" font-family="Arial" font-size="10.00">Call</text>
</g>
<!-- Gemini -->
<g id="node13" class="node">
<title>Gemini</title>
<polygon fill="plum" stroke="black" points="474.38,-172.19 355.62,-172.19 355.62,-136.19 474.38,-136.19 474.38,-172.19"/>
<text text-anchor="middle" x="415" y="-149.91" font-family="Arial" font-size="12.00">Google Gemini API</text>
</g>
<!-- Agents&#45;&gt;Gemini -->
<g id="edge12" class="edge">
<title>Agents&#45;&gt;Gemini</title>
<path fill="none" stroke="black" d="M302.07,-241.75C324.38,-224.65 358.37,-198.6 383.23,-179.54"/>
<polygon fill="black" stroke="black" points="385.26,-182.39 391.07,-173.53 381,-176.84 385.26,-182.39"/>
<text text-anchor="middle" x="360.98" y="-214.69" font-family="Arial" font-size="10.00">LLM Calls</text>
</g>
<!-- Postgres -->
<g id="node9" class="node">
<title>Postgres</title>
<path fill="skyblue" stroke="black" d="M184.62,-61.62C184.62,-64.14 166.42,-66.19 144,-66.19 121.58,-66.19 103.38,-64.14 103.38,-61.62 103.38,-61.62 103.38,-20.56 103.38,-20.56 103.38,-18.04 121.58,-16 144,-16 166.42,-16 184.62,-18.04 184.62,-20.56 184.62,-20.56 184.62,-61.62 184.62,-61.62"/>
<path fill="none" stroke="black" d="M184.62,-61.62C184.62,-59.11 166.42,-57.06 144,-57.06 121.58,-57.06 103.38,-59.11 103.38,-61.62"/>
<text text-anchor="middle" x="144" y="-43.94" font-family="Arial" font-size="12.00">PostgreSQL</text>
<text text-anchor="middle" x="144" y="-29.69" font-family="Arial" font-size="12.00">5432</text>
</g>
<!-- Tools&#45;&gt;Postgres -->
<g id="edge8" class="edge">
<title>Tools&#45;&gt;Postgres</title>
<path fill="none" stroke="black" d="M239.24,-150.5C214.55,-146.77 183.94,-138.06 164.5,-117.94 154.21,-107.28 148.96,-92.02 146.33,-77.98"/>
<polygon fill="black" stroke="black" points="149.79,-77.49 144.9,-68.09 142.87,-78.49 149.79,-77.49"/>
<text text-anchor="middle" x="195.25" y="-108.44" font-family="Arial" font-size="10.00">Direct Access</text>
</g>
<!-- Neo4j -->
<g id="node10" class="node">
<title>Neo4j</title>
<path fill="skyblue" stroke="black" d="M275.5,-61.62C275.5,-64.14 259.14,-66.19 239,-66.19 218.86,-66.19 202.5,-64.14 202.5,-61.62 202.5,-61.62 202.5,-20.56 202.5,-20.56 202.5,-18.04 218.86,-16 239,-16 259.14,-16 275.5,-18.04 275.5,-20.56 275.5,-20.56 275.5,-61.62 275.5,-61.62"/>
<path fill="none" stroke="black" d="M275.5,-61.62C275.5,-59.11 259.14,-57.06 239,-57.06 218.86,-57.06 202.5,-59.11 202.5,-61.62"/>
<text text-anchor="middle" x="239" y="-43.94" font-family="Arial" font-size="12.00">Neo4j</text>
<text text-anchor="middle" x="239" y="-29.69" font-family="Arial" font-size="12.00">7474/7687</text>
</g>
<!-- Tools&#45;&gt;Neo4j -->
<g id="edge9" class="edge">
<title>Tools&#45;&gt;Neo4j</title>
<path fill="none" stroke="black" d="M248.74,-135.88C242.69,-130.91 237.16,-124.92 233.75,-117.94 227.74,-105.65 227.46,-90.88 229.25,-77.65"/>
<polygon fill="black" stroke="black" points="232.66,-78.48 231,-68.01 225.77,-77.23 232.66,-78.48"/>
<text text-anchor="middle" x="267.88" y="-108.44" font-family="Arial" font-size="10.00">Cypher Queries</text>
</g>
<!-- Redis -->
<g id="node11" class="node">
<title>Redis</title>
<path fill="skyblue" stroke="black" d="M348,-61.62C348,-64.14 335.9,-66.19 321,-66.19 306.1,-66.19 294,-64.14 294,-61.62 294,-61.62 294,-20.56 294,-20.56 294,-18.04 306.1,-16 321,-16 335.9,-16 348,-18.04 348,-20.56 348,-20.56 348,-61.62 348,-61.62"/>
<path fill="none" stroke="black" d="M348,-61.62C348,-59.11 335.9,-57.06 321,-57.06 306.1,-57.06 294,-59.11 294,-61.62"/>
<text text-anchor="middle" x="321" y="-43.94" font-family="Arial" font-size="12.00">Redis</text>
<text text-anchor="middle" x="321" y="-29.69" font-family="Arial" font-size="12.00">6379</text>
</g>
<!-- Tools&#45;&gt;Redis -->
<g id="edge10" class="edge">
<title>Tools&#45;&gt;Redis</title>
<path fill="none" stroke="black" d="M291.91,-135.91C295.58,-130.38 299.31,-124.1 302,-117.94 307.55,-105.24 311.69,-90.6 314.67,-77.6"/>
<polygon fill="black" stroke="black" points="318.02,-78.67 316.68,-68.16 311.17,-77.21 318.02,-78.67"/>
<text text-anchor="middle" x="325.38" y="-108.44" font-family="Arial" font-size="10.00">Pub/Sub</text>
</g>
<!-- Qdrant -->
<g id="node12" class="node">
<title>Qdrant</title>
<path fill="skyblue" stroke="black" d="M420,-61.62C420,-64.14 407.9,-66.19 393,-66.19 378.1,-66.19 366,-64.14 366,-61.62 366,-61.62 366,-20.56 366,-20.56 366,-18.04 378.1,-16 393,-16 407.9,-16 420,-18.04 420,-20.56 420,-20.56 420,-61.62 420,-61.62"/>
<path fill="none" stroke="black" d="M420,-61.62C420,-59.11 407.9,-57.06 393,-57.06 378.1,-57.06 366,-59.11 366,-61.62"/>
<text text-anchor="middle" x="393" y="-43.94" font-family="Arial" font-size="12.00">Qdrant</text>
<text text-anchor="middle" x="393" y="-29.69" font-family="Arial" font-size="12.00">6333</text>
</g>
<!-- Tools&#45;&gt;Qdrant -->
<g id="edge11" class="edge">
<title>Tools&#45;&gt;Qdrant</title>
<path fill="none" stroke="black" d="M318.71,-137.67C329.01,-132.43 339.57,-125.86 348,-117.94 360.4,-106.3 370.51,-90.49 377.98,-76.31"/>
<polygon fill="black" stroke="black" points="380.93,-78.23 382.27,-67.72 374.67,-75.1 380.93,-78.23"/>
<text text-anchor="middle" x="388.51" y="-108.44" font-family="Arial" font-size="10.00">Vector Search</text>
</g>
</g>
</svg>
