<?xml version="1.0" encoding="UTF-8" standalone="no"?>
<!DOCTYPE svg PUBLIC "-//W3C//DTD SVG 1.1//EN"
 "http://www.w3.org/Graphics/SVG/1.1/DTD/svg11.dtd">
<!-- Generated by graphviz version 12.2.1 (0)
 -->
<!-- Title: StandardEntities Pages: 1 -->
<svg width="1641pt" height="228pt"
 viewBox="0.00 0.00 1641.25 227.50" xmlns="http://www.w3.org/2000/svg" xmlns:xlink="http://www.w3.org/1999/xlink">
<g id="graph0" class="graph" transform="scale(1 1) rotate(0) translate(4 223.5)">
<title>StandardEntities</title>
<polygon fill="#f5f5f5" stroke="none" points="-4,4 -4,-223.5 1637.25,-223.5 1637.25,4 -4,4"/>
<text text-anchor="middle" x="816.62" y="-200.3" font-family="Arial" font-size="16.00">Standard Entity Definitions</text>
<text text-anchor="middle" x="816.62" y="-162.55" font-family="Arial" font-size="16.00">Use these exact definitions for consistency across all diagrams</text>
<g id="clust1" class="cluster">
<title>cluster_services</title>
<polygon fill="white" stroke="black" points="8,-51.25 8,-130.5 376,-130.5 376,-51.25 8,-51.25"/>
<text text-anchor="middle" x="192" y="-111.3" font-family="Arial" font-size="16.00">Core Services</text>
</g>
<g id="clust2" class="cluster">
<title>cluster_databases</title>
<polygon fill="white" stroke="black" points="384,-44.41 384,-137.34 717,-137.34 717,-44.41 384,-44.41"/>
<text text-anchor="middle" x="550.5" y="-118.14" font-family="Arial" font-size="16.00">Databases</text>
</g>
<g id="clust3" class="cluster">
<title>cluster_external</title>
<polygon fill="white" stroke="black" points="725,-51.5 725,-130.25 1121,-130.25 1121,-51.5 725,-51.5"/>
<text text-anchor="middle" x="923" y="-111.05" font-family="Arial" font-size="16.00">External Services &amp; Clients</text>
</g>
<g id="clust4" class="cluster">
<title>cluster_agents</title>
<polygon fill="white" stroke="black" points="1129,-51.25 1129,-130.5 1333,-130.5 1333,-51.25 1129,-51.25"/>
<text text-anchor="middle" x="1231" y="-111.3" font-family="Arial" font-size="16.00">Agent System</text>
</g>
<!-- FastAPI -->
<g id="node1" class="node">
<title>FastAPI</title>
<polygon fill="lightgreen" stroke="black" points="125.5,-95.75 16.5,-95.75 16.5,-59.25 125.5,-59.25 125.5,-95.75"/>
<text text-anchor="middle" x="71" y="-80.35" font-family="Arial" font-size="12.00">FastAPI Backend</text>
<text text-anchor="middle" x="71" y="-66.1" font-family="Arial" font-size="12.00">Port 8000</text>
</g>
<!-- NextJS -->
<g id="node2" class="node">
<title>NextJS</title>
<polygon fill="lightyellow" stroke="black" points="246.88,-95.75 143.12,-95.75 143.12,-59.25 246.88,-59.25 246.88,-95.75"/>
<text text-anchor="middle" x="195" y="-80.35" font-family="Arial" font-size="12.00">Next.js Frontend</text>
<text text-anchor="middle" x="195" y="-66.1" font-family="Arial" font-size="12.00">Port 3000</text>
</g>
<!-- MedicalCatalog -->
<g id="node3" class="node">
<title>MedicalCatalog</title>
<polygon fill="lightpink" stroke="black" points="367.5,-95.75 264.5,-95.75 264.5,-59.25 367.5,-59.25 367.5,-95.75"/>
<text text-anchor="middle" x="316" y="-80.35" font-family="Arial" font-size="12.00">Medical Catalog</text>
<text text-anchor="middle" x="316" y="-66.1" font-family="Arial" font-size="12.00">Port 8001</text>
</g>
<!-- Postgres -->
<g id="node4" class="node">
<title>Postgres</title>
<path fill="skyblue" stroke="black" d="M473.62,-98.03C473.62,-100.55 455.42,-102.59 433,-102.59 410.58,-102.59 392.38,-100.55 392.38,-98.03 392.38,-98.03 392.38,-56.97 392.38,-56.97 392.38,-54.45 410.58,-52.41 433,-52.41 455.42,-52.41 473.62,-54.45 473.62,-56.97 473.62,-56.97 473.62,-98.03 473.62,-98.03"/>
<path fill="none" stroke="black" d="M473.62,-98.03C473.62,-95.51 455.42,-93.47 433,-93.47 410.58,-93.47 392.38,-95.51 392.38,-98.03"/>
<text text-anchor="middle" x="433" y="-80.35" font-family="Arial" font-size="12.00">PostgreSQL</text>
<text text-anchor="middle" x="433" y="-66.1" font-family="Arial" font-size="12.00">5432</text>
</g>
<!-- Neo4j -->
<g id="node5" class="node">
<title>Neo4j</title>
<path fill="skyblue" stroke="black" d="M564.5,-98.03C564.5,-100.55 548.14,-102.59 528,-102.59 507.86,-102.59 491.5,-100.55 491.5,-98.03 491.5,-98.03 491.5,-56.97 491.5,-56.97 491.5,-54.45 507.86,-52.41 528,-52.41 548.14,-52.41 564.5,-54.45 564.5,-56.97 564.5,-56.97 564.5,-98.03 564.5,-98.03"/>
<path fill="none" stroke="black" d="M564.5,-98.03C564.5,-95.51 548.14,-93.47 528,-93.47 507.86,-93.47 491.5,-95.51 491.5,-98.03"/>
<text text-anchor="middle" x="528" y="-80.35" font-family="Arial" font-size="12.00">Neo4j</text>
<text text-anchor="middle" x="528" y="-66.1" font-family="Arial" font-size="12.00">7474/7687</text>
</g>
<!-- Redis -->
<g id="node6" class="node">
<title>Redis</title>
<path fill="skyblue" stroke="black" d="M637,-98.03C637,-100.55 624.9,-102.59 610,-102.59 595.1,-102.59 583,-100.55 583,-98.03 583,-98.03 583,-56.97 583,-56.97 583,-54.45 595.1,-52.41 610,-52.41 624.9,-52.41 637,-54.45 637,-56.97 637,-56.97 637,-98.03 637,-98.03"/>
<path fill="none" stroke="black" d="M637,-98.03C637,-95.51 624.9,-93.47 610,-93.47 595.1,-93.47 583,-95.51 583,-98.03"/>
<text text-anchor="middle" x="610" y="-80.35" font-family="Arial" font-size="12.00">Redis</text>
<text text-anchor="middle" x="610" y="-66.1" font-family="Arial" font-size="12.00">6379</text>
</g>
<!-- Qdrant -->
<g id="node7" class="node">
<title>Qdrant</title>
<path fill="skyblue" stroke="black" d="M709,-98.03C709,-100.55 696.9,-102.59 682,-102.59 667.1,-102.59 655,-100.55 655,-98.03 655,-98.03 655,-56.97 655,-56.97 655,-54.45 667.1,-52.41 682,-52.41 696.9,-52.41 709,-54.45 709,-56.97 709,-56.97 709,-98.03 709,-98.03"/>
<path fill="none" stroke="black" d="M709,-98.03C709,-95.51 696.9,-93.47 682,-93.47 667.1,-93.47 655,-95.51 655,-98.03"/>
<text text-anchor="middle" x="682" y="-80.35" font-family="Arial" font-size="12.00">Qdrant</text>
<text text-anchor="middle" x="682" y="-66.1" font-family="Arial" font-size="12.00">6333</text>
</g>
<!-- Browser -->
<g id="node8" class="node">
<title>Browser</title>
<polygon fill="lightblue" stroke="black" points="821,-95.5 733,-95.5 733,-59.5 821,-59.5 821,-95.5"/>
<text text-anchor="middle" x="777" y="-73.22" font-family="Arial" font-size="12.00">Web Browser</text>
</g>
<!-- GeminiAPI -->
<g id="node9" class="node">
<title>GeminiAPI</title>
<polygon fill="plum" stroke="black" points="957.38,-95.5 838.62,-95.5 838.62,-59.5 957.38,-59.5 957.38,-95.5"/>
<text text-anchor="middle" x="898" y="-73.22" font-family="Arial" font-size="12.00">Google Gemini API</text>
</g>
<!-- GCP -->
<g id="node10" class="node">
<title>GCP</title>
<polygon fill="plum" stroke="black" points="1112.75,-95.5 975.25,-95.5 975.25,-59.5 1112.75,-59.5 1112.75,-95.5"/>
<text text-anchor="middle" x="1044" y="-73.22" font-family="Arial" font-size="12.00">Google Cloud Platform</text>
</g>
<!-- AgentSystem -->
<g id="node11" class="node">
<title>AgentSystem</title>
<polygon fill="lightcyan" stroke="black" points="1227.12,-95.75 1136.88,-95.75 1136.88,-59.25 1227.12,-59.25 1227.12,-95.75"/>
<text text-anchor="middle" x="1182" y="-80.35" font-family="Arial" font-size="12.00">Agent System</text>
<text text-anchor="middle" x="1182" y="-66.1" font-family="Arial" font-size="12.00">23 agents</text>
</g>
<!-- AgentTools -->
<g id="node12" class="node">
<title>AgentTools</title>
<polygon fill="cyan" stroke="black" points="1324.5,-95.5 1245.5,-95.5 1245.5,-59.5 1324.5,-59.5 1324.5,-95.5"/>
<text text-anchor="middle" x="1285" y="-73.22" font-family="Arial" font-size="12.00">Agent Tools</text>
</g>
<!-- note -->
<g id="node13" class="node">
<title>note</title>
<polygon fill="white" stroke="black" points="1627.25,-155 1342.75,-155 1342.75,0 1633.25,0 1633.25,-149 1627.25,-155"/>
<polyline fill="none" stroke="black" points="1627.25,-155 1627.25,-149"/>
<polyline fill="none" stroke="black" points="1633.25,-149 1627.25,-149"/>
<text text-anchor="middle" x="1488" y="-140.55" font-family="Arial" font-size="11.00">USAGE:</text>
<text text-anchor="middle" x="1488" y="-114.05" font-family="Arial" font-size="11.00">Copy these exact node definitions into your diagrams.</text>
<text text-anchor="middle" x="1488" y="-100.55" font-family="Arial" font-size="11.00">This ensures visual consistency across all documentation.</text>
<text text-anchor="middle" x="1488" y="-74.05" font-family="Arial" font-size="11.00">Example:</text>
<text text-anchor="middle" x="1488" y="-60.55" font-family="Arial" font-size="11.00"> &#160;FastAPI [label=&quot;FastAPI Backend\nPort 8000&quot;,</text>
<text text-anchor="middle" x="1488" y="-47.05" font-family="Arial" font-size="11.00"> &#160;&#160;&#160;&#160;&#160;&#160;&#160;&#160;&#160;&#160;fillcolor=lightgreen,</text>
<text text-anchor="middle" x="1488" y="-33.55" font-family="Arial" font-size="11.00"> &#160;&#160;&#160;&#160;&#160;&#160;&#160;&#160;&#160;&#160;shape=box];</text>
<text text-anchor="middle" x="1488" y="-7.05" font-family="Arial" font-size="11.00">See docs/DIAGRAMS.md for complete style guide.</text>
</g>
</g>
</svg>
