<?xml version="1.0" encoding="UTF-8" standalone="no"?>
<!DOCTYPE svg PUBLIC "-//W3C//DTD SVG 1.1//EN"
 "http://www.w3.org/Graphics/SVG/1.1/DTD/svg11.dtd">
<!-- Generated by graphviz version 12.2.1 (0)
 -->
<!-- Title: SystemArchitecture Pages: 1 -->
<svg width="1373pt" height="980pt"
 viewBox="0.00 0.00 1373.00 979.50" xmlns="http://www.w3.org/2000/svg" xmlns:xlink="http://www.w3.org/1999/xlink">
<g id="graph0" class="graph" transform="scale(1 1) rotate(0) translate(4 975.5)">
<title>SystemArchitecture</title>
<polygon fill="#f5f5f5" stroke="none" points="-4,4 -4,-975.5 1369,-975.5 1369,4 -4,4"/>
<g id="clust1" class="cluster">
<title>cluster_frontend</title>
<polygon fill="lightyellow" stroke="black" points="714,-736.75 714,-897.5 892,-897.5 892,-736.75 714,-736.75"/>
<text text-anchor="middle" x="803" y="-880.2" font-family="Arial" font-size="14.00">Frontend Layer (Port 3000)</text>
</g>
<g id="clust2" class="cluster">
<title>cluster_backend</title>
<polygon fill="lightgreen" stroke="black" points="491,-128.5 491,-694.75 913,-694.75 913,-128.5 491,-128.5"/>
<text text-anchor="middle" x="702" y="-677.45" font-family="Arial" font-size="14.00">Backend Layer (Port 8000)</text>
</g>
<g id="clust3" class="cluster">
<title>cluster_agents</title>
<polygon fill="lightcyan" stroke="black" points="635,-331.25 635,-576.5 905,-576.5 905,-331.25 635,-331.25"/>
<text text-anchor="middle" x="770" y="-559.2" font-family="Arial" font-size="14.00">Agent System</text>
</g>
<g id="clust4" class="cluster">
<title>cluster_medical_catalog</title>
<polygon fill="lightpink" stroke="black" points="921,-416 921,-576.5 1154,-576.5 1154,-416 921,-416"/>
<text text-anchor="middle" x="1037.5" y="-559.2" font-family="Arial" font-size="14.00">Medical Catalog Service (Port 8001)</text>
</g>
<g id="clust5" class="cluster">
<title>cluster_databases</title>
<polygon fill="lightgray" stroke="black" points="637,-8 637,-98.5 1159,-98.5 1159,-8 637,-8"/>
<text text-anchor="middle" x="898" y="-81.2" font-family="Arial" font-size="14.00">Database Layer</text>
</g>
<g id="clust6" class="cluster">
<title>cluster_external</title>
<polygon fill="lavender" stroke="black" points="114,-213 114,-289.25 483,-289.25 483,-213 114,-213"/>
<text text-anchor="middle" x="298.5" y="-271.95" font-family="Arial" font-size="14.00">External Services</text>
</g>
<!-- user -->
<g id="node1" class="node">
<title>user</title>
<polygon fill="lightblue" stroke="black" points="851.12,-971.5 754.88,-971.5 754.88,-935.5 851.12,-935.5 851.12,-971.5"/>
<text text-anchor="middle" x="803" y="-949.23" font-family="Arial" font-size="12.00">User (Browser)</text>
</g>
<!-- webui -->
<g id="node2" class="node">
<title>webui</title>
<polygon fill="yellow" stroke="black" points="871.75,-865.75 734.25,-865.75 734.25,-829.25 871.75,-829.25 871.75,-865.75"/>
<text text-anchor="middle" x="803" y="-850.35" font-family="Arial" font-size="12.00">dem2&#45;webui</text>
<text text-anchor="middle" x="803" y="-836.1" font-family="Arial" font-size="12.00">(Next.js 15 + React 19)</text>
</g>
<!-- user&#45;&gt;webui -->
<g id="edge1" class="edge">
<title>user&#45;&gt;webui</title>
<path fill="none" stroke="black" d="M803,-935.33C803,-919.61 803,-896.05 803,-877.43"/>
<polygon fill="black" stroke="black" points="806.5,-877.56 803,-867.56 799.5,-877.56 806.5,-877.56"/>
<text text-anchor="middle" x="842.75" y="-908" font-family="Arial" font-size="10.00">HTTP/WebSocket</text>
</g>
<!-- wretch -->
<g id="node3" class="node">
<title>wretch</title>
<polygon fill="wheat" stroke="black" points="854.25,-781.25 731.75,-781.25 731.75,-744.75 854.25,-744.75 854.25,-781.25"/>
<text text-anchor="middle" x="793" y="-765.85" font-family="Arial" font-size="12.00">Wretch HTTP Client</text>
<text text-anchor="middle" x="793" y="-751.6" font-family="Arial" font-size="12.00">(API calls)</text>
</g>
<!-- webui&#45;&gt;wretch -->
<g id="edge2" class="edge">
<title>webui&#45;&gt;wretch</title>
<path fill="none" stroke="black" d="M800.88,-829C799.61,-818.5 797.96,-804.89 796.49,-792.83"/>
<polygon fill="black" stroke="black" points="799.98,-792.48 795.3,-782.97 793.03,-793.32 799.98,-792.48"/>
<text text-anchor="middle" x="818.47" y="-801.75" font-family="Arial" font-size="10.00">API calls</text>
</g>
<!-- fastapi -->
<g id="node4" class="node">
<title>fastapi</title>
<polygon fill="green" stroke="black" points="895.62,-663 796.38,-663 796.38,-626.5 895.62,-626.5 895.62,-663"/>
<text text-anchor="middle" x="846" y="-647.6" font-family="Arial" font-size="12.00">FastAPI Server</text>
<text text-anchor="middle" x="846" y="-633.35" font-family="Arial" font-size="12.00">(126 endpoints)</text>
</g>
<!-- wretch&#45;&gt;fastapi -->
<g id="edge3" class="edge">
<title>wretch&#45;&gt;fastapi</title>
<path fill="none" stroke="black" d="M796.35,-744.41C798.99,-732.36 803.25,-716.19 809.25,-702.75 813.84,-692.49 820.11,-681.95 826.18,-672.77"/>
<polygon fill="black" stroke="black" points="828.97,-674.9 831.74,-664.67 823.19,-670.94 828.97,-674.9"/>
<text text-anchor="middle" x="842.62" y="-717.25" font-family="Arial" font-size="10.00">HTTP REST</text>
<text text-anchor="middle" x="842.62" y="-705.25" font-family="Arial" font-size="10.00">(126 endpoints)</text>
</g>
<!-- fastapi&#45;&gt;webui -->
<g id="edge28" class="edge">
<title>fastapi&#45;&gt;webui</title>
<path fill="none" stroke="black" stroke-dasharray="5,2" d="M863.9,-673.24C868.82,-682.27 873.49,-692.61 876,-702.75 878.56,-713.11 877.25,-716.16 876,-726.75 871.27,-766.95 868.79,-780.9 842,-811.25 836.56,-817.41 830.13,-823.59 824.07,-829.02"/>
<polygon fill="black" stroke="black" points="866.94,-671.51 858.88,-664.63 860.89,-675.03 866.94,-671.51"/>
<text text-anchor="middle" x="935.9" y="-759.5" font-family="Arial" font-size="10.00">HTTP/WebSocket response</text>
</g>
<!-- auth_service -->
<g id="node5" class="node">
<title>auth_service</title>
<polygon fill="lightgreen" stroke="black" points="626.88,-544.75 499.12,-544.75 499.12,-508.25 626.88,-508.25 626.88,-544.75"/>
<text text-anchor="middle" x="563" y="-529.35" font-family="Arial" font-size="12.00">Auth Service</text>
<text text-anchor="middle" x="563" y="-515.1" font-family="Arial" font-size="12.00">(JWT + Google SSO)</text>
</g>
<!-- fastapi&#45;&gt;auth_service -->
<g id="edge4" class="edge">
<title>fastapi&#45;&gt;auth_service</title>
<path fill="none" stroke="black" d="M796.02,-632.96C751.29,-622.18 684.69,-603.35 631,-576.5 617.68,-569.84 604.14,-560.67 592.69,-552.07"/>
<polygon fill="black" stroke="black" points="594.86,-549.32 584.81,-545.97 590.57,-554.85 594.86,-549.32"/>
<text text-anchor="middle" x="741.67" y="-593" font-family="Arial" font-size="10.00">Auth middleware</text>
</g>
<!-- tusdi_ai -->
<g id="node6" class="node">
<title>tusdi_ai</title>
<polygon fill="cyan" stroke="black" points="882.38,-544.75 757.62,-544.75 757.62,-508.25 882.38,-508.25 882.38,-544.75"/>
<text text-anchor="middle" x="820" y="-529.35" font-family="Arial" font-size="12.00">TusdiAI</text>
<text text-anchor="middle" x="820" y="-515.1" font-family="Arial" font-size="12.00">(ParallelAgent Root)</text>
</g>
<!-- fastapi&#45;&gt;tusdi_ai -->
<g id="edge8" class="edge">
<title>fastapi&#45;&gt;tusdi_ai</title>
<path fill="none" stroke="black" d="M842.05,-626.09C837.88,-607.47 831.26,-577.83 826.35,-555.9"/>
<polygon fill="black" stroke="black" points="829.83,-555.41 824.23,-546.42 823,-556.94 829.83,-555.41"/>
<text text-anchor="middle" x="862.72" y="-593" font-family="Arial" font-size="10.00">Query input</text>
</g>
<!-- catalog_api -->
<g id="node14" class="node">
<title>catalog_api</title>
<polygon fill="pink" stroke="black" points="1052.25,-544.75 959.75,-544.75 959.75,-508.25 1052.25,-508.25 1052.25,-544.75"/>
<text text-anchor="middle" x="1006" y="-529.35" font-family="Arial" font-size="12.00">Catalog API</text>
<text text-anchor="middle" x="1006" y="-515.1" font-family="Arial" font-size="12.00">(21 endpoints)</text>
</g>
<!-- fastapi&#45;&gt;catalog_api -->
<g id="edge20" class="edge">
<title>fastapi&#45;&gt;catalog_api</title>
<path fill="none" stroke="black" d="M870.3,-626.09C897.63,-606.24 942.19,-573.86 972.74,-551.67"/>
<polygon fill="black" stroke="black" points="974.48,-554.73 980.51,-546.02 970.36,-549.07 974.48,-554.73"/>
<text text-anchor="middle" x="954.12" y="-599" font-family="Arial" font-size="10.00">HTTP REST</text>
<text text-anchor="middle" x="954.12" y="-587" font-family="Arial" font-size="10.00">(optional)</text>
</g>
<!-- redis -->
<g id="node18" class="node">
<title>redis</title>
<polygon fill="gray" stroke="black" points="1014.88,-66.75 911.12,-66.75 911.12,-16 1014.88,-16 1014.88,-66.75"/>
<text text-anchor="middle" x="963" y="-51.35" font-family="Arial" font-size="12.00">Redis</text>
<text text-anchor="middle" x="963" y="-37.1" font-family="Arial" font-size="12.00">(Port 6379)</text>
<text text-anchor="middle" x="963" y="-22.85" font-family="Arial" font-size="12.00">Cache, Pub/Sub</text>
</g>
<!-- fastapi&#45;&gt;redis -->
<g id="edge19" class="edge">
<title>fastapi&#45;&gt;redis</title>
<path fill="none" stroke="black" d="M896.05,-639.18C974.31,-631.05 1120.58,-611.53 1158,-576.5 1174.54,-561.02 1172,-550.15 1172,-527.5 1172,-527.5 1172,-527.5 1172,-153.75 1172,-83.54 1083.84,-135.23 1024,-98.5 1013.3,-91.93 1002.8,-83.31 993.61,-74.81"/>
<polygon fill="black" stroke="black" points="996.31,-72.55 986.67,-68.15 991.46,-77.6 996.31,-72.55"/>
<text text-anchor="middle" x="1224.5" y="-354" font-family="Arial" font-size="10.00">Pub/Sub for WebSocket</text>
</g>
<!-- postgres -->
<g id="node16" class="node">
<title>postgres</title>
<polygon fill="gray" stroke="black" points="766.5,-66.75 645.5,-66.75 645.5,-16 766.5,-16 766.5,-66.75"/>
<text text-anchor="middle" x="706" y="-51.35" font-family="Arial" font-size="12.00">PostgreSQL</text>
<text text-anchor="middle" x="706" y="-37.1" font-family="Arial" font-size="12.00">(Port 5432)</text>
<text text-anchor="middle" x="706" y="-22.85" font-family="Arial" font-size="12.00">User data, sessions</text>
</g>
<!-- auth_service&#45;&gt;postgres -->
<g id="edge6" class="edge">
<title>auth_service&#45;&gt;postgres</title>
<path fill="none" stroke="black" d="M498.89,-524.44C385.97,-521.98 156.33,-514.13 80,-490.25 40.59,-477.92 0,-484.29 0,-443 0,-443 0,-443 0,-153.75 0,-90.08 453.8,-56.91 633.75,-46.26"/>
<polygon fill="black" stroke="black" points="633.91,-49.76 643.68,-45.68 633.5,-42.77 633.91,-49.76"/>
<text text-anchor="middle" x="35.25" y="-305.75" font-family="Arial" font-size="10.00">Session storage</text>
</g>
<!-- auth_service&#45;&gt;redis -->
<g id="edge7" class="edge">
<title>auth_service&#45;&gt;redis</title>
<path fill="none" stroke="black" d="M498.77,-520.78C370.32,-510.49 94,-483.61 94,-443 94,-443 94,-443 94,-308.25 94,-265.32 79.59,-243.3 110,-213 191.99,-131.29 508.81,-139.96 624,-128.5 655.2,-125.4 878.22,-133.03 906,-118.5 923.28,-109.46 936.75,-92.56 946.25,-76.97"/>
<polygon fill="black" stroke="black" points="949.26,-78.75 951.17,-68.33 943.18,-75.29 949.26,-78.75"/>
<text text-anchor="middle" x="121.75" y="-305.75" font-family="Arial" font-size="10.00">Token cache</text>
</g>
<!-- google_sso -->
<g id="node21" class="node">
<title>google_sso</title>
<polygon fill="plum" stroke="black" points="205.75,-257.25 122.25,-257.25 122.25,-221.25 205.75,-221.25 205.75,-257.25"/>
<text text-anchor="middle" x="164" y="-234.97" font-family="Arial" font-size="12.00">Google SSO</text>
</g>
<!-- auth_service&#45;&gt;google_sso -->
<g id="edge5" class="edge">
<title>auth_service&#45;&gt;google_sso</title>
<path fill="none" stroke="black" d="M533.41,-507.78C471.86,-470.43 326.49,-379.58 215,-289.25 205.94,-281.91 196.58,-273.27 188.39,-265.3"/>
<polygon fill="black" stroke="black" points="190.98,-262.95 181.42,-258.4 186.06,-267.92 190.98,-262.95"/>
<text text-anchor="middle" x="407.78" y="-396.25" font-family="Arial" font-size="10.00">SSO verification</text>
</g>
<!-- triage -->
<g id="node7" class="node">
<title>triage</title>
<polygon fill="lightcyan" stroke="black" points="748.62,-460.25 667.38,-460.25 667.38,-423.75 748.62,-423.75 748.62,-460.25"/>
<text text-anchor="middle" x="708" y="-444.85" font-family="Arial" font-size="12.00">TriageAgent</text>
<text text-anchor="middle" x="708" y="-430.6" font-family="Arial" font-size="12.00">(Routing)</text>
</g>
<!-- tusdi_ai&#45;&gt;triage -->
<g id="edge9" class="edge">
<title>tusdi_ai&#45;&gt;triage</title>
<path fill="none" stroke="black" d="M772.32,-507.84C762.34,-502.98 752.27,-497.11 743.75,-490.25 736.54,-484.44 729.98,-476.88 724.51,-469.51"/>
<polygon fill="black" stroke="black" points="727.64,-467.88 719.05,-461.67 721.89,-471.88 727.64,-467.88"/>
<text text-anchor="middle" x="782.38" y="-480.75" font-family="Arial" font-size="10.00">Parallel execution</text>
</g>
<!-- data_extractor -->
<g id="node8" class="node">
<title>data_extractor</title>
<polygon fill="lightcyan" stroke="black" points="897,-460.25 767,-460.25 767,-423.75 897,-423.75 897,-460.25"/>
<text text-anchor="middle" x="832" y="-444.85" font-family="Arial" font-size="12.00">ParallelDataExtractor</text>
<text text-anchor="middle" x="832" y="-430.6" font-family="Arial" font-size="12.00">(23 agents)</text>
</g>
<!-- tusdi_ai&#45;&gt;data_extractor -->
<g id="edge10" class="edge">
<title>tusdi_ai&#45;&gt;data_extractor</title>
<path fill="none" stroke="black" d="M822.54,-508C824.07,-497.5 826.05,-483.89 827.81,-471.83"/>
<polygon fill="black" stroke="black" points="831.26,-472.37 829.24,-461.97 824.34,-471.36 831.26,-472.37"/>
<text text-anchor="middle" x="865.34" y="-480.75" font-family="Arial" font-size="10.00">Parallel execution</text>
</g>
<!-- health_consultant -->
<g id="node9" class="node">
<title>health_consultant</title>
<polygon fill="lightcyan" stroke="black" points="783.25,-375.75 642.75,-375.75 642.75,-339.25 783.25,-339.25 783.25,-375.75"/>
<text text-anchor="middle" x="713" y="-360.35" font-family="Arial" font-size="12.00">HealthConsultantAgent</text>
<text text-anchor="middle" x="713" y="-346.1" font-family="Arial" font-size="12.00">(Medical reasoning)</text>
</g>
<!-- triage&#45;&gt;health_consultant -->
<g id="edge11" class="edge">
<title>triage&#45;&gt;health_consultant</title>
<path fill="none" stroke="black" d="M708.71,-423.49C709.1,-414.58 709.63,-403.59 710.25,-393.75 710.38,-391.68 710.52,-389.54 710.67,-387.39"/>
<polygon fill="black" stroke="black" points="714.15,-387.81 711.41,-377.57 707.17,-387.28 714.15,-387.81"/>
<text text-anchor="middle" x="751.12" y="-396.25" font-family="Arial" font-size="10.00">Route to specialist</text>
</g>
<!-- cypher -->
<g id="node10" class="node">
<title>cypher</title>
<polygon fill="lightcyan" stroke="black" points="896.75,-375.75 801.25,-375.75 801.25,-339.25 896.75,-339.25 896.75,-375.75"/>
<text text-anchor="middle" x="849" y="-360.35" font-family="Arial" font-size="12.00">CypherAgent</text>
<text text-anchor="middle" x="849" y="-346.1" font-family="Arial" font-size="12.00">(NL → Cypher)</text>
</g>
<!-- triage&#45;&gt;cypher -->
<g id="edge12" class="edge">
<title>triage&#45;&gt;cypher</title>
<path fill="none" stroke="black" d="M741.53,-423.26C746.97,-420.67 752.59,-418.15 758,-416 772.67,-410.17 778.09,-413.21 792,-405.75 803.16,-399.76 814.17,-391.39 823.49,-383.35"/>
<polygon fill="black" stroke="black" points="825.64,-386.13 830.74,-376.84 820.96,-380.92 825.64,-386.13"/>
<text text-anchor="middle" x="850.69" y="-396.25" font-family="Arial" font-size="10.00">Route to query gen</text>
</g>
<!-- gemini -->
<g id="node20" class="node">
<title>gemini</title>
<polygon fill="plum" stroke="black" points="475.38,-257.5 356.62,-257.5 356.62,-221 475.38,-221 475.38,-257.5"/>
<text text-anchor="middle" x="416" y="-242.1" font-family="Arial" font-size="12.00">Google Gemini API</text>
<text text-anchor="middle" x="416" y="-227.85" font-family="Arial" font-size="12.00">(Flash + Pro)</text>
</g>
<!-- triage&#45;&gt;gemini -->
<g id="edge25" class="edge">
<title>triage&#45;&gt;gemini</title>
<path fill="none" stroke="black" d="M667.08,-423.41C639.72,-411.15 603.24,-393.79 572.5,-375.75 536.19,-354.43 527.06,-348.55 495,-321.25 474.88,-304.11 454.08,-282.62 438.88,-266.08"/>
<polygon fill="black" stroke="black" points="441.81,-264.09 432.5,-259.05 436.63,-268.8 441.81,-264.09"/>
<text text-anchor="middle" x="603.25" y="-354" font-family="Arial" font-size="10.00">LLM inference</text>
</g>
<!-- data_extractor&#45;&gt;postgres -->
<g id="edge27" class="edge">
<title>data_extractor&#45;&gt;postgres</title>
<path fill="none" stroke="black" d="M873.6,-423.26C898.37,-409.62 925,-388.07 925,-358.5 925,-358.5 925,-358.5 925,-196 925,-165.36 933.45,-149.35 911,-128.5 898.52,-116.91 851.59,-122.36 835,-118.5 808.03,-112.22 800.28,-111.81 776,-98.5 763.83,-91.83 751.66,-83.01 740.96,-74.34"/>
<polygon fill="black" stroke="black" points="743.42,-71.84 733.51,-68.12 738.94,-77.21 743.42,-71.84"/>
<text text-anchor="middle" x="969.25" y="-235.75" font-family="Arial" font-size="10.00">Store extracted data</text>
</g>
<!-- medical_apis -->
<g id="node22" class="node">
<title>medical_apis</title>
<polygon fill="plum" stroke="black" points="338.5,-257.5 223.5,-257.5 223.5,-221 338.5,-221 338.5,-257.5"/>
<text text-anchor="middle" x="281" y="-242.1" font-family="Arial" font-size="12.00">Medical Data APIs</text>
<text text-anchor="middle" x="281" y="-227.85" font-family="Arial" font-size="12.00">(RupaHealth, etc.)</text>
</g>
<!-- data_extractor&#45;&gt;medical_apis -->
<g id="edge26" class="edge">
<title>data_extractor&#45;&gt;medical_apis</title>
<path fill="none" stroke="black" d="M784.25,-423.26C775.6,-420.51 766.6,-417.94 758,-416 611.09,-382.77 557.57,-440.34 421.5,-375.75 369.06,-350.86 323.9,-298.62 299.75,-266.77"/>
<polygon fill="black" stroke="black" points="302.61,-264.76 293.85,-258.81 296.99,-268.93 302.61,-264.76"/>
<text text-anchor="middle" x="462.75" y="-354" font-family="Arial" font-size="10.00">External data fetch</text>
</g>
<!-- agent_tools -->
<g id="node11" class="node">
<title>agent_tools</title>
<polygon fill="palegreen" stroke="black" points="824,-257.5 712,-257.5 712,-221 824,-221 824,-257.5"/>
<text text-anchor="middle" x="768" y="-242.1" font-family="Arial" font-size="12.00">Agent Tools</text>
<text text-anchor="middle" x="768" y="-227.85" font-family="Arial" font-size="12.00">(Python functions)</text>
</g>
<!-- health_consultant&#45;&gt;agent_tools -->
<g id="edge13" class="edge">
<title>health_consultant&#45;&gt;agent_tools</title>
<path fill="none" stroke="red" stroke-width="2" d="M711.76,-338.96C711.56,-326.79 712.62,-310.45 718.25,-297.25 723.13,-285.8 731.21,-275.02 739.45,-265.99"/>
<polygon fill="red" stroke="red" stroke-width="2" points="740.75,-269.67 745.2,-260.06 735.73,-264.8 740.75,-269.67"/>
<text text-anchor="middle" x="759.12" y="-311.75" font-family="Arial" font-size="10.00">Direct function call</text>
<text text-anchor="middle" x="759.12" y="-299.75" font-family="Arial" font-size="10.00">(NOT HTTP)</text>
</g>
<!-- health_consultant&#45;&gt;gemini -->
<g id="edge23" class="edge">
<title>health_consultant&#45;&gt;gemini</title>
<path fill="none" stroke="black" d="M642.51,-348.63C609.48,-343.4 570.09,-334.88 536.5,-321.25 512.23,-311.4 508.78,-303.8 487,-289.25 475.03,-281.26 462.05,-272.36 450.49,-264.36"/>
<polygon fill="black" stroke="black" points="452.63,-261.59 442.42,-258.76 448.64,-267.34 452.63,-261.59"/>
<text text-anchor="middle" x="567.25" y="-305.75" font-family="Arial" font-size="10.00">LLM inference</text>
</g>
<!-- cypher&#45;&gt;agent_tools -->
<g id="edge14" class="edge">
<title>cypher&#45;&gt;agent_tools</title>
<path fill="none" stroke="red" stroke-width="2" d="M836.7,-338.84C823.36,-319.7 801.92,-288.93 786.54,-266.85"/>
<polygon fill="red" stroke="red" stroke-width="2" points="790.47,-266.38 781.88,-260.17 784.73,-270.38 790.47,-266.38"/>
<text text-anchor="middle" x="863.68" y="-311.75" font-family="Arial" font-size="10.00">Direct function call</text>
<text text-anchor="middle" x="863.68" y="-299.75" font-family="Arial" font-size="10.00">(NOT HTTP)</text>
</g>
<!-- cypher&#45;&gt;gemini -->
<g id="edge24" class="edge">
<title>cypher&#45;&gt;gemini</title>
<path fill="none" stroke="black" d="M814.42,-338.83C807.18,-335.81 799.47,-333.06 792,-331.25 754.79,-322.24 654.58,-337.68 620,-321.25 606.93,-315.04 611.03,-303.55 598,-297.25 575.74,-286.48 510.33,-297.45 487,-289.25 471.57,-283.83 456.39,-274.12 444.05,-264.77"/>
<polygon fill="black" stroke="black" points="446.41,-262.17 436.4,-258.7 442.06,-267.65 446.41,-262.17"/>
<text text-anchor="middle" x="650.75" y="-305.75" font-family="Arial" font-size="10.00">LLM inference</text>
</g>
<!-- graph_service -->
<g id="node12" class="node">
<title>graph_service</title>
<polygon fill="palegreen" stroke="black" points="896.5,-173 781.5,-173 781.5,-136.5 896.5,-136.5 896.5,-173"/>
<text text-anchor="middle" x="839" y="-157.6" font-family="Arial" font-size="12.00">Graph Service</text>
<text text-anchor="middle" x="839" y="-143.35" font-family="Arial" font-size="12.00">(Neo4j operations)</text>
</g>
<!-- agent_tools&#45;&gt;graph_service -->
<g id="edge15" class="edge">
<title>agent_tools&#45;&gt;graph_service</title>
<path fill="none" stroke="black" d="M784.12,-220.82C789.25,-215.19 794.91,-208.87 800,-203 805.74,-196.37 811.84,-189.1 817.46,-182.3"/>
<polygon fill="black" stroke="black" points="820.15,-184.54 823.79,-174.59 814.74,-180.09 820.15,-184.54"/>
<text text-anchor="middle" x="843.18" y="-193.5" font-family="Arial" font-size="10.00">Internal service</text>
</g>
<!-- med_data_service -->
<g id="node13" class="node">
<title>med_data_service</title>
<polygon fill="palegreen" stroke="black" points="763,-173 633,-173 633,-136.5 763,-136.5 763,-173"/>
<text text-anchor="middle" x="698" y="-157.6" font-family="Arial" font-size="12.00">Medical Data Service</text>
<text text-anchor="middle" x="698" y="-143.35" font-family="Arial" font-size="12.00">(CRUD operations)</text>
</g>
<!-- agent_tools&#45;&gt;med_data_service -->
<g id="edge16" class="edge">
<title>agent_tools&#45;&gt;med_data_service</title>
<path fill="none" stroke="black" d="M749.83,-220.77C744.34,-215.24 738.4,-209 733.25,-203 727.66,-196.49 721.95,-189.17 716.79,-182.28"/>
<polygon fill="black" stroke="black" points="719.81,-180.47 711.07,-174.47 714.16,-184.6 719.81,-180.47"/>
<text text-anchor="middle" x="766.62" y="-193.5" font-family="Arial" font-size="10.00">Internal service</text>
</g>
<!-- neo4j -->
<g id="node17" class="node">
<title>neo4j</title>
<polygon fill="gray" stroke="black" points="893.12,-66.75 784.88,-66.75 784.88,-16 893.12,-16 893.12,-66.75"/>
<text text-anchor="middle" x="839" y="-51.35" font-family="Arial" font-size="12.00">Neo4j</text>
<text text-anchor="middle" x="839" y="-37.1" font-family="Arial" font-size="12.00">(Port 7474, 7687)</text>
<text text-anchor="middle" x="839" y="-22.85" font-family="Arial" font-size="12.00">Graph data</text>
</g>
<!-- graph_service&#45;&gt;neo4j -->
<g id="edge17" class="edge">
<title>graph_service&#45;&gt;neo4j</title>
<path fill="none" stroke="black" d="M839,-136.35C839,-120.95 839,-97.97 839,-78.59"/>
<polygon fill="black" stroke="black" points="842.5,-78.61 839,-68.61 835.5,-78.61 842.5,-78.61"/>
<text text-anchor="middle" x="872" y="-109" font-family="Arial" font-size="10.00">Cypher queries</text>
</g>
<!-- med_data_service&#45;&gt;postgres -->
<g id="edge18" class="edge">
<title>med_data_service&#45;&gt;postgres</title>
<path fill="none" stroke="black" d="M699.25,-136.35C700.36,-120.87 702.02,-97.75 703.42,-78.32"/>
<polygon fill="black" stroke="black" points="706.89,-78.83 704.12,-68.6 699.91,-78.33 706.89,-78.83"/>
<text text-anchor="middle" x="728.28" y="-109" font-family="Arial" font-size="10.00">SQL queries</text>
</g>
<!-- catalog_search -->
<g id="node15" class="node">
<title>catalog_search</title>
<polygon fill="lightpink" stroke="black" points="1093,-460 981,-460 981,-424 1093,-424 1093,-460"/>
<text text-anchor="middle" x="1037" y="-437.73" font-family="Arial" font-size="12.00">Biomarker Search</text>
</g>
<!-- catalog_api&#45;&gt;catalog_search -->
<g id="edge21" class="edge">
<title>catalog_api&#45;&gt;catalog_search</title>
<path fill="none" stroke="black" d="M1012.57,-508C1016.6,-497.28 1021.85,-483.32 1026.45,-471.08"/>
<polygon fill="black" stroke="black" points="1029.66,-472.48 1029.9,-461.89 1023.11,-470.02 1029.66,-472.48"/>
<text text-anchor="middle" x="1039.48" y="-480.75" font-family="Arial" font-size="10.00">Internal</text>
</g>
<!-- qdrant -->
<g id="node19" class="node">
<title>qdrant</title>
<polygon fill="gray" stroke="black" points="1151.38,-66.75 1032.62,-66.75 1032.62,-16 1151.38,-16 1151.38,-66.75"/>
<text text-anchor="middle" x="1092" y="-51.35" font-family="Arial" font-size="12.00">Qdrant</text>
<text text-anchor="middle" x="1092" y="-37.1" font-family="Arial" font-size="12.00">(Port 6333)</text>
<text text-anchor="middle" x="1092" y="-22.85" font-family="Arial" font-size="12.00">Vector embeddings</text>
</g>
<!-- catalog_search&#45;&gt;qdrant -->
<g id="edge22" class="edge">
<title>catalog_search&#45;&gt;qdrant</title>
<path fill="none" stroke="black" d="M1093.18,-435.17C1171.77,-425.43 1305,-402.44 1305,-358.5 1305,-358.5 1305,-358.5 1305,-153.75 1305,-88.24 1224.91,-61.2 1162.95,-50.07"/>
<polygon fill="black" stroke="black" points="1163.55,-46.62 1153.11,-48.42 1162.39,-53.53 1163.55,-46.62"/>
<text text-anchor="middle" x="1335" y="-235.75" font-family="Arial" font-size="10.00">Vector search</text>
</g>
</g>
</svg>
