<?xml version="1.0" encoding="UTF-8" standalone="no"?>
<!DOCTYPE svg PUBLIC "-//W3C//DTD SVG 1.1//EN"
 "http://www.w3.org/Graphics/SVG/1.1/DTD/svg11.dtd">
<!-- Generated by graphviz version 12.2.1 (0)
 -->
<!-- Title: ContainerDependencies Pages: 1 -->
<svg width="339pt" height="472pt"
 viewBox="0.00 0.00 339.12 471.56" xmlns="http://www.w3.org/2000/svg" xmlns:xlink="http://www.w3.org/1999/xlink">
<g id="graph0" class="graph" transform="scale(1 1) rotate(0) translate(4 467.56)">
<title>ContainerDependencies</title>
<polygon fill="#f5f5f5" stroke="none" points="-4,4 -4,-467.56 335.12,-467.56 335.12,4 -4,4"/>
<!-- Start -->
<g id="node1" class="node">
<title>Start</title>
<ellipse fill="lightgreen" stroke="black" cx="156.62" cy="-445.56" rx="76.96" ry="18"/>
<text text-anchor="middle" x="156.62" y="-441.29" font-family="Arial" font-size="12.00">docker&#45;compose up</text>
</g>
<!-- Postgres -->
<g id="node2" class="node">
<title>Postgres</title>
<path fill="skyblue" stroke="black" d="M81.25,-306.81C81.25,-309.33 63.04,-311.38 40.62,-311.38 18.21,-311.38 0,-309.33 0,-306.81 0,-306.81 0,-265.75 0,-265.75 0,-263.23 18.21,-261.19 40.62,-261.19 63.04,-261.19 81.25,-263.23 81.25,-265.75 81.25,-265.75 81.25,-306.81 81.25,-306.81"/>
<path fill="none" stroke="black" d="M81.25,-306.81C81.25,-304.29 63.04,-302.25 40.62,-302.25 18.21,-302.25 0,-304.29 0,-306.81"/>
<text text-anchor="middle" x="40.62" y="-289.13" font-family="Arial" font-size="12.00">PostgreSQL</text>
<text text-anchor="middle" x="40.62" y="-274.88" font-family="Arial" font-size="12.00">5432</text>
</g>
<!-- Start&#45;&gt;Postgres -->
<g id="edge1" class="edge">
<title>Start&#45;&gt;Postgres</title>
<path fill="none" stroke="black" d="M135.76,-427.75C129.58,-422.28 123.02,-415.96 117.62,-409.56 94.45,-382.09 73.1,-347.07 58.79,-321.55"/>
<polygon fill="black" stroke="black" points="61.92,-319.98 54.02,-312.92 55.79,-323.36 61.92,-319.98"/>
<text text-anchor="middle" x="128.12" y="-400.06" font-family="Arial" font-size="10.00">Start</text>
</g>
<!-- Neo4j -->
<g id="node3" class="node">
<title>Neo4j</title>
<path fill="skyblue" stroke="black" d="M163.12,-306.81C163.12,-309.33 146.77,-311.38 126.62,-311.38 106.48,-311.38 90.12,-309.33 90.12,-306.81 90.12,-306.81 90.12,-265.75 90.12,-265.75 90.12,-263.23 106.48,-261.19 126.62,-261.19 146.77,-261.19 163.12,-263.23 163.12,-265.75 163.12,-265.75 163.12,-306.81 163.12,-306.81"/>
<path fill="none" stroke="black" d="M163.12,-306.81C163.12,-304.29 146.77,-302.25 126.62,-302.25 106.48,-302.25 90.12,-304.29 90.12,-306.81"/>
<text text-anchor="middle" x="126.62" y="-289.13" font-family="Arial" font-size="12.00">Neo4j</text>
<text text-anchor="middle" x="126.62" y="-274.88" font-family="Arial" font-size="12.00">7474/7687</text>
</g>
<!-- Start&#45;&gt;Neo4j -->
<g id="edge2" class="edge">
<title>Start&#45;&gt;Neo4j</title>
<path fill="none" stroke="black" d="M150.62,-427.26C148.83,-421.66 146.99,-415.39 145.62,-409.56 138.91,-380.8 133.93,-347.65 130.75,-323.14"/>
<polygon fill="black" stroke="black" points="134.24,-322.84 129.53,-313.35 127.3,-323.71 134.24,-322.84"/>
<text text-anchor="middle" x="156.12" y="-400.06" font-family="Arial" font-size="10.00">Start</text>
</g>
<!-- Redis -->
<g id="node4" class="node">
<title>Redis</title>
<path fill="skyblue" stroke="black" d="M209.62,-238.62C209.62,-241.14 197.52,-243.19 182.62,-243.19 167.73,-243.19 155.62,-241.14 155.62,-238.62 155.62,-238.62 155.62,-197.56 155.62,-197.56 155.62,-195.04 167.73,-193 182.62,-193 197.52,-193 209.62,-195.04 209.62,-197.56 209.62,-197.56 209.62,-238.62 209.62,-238.62"/>
<path fill="none" stroke="black" d="M209.62,-238.62C209.62,-236.11 197.52,-234.06 182.62,-234.06 167.73,-234.06 155.62,-236.11 155.62,-238.62"/>
<text text-anchor="middle" x="182.62" y="-220.94" font-family="Arial" font-size="12.00">Redis</text>
<text text-anchor="middle" x="182.62" y="-206.69" font-family="Arial" font-size="12.00">6379</text>
</g>
<!-- Start&#45;&gt;Redis -->
<g id="edge3" class="edge">
<title>Start&#45;&gt;Redis</title>
<path fill="none" stroke="black" d="M162.29,-427.27C163.92,-421.68 165.56,-415.41 166.62,-409.56 176.38,-356.28 180.2,-293.51 181.69,-255.02"/>
<polygon fill="black" stroke="black" points="185.18,-255.28 182.03,-245.16 178.18,-255.03 185.18,-255.28"/>
<text text-anchor="middle" x="187.33" y="-350.97" font-family="Arial" font-size="10.00">Start</text>
</g>
<!-- Qdrant -->
<g id="node5" class="node">
<title>Qdrant</title>
<path fill="skyblue" stroke="black" d="M283.62,-375C283.62,-377.52 271.52,-379.56 256.62,-379.56 241.73,-379.56 229.62,-377.52 229.62,-375 229.62,-375 229.62,-333.94 229.62,-333.94 229.62,-331.42 241.73,-329.38 256.62,-329.38 271.52,-329.38 283.62,-331.42 283.62,-333.94 283.62,-333.94 283.62,-375 283.62,-375"/>
<path fill="none" stroke="black" d="M283.62,-375C283.62,-372.48 271.52,-370.44 256.62,-370.44 241.73,-370.44 229.62,-372.48 229.62,-375"/>
<text text-anchor="middle" x="256.62" y="-357.32" font-family="Arial" font-size="12.00">Qdrant</text>
<text text-anchor="middle" x="256.62" y="-343.07" font-family="Arial" font-size="12.00">6333</text>
</g>
<!-- Start&#45;&gt;Qdrant -->
<g id="edge4" class="edge">
<title>Start&#45;&gt;Qdrant</title>
<path fill="none" stroke="black" d="M175.43,-427.8C188.71,-415.98 206.86,-399.81 222.63,-385.75"/>
<polygon fill="black" stroke="black" points="224.84,-388.48 229.98,-379.21 220.18,-383.25 224.84,-388.48"/>
<text text-anchor="middle" x="217.12" y="-400.06" font-family="Arial" font-size="10.00">Start</text>
</g>
<!-- Backend -->
<g id="node6" class="node">
<title>Backend</title>
<polygon fill="lightgreen" stroke="black" points="186.12,-133 77.12,-133 77.12,-96.5 186.12,-96.5 186.12,-133"/>
<text text-anchor="middle" x="131.62" y="-117.6" font-family="Arial" font-size="12.00">FastAPI Backend</text>
<text text-anchor="middle" x="131.62" y="-103.35" font-family="Arial" font-size="12.00">Port 8000</text>
</g>
<!-- Postgres&#45;&gt;Backend -->
<g id="edge5" class="edge">
<title>Postgres&#45;&gt;Backend</title>
<path fill="none" stroke="black" d="M46.87,-260.9C52.3,-241.77 61.14,-214.82 72.88,-193 82.63,-174.86 96.46,-156.43 108.25,-142.13"/>
<polygon fill="black" stroke="black" points="110.89,-144.42 114.67,-134.52 105.54,-139.91 110.89,-144.42"/>
<text text-anchor="middle" x="89.75" y="-220.59" font-family="Arial" font-size="10.00">Wait for</text>
<text text-anchor="middle" x="89.75" y="-208.59" font-family="Arial" font-size="10.00">healthy</text>
</g>
<!-- Neo4j&#45;&gt;Backend -->
<g id="edge6" class="edge">
<title>Neo4j&#45;&gt;Backend</title>
<path fill="none" stroke="black" d="M117.29,-261.12C115.46,-255.33 113.82,-249.11 112.88,-243.19 107.48,-209.29 115.29,-170.23 122.42,-144.38"/>
<polygon fill="black" stroke="black" points="125.73,-145.53 125.17,-134.95 119.01,-143.57 125.73,-145.53"/>
<text text-anchor="middle" x="129.75" y="-220.59" font-family="Arial" font-size="10.00">Wait for</text>
<text text-anchor="middle" x="129.75" y="-208.59" font-family="Arial" font-size="10.00">healthy</text>
</g>
<!-- Redis&#45;&gt;Backend -->
<g id="edge7" class="edge">
<title>Redis&#45;&gt;Backend</title>
<path fill="none" stroke="black" d="M170.28,-192.56C162.81,-177.71 153.26,-158.74 145.52,-143.36"/>
<polygon fill="black" stroke="black" points="148.8,-142.1 141.18,-134.74 142.55,-145.25 148.8,-142.1"/>
<text text-anchor="middle" x="177.05" y="-165.5" font-family="Arial" font-size="10.00">Wait for</text>
<text text-anchor="middle" x="177.05" y="-153.5" font-family="Arial" font-size="10.00">healthy</text>
</g>
<!-- MedicalCatalog -->
<g id="node7" class="node">
<title>MedicalCatalog</title>
<polygon fill="lightpink" stroke="black" points="331.12,-236.34 228.12,-236.34 228.12,-199.84 331.12,-199.84 331.12,-236.34"/>
<text text-anchor="middle" x="279.62" y="-220.94" font-family="Arial" font-size="12.00">Medical Catalog</text>
<text text-anchor="middle" x="279.62" y="-206.69" font-family="Arial" font-size="12.00">Port 8001</text>
</g>
<!-- Qdrant&#45;&gt;MedicalCatalog -->
<g id="edge8" class="edge">
<title>Qdrant&#45;&gt;MedicalCatalog</title>
<path fill="none" stroke="black" d="M260.79,-329.13C264.69,-306.36 270.52,-272.31 274.66,-248.13"/>
<polygon fill="black" stroke="black" points="278.1,-248.76 276.34,-238.31 271.2,-247.57 278.1,-248.76"/>
<text text-anchor="middle" x="289.06" y="-288.78" font-family="Arial" font-size="10.00">Wait for</text>
<text text-anchor="middle" x="289.06" y="-276.78" font-family="Arial" font-size="10.00">healthy</text>
</g>
<!-- Frontend -->
<g id="node8" class="node">
<title>Frontend</title>
<polygon fill="lightyellow" stroke="black" points="183.5,-36.5 79.75,-36.5 79.75,0 183.5,0 183.5,-36.5"/>
<text text-anchor="middle" x="131.62" y="-21.1" font-family="Arial" font-size="12.00">Next.js Frontend</text>
<text text-anchor="middle" x="131.62" y="-6.85" font-family="Arial" font-size="12.00">Port 3000</text>
</g>
<!-- Backend&#45;&gt;Frontend -->
<g id="edge9" class="edge">
<title>Backend&#45;&gt;Frontend</title>
<path fill="none" stroke="black" d="M131.62,-96.42C131.62,-82.91 131.62,-63.88 131.62,-48.09"/>
<polygon fill="black" stroke="black" points="135.13,-48.31 131.63,-38.31 128.13,-48.31 135.13,-48.31"/>
<text text-anchor="middle" x="148.5" y="-69" font-family="Arial" font-size="10.00">Wait for</text>
<text text-anchor="middle" x="148.5" y="-57" font-family="Arial" font-size="10.00">ready</text>
</g>
<!-- MedicalCatalog&#45;&gt;Backend -->
<g id="edge10" class="edge">
<title>MedicalCatalog&#45;&gt;Backend</title>
<path fill="none" stroke="black" stroke-dasharray="5,2" d="M259.88,-199.42C243.75,-185.42 220.04,-165.83 197.62,-151 191.29,-146.81 184.41,-142.7 177.56,-138.84"/>
<polygon fill="black" stroke="black" points="179.4,-135.86 168.94,-134.13 176.04,-142 179.4,-135.86"/>
<text text-anchor="middle" x="256.56" y="-165.5" font-family="Arial" font-size="10.00">Optional</text>
<text text-anchor="middle" x="256.56" y="-153.5" font-family="Arial" font-size="10.00">dependency</text>
</g>
</g>
</svg>
