<?xml version="1.0" encoding="UTF-8" standalone="no"?>
<!DOCTYPE svg PUBLIC "-//W3C//DTD SVG 1.1//EN"
 "http://www.w3.org/Graphics/SVG/1.1/DTD/svg11.dtd">
<!-- Generated by graphviz version 12.2.1 (0)
 -->
<!-- Title: ModelSelection Pages: 1 -->
<svg width="610pt" height="367pt"
 viewBox="0.00 0.00 610.12 366.75" xmlns="http://www.w3.org/2000/svg" xmlns:xlink="http://www.w3.org/1999/xlink">
<g id="graph0" class="graph" transform="scale(1 1) rotate(0) translate(4 362.75)">
<title>ModelSelection</title>
<polygon fill="#f5f5f5" stroke="none" points="-4,4 -4,-362.75 606.12,-362.75 606.12,4 -4,4"/>
<!-- Query -->
<g id="node1" class="node">
<title>Query</title>
<ellipse fill="lightblue" stroke="black" cx="238.25" cy="-312.12" rx="74.57" ry="18"/>
<text text-anchor="middle" x="238.25" y="-307.85" font-family="Arial" font-size="12.00">User Query Arrives</text>
</g>
<!-- Triage -->
<g id="node2" class="node">
<title>Triage</title>
<polygon fill="lightcyan" stroke="black" points="300.25,-217.5 176.25,-217.5 176.25,-181 300.25,-181 300.25,-217.5"/>
<text text-anchor="middle" x="238.25" y="-202.1" font-family="Arial" font-size="12.00">TriageAgent</text>
<text text-anchor="middle" x="238.25" y="-187.85" font-family="Arial" font-size="12.00">Gemini 2.5 Flash ($)</text>
</g>
<!-- Query&#45;&gt;Triage -->
<g id="edge1" class="edge">
<title>Query&#45;&gt;Triage</title>
<path fill="none" stroke="black" d="M238.25,-293.8C238.25,-276.49 238.25,-249.57 238.25,-229.04"/>
<polygon fill="black" stroke="black" points="241.75,-229.33 238.25,-219.33 234.75,-229.33 241.75,-229.33"/>
<text text-anchor="middle" x="251.38" y="-238" font-family="Arial" font-size="10.00">Route</text>
</g>
<!-- ConsultantFull -->
<g id="node3" class="node">
<title>ConsultantFull</title>
<polygon fill="#ba68c8" stroke="black" points="140.5,-121 0,-121 0,-84.5 140.5,-84.5 140.5,-121"/>
<text text-anchor="middle" x="70.25" y="-105.6" font-family="Arial" font-size="12.00">HealthConsultantAgent</text>
<text text-anchor="middle" x="70.25" y="-91.35" font-family="Arial" font-size="12.00">Gemini 2.5 Pro ($$)</text>
</g>
<!-- Triage&#45;&gt;ConsultantFull -->
<g id="edge2" class="edge">
<title>Triage&#45;&gt;ConsultantFull</title>
<path fill="none" stroke="black" d="M177.84,-180.54C164.87,-175.68 151.54,-169.83 139.75,-163 123.7,-153.71 107.8,-140.53 95.27,-128.96"/>
<polygon fill="black" stroke="black" points="97.93,-126.67 88.27,-122.32 93.11,-131.74 97.93,-126.67"/>
<text text-anchor="middle" x="187" y="-153.5" font-family="Arial" font-size="10.00">Patient&#45;specific query</text>
<text text-anchor="middle" x="187" y="-141.5" font-family="Arial" font-size="10.00">(needs graph data)</text>
</g>
<!-- ConsultantLite -->
<g id="node4" class="node">
<title>ConsultantLite</title>
<polygon fill="#ce93d8" stroke="black" points="318.25,-121 158.25,-121 158.25,-84.5 318.25,-84.5 318.25,-121"/>
<text text-anchor="middle" x="238.25" y="-105.6" font-family="Arial" font-size="12.00">HealthConsultantLiteAgent</text>
<text text-anchor="middle" x="238.25" y="-91.35" font-family="Arial" font-size="12.00">Gemini 2.5 Pro ($$)</text>
</g>
<!-- Triage&#45;&gt;ConsultantLite -->
<g id="edge3" class="edge">
<title>Triage&#45;&gt;ConsultantLite</title>
<path fill="none" stroke="black" d="M238.25,-180.92C238.25,-167.41 238.25,-148.38 238.25,-132.59"/>
<polygon fill="black" stroke="black" points="241.75,-132.81 238.25,-122.81 234.75,-132.81 241.75,-132.81"/>
<text text-anchor="middle" x="279.88" y="-153.5" font-family="Arial" font-size="10.00">General knowledge</text>
<text text-anchor="middle" x="279.88" y="-141.5" font-family="Arial" font-size="10.00">(no graph data)</text>
</g>
<!-- URLHandler -->
<g id="node5" class="node">
<title>URLHandler</title>
<polygon fill="lightcyan" stroke="black" points="460.25,-121 336.25,-121 336.25,-84.5 460.25,-84.5 460.25,-121"/>
<text text-anchor="middle" x="398.25" y="-105.6" font-family="Arial" font-size="12.00">URLHandlerAgent</text>
<text text-anchor="middle" x="398.25" y="-91.35" font-family="Arial" font-size="12.00">Gemini 2.5 Flash ($)</text>
</g>
<!-- Triage&#45;&gt;URLHandler -->
<g id="edge4" class="edge">
<title>Triage&#45;&gt;URLHandler</title>
<path fill="none" stroke="black" d="M289.15,-180.58C301.32,-175.56 314.02,-169.63 325.25,-163 341.58,-153.36 358.12,-140.26 371.32,-128.84"/>
<polygon fill="black" stroke="black" points="373.59,-131.51 378.75,-122.26 368.95,-126.27 373.59,-131.51"/>
<text text-anchor="middle" x="388.86" y="-147.5" font-family="Arial" font-size="10.00">URL provided</text>
</g>
<!-- CypherGen -->
<g id="node6" class="node">
<title>CypherGen</title>
<polygon fill="lightcyan" stroke="black" points="132.25,-36.5 8.25,-36.5 8.25,0 132.25,0 132.25,-36.5"/>
<text text-anchor="middle" x="70.25" y="-21.1" font-family="Arial" font-size="12.00">CypherAgent</text>
<text text-anchor="middle" x="70.25" y="-6.85" font-family="Arial" font-size="12.00">Gemini 2.5 Flash ($)</text>
</g>
<!-- ConsultantFull&#45;&gt;CypherGen -->
<g id="edge5" class="edge">
<title>ConsultantFull&#45;&gt;CypherGen</title>
<path fill="none" stroke="black" d="M70.25,-84.25C70.25,-73.75 70.25,-60.14 70.25,-48.08"/>
<polygon fill="black" stroke="black" points="73.75,-48.23 70.25,-38.23 66.75,-48.23 73.75,-48.23"/>
<text text-anchor="middle" x="108.88" y="-57" font-family="Arial" font-size="10.00">Needs graph data</text>
</g>
<!-- CostNote -->
<g id="node7" class="node">
<title>CostNote</title>
<polygon fill="lightyellow" stroke="black" stroke-dasharray="5,2" points="596.12,-358.75 330.38,-358.75 330.38,-265.5 602.12,-265.5 602.12,-352.75 596.12,-358.75"/>
<polyline fill="none" stroke="black" stroke-dasharray="5,2" points="596.12,-358.75 596.12,-352.75"/>
<polyline fill="none" stroke="black" stroke-dasharray="5,2" points="602.12,-352.75 596.12,-352.75"/>
<text text-anchor="middle" x="466.25" y="-343.35" font-family="Arial" font-size="12.00">Cost Optimization Strategy:</text>
<text text-anchor="middle" x="466.25" y="-329.1" font-family="Arial" font-size="12.00">&#45; Flash ($): Routing, extraction, query generation</text>
<text text-anchor="middle" x="466.25" y="-314.85" font-family="Arial" font-size="12.00">&#45; Pro ($$): Medical reasoning, consultation</text>
<text text-anchor="middle" x="466.25" y="-286.6" font-family="Arial" font-size="12.00">Result: 15&#45;20% cost savings</text>
<text text-anchor="middle" x="466.25" y="-272.35" font-family="Arial" font-size="12.00">vs. using Pro for everything</text>
</g>
</g>
</svg>
