<?xml version="1.0" encoding="UTF-8" standalone="no"?>
<!DOCTYPE svg PUBLIC "-//W3C//DTD SVG 1.1//EN"
 "http://www.w3.org/Graphics/SVG/1.1/DTD/svg11.dtd">
<!-- Generated by graphviz version 12.2.1 (0)
 -->
<!-- Title: ContainerNetwork Pages: 1 -->
<svg width="1537pt" height="921pt"
 viewBox="0.00 0.00 1537.00 921.47" xmlns="http://www.w3.org/2000/svg" xmlns:xlink="http://www.w3.org/1999/xlink">
<g id="graph0" class="graph" transform="scale(1 1) rotate(0) translate(4 917.47)">
<title>ContainerNetwork</title>
<polygon fill="#f5f5f5" stroke="none" points="-4,4 -4,-917.47 1533,-917.47 1533,4 -4,4"/>
<g id="clust1" class="cluster">
<title>cluster_docker_network</title>
<polygon fill="lightgray" stroke="black" points="8,-8 8,-881.47 701,-881.47 701,-8 8,-8"/>
<text text-anchor="middle" x="354.5" y="-864.17" font-family="Arial" font-size="14.00">Docker Network: dem2_default</text>
<text text-anchor="middle" x="354.5" y="-848.42" font-family="Arial" font-size="14.00">(Bridge network)</text>
</g>
<g id="clust2" class="cluster">
<title>cluster_frontend_container</title>
<polygon fill="lightyellow" stroke="black" points="305,-608.72 305,-700.72 461,-700.72 461,-608.72 305,-608.72"/>
<text text-anchor="middle" x="383" y="-683.42" font-family="Arial" font-size="14.00">Container: dem2&#45;webui</text>
<text text-anchor="middle" x="383" y="-667.67" font-family="Arial" font-size="14.00">Port 3000:3000</text>
</g>
<g id="clust3" class="cluster">
<title>cluster_backend_container</title>
<polygon fill="lightgreen" stroke="black" points="311,-417.47 311,-523.72 533,-523.72 533,-417.47 311,-417.47"/>
<text text-anchor="middle" x="422" y="-506.42" font-family="Arial" font-size="14.00">Container: dem2</text>
<text text-anchor="middle" x="422" y="-490.67" font-family="Arial" font-size="14.00">Port 8000:8000</text>
</g>
<g id="clust4" class="cluster">
<title>cluster_catalog_container</title>
<polygon fill="lightpink" stroke="black" points="16,-226.08 16,-332.33 193,-332.33 193,-226.08 16,-226.08"/>
<text text-anchor="middle" x="104.5" y="-315.03" font-family="Arial" font-size="14.00">Container: medical&#45;catalog</text>
<text text-anchor="middle" x="104.5" y="-299.28" font-family="Arial" font-size="14.00">Port 8001:8001</text>
</g>
<g id="clust5" class="cluster">
<title>cluster_postgres_container</title>
<polygon fill="lightblue" stroke="black" points="201,-206.94 201,-351.47 334,-351.47 334,-206.94 201,-206.94"/>
<text text-anchor="middle" x="267.5" y="-334.17" font-family="Arial" font-size="14.00">Container: postgres</text>
<text text-anchor="middle" x="267.5" y="-318.42" font-family="Arial" font-size="14.00">Port 5432:5432</text>
</g>
<g id="clust6" class="cluster">
<title>cluster_neo4j_container</title>
<polygon fill="lightblue" stroke="black" points="373,-206.94 373,-351.47 559,-351.47 559,-206.94 373,-206.94"/>
<text text-anchor="middle" x="466" y="-334.17" font-family="Arial" font-size="14.00">Container: neo4j</text>
<text text-anchor="middle" x="466" y="-318.42" font-family="Arial" font-size="14.00">Ports 7474:7474, 7687:7687</text>
</g>
<g id="clust7" class="cluster">
<title>cluster_redis_container</title>
<polygon fill="lightblue" stroke="black" points="567,-216.73 567,-341.67 693,-341.67 693,-216.73 567,-216.73"/>
<text text-anchor="middle" x="630" y="-324.37" font-family="Arial" font-size="14.00">Container: redis</text>
<text text-anchor="middle" x="630" y="-308.62" font-family="Arial" font-size="14.00">Port 6379:6379</text>
</g>
<g id="clust8" class="cluster">
<title>cluster_qdrant_container</title>
<polygon fill="lightblue" stroke="black" points="19,-16 19,-140.94 139,-140.94 139,-16 19,-16"/>
<text text-anchor="middle" x="79" y="-123.64" font-family="Arial" font-size="14.00">Container: qdrant</text>
<text text-anchor="middle" x="79" y="-107.89" font-family="Arial" font-size="14.00">Port 6333:6333</text>
</g>
<g id="clust9" class="cluster">
<title>cluster_redisinsight_container</title>
<polygon fill="lightgray" stroke="black" points="543,-601.72 543,-707.72 693,-707.72 693,-601.72 543,-601.72"/>
<text text-anchor="middle" x="618" y="-690.42" font-family="Arial" font-size="14.00">Container: redisinsight</text>
<text text-anchor="middle" x="618" y="-674.67" font-family="Arial" font-size="14.00">Port 5540:5540</text>
</g>
<g id="clust10" class="cluster">
<title>cluster_external_services</title>
<polygon fill="lavender" stroke="black" points="709,-226.2 709,-316.45 1095,-316.45 1095,-226.2 709,-226.2"/>
<text text-anchor="middle" x="902" y="-299.15" font-family="Arial" font-size="14.00">External Services (Internet)</text>
</g>
<g id="clust11" class="cluster">
<title>cluster_network_config</title>
<polygon fill="white" stroke="black" points="709,-749.72 709,-905.47 1521,-905.47 1521,-749.72 709,-749.72"/>
<text text-anchor="middle" x="1115" y="-888.17" font-family="Arial" font-size="14.00">Network Configuration</text>
</g>
<!-- external -->
<g id="node1" class="node">
<title>external</title>
<polygon fill="lightblue" stroke="black" points="534.12,-833.97 431.88,-833.97 431.88,-797.47 534.12,-797.47 534.12,-833.97"/>
<text text-anchor="middle" x="483" y="-818.57" font-family="Arial" font-size="12.00">External Access</text>
<text text-anchor="middle" x="483" y="-804.32" font-family="Arial" font-size="12.00">(Host Network)</text>
</g>
<!-- nextjs -->
<g id="node2" class="node">
<title>nextjs</title>
<polygon fill="yellow" stroke="black" points="421.5,-653.22 330.5,-653.22 330.5,-616.72 421.5,-616.72 421.5,-653.22"/>
<text text-anchor="middle" x="376" y="-637.82" font-family="Arial" font-size="12.00">Next.js Server</text>
<text text-anchor="middle" x="376" y="-623.57" font-family="Arial" font-size="12.00">Node.js 20</text>
</g>
<!-- external&#45;&gt;nextjs -->
<g id="edge1" class="edge">
<title>external&#45;&gt;nextjs</title>
<path fill="none" stroke="black" d="M463.53,-797.21C448.61,-782.94 428.37,-761.62 415,-739.72 400.54,-716.02 389.99,-686.08 383.54,-664.46"/>
<polygon fill="black" stroke="black" points="386.9,-663.51 380.79,-654.85 380.17,-665.43 386.9,-663.51"/>
<text text-anchor="middle" x="446.5" y="-730.22" font-family="Arial" font-size="10.00">HTTP</text>
<text text-anchor="middle" x="446.5" y="-718.22" font-family="Arial" font-size="10.00">localhost:3000</text>
</g>
<!-- postgres -->
<g id="node6" class="node">
<title>postgres</title>
<path fill="skyblue" stroke="black" d="M312.88,-295.88C312.88,-300.34 289.62,-303.97 261,-303.97 232.38,-303.97 209.12,-300.34 209.12,-295.88 209.12,-295.88 209.12,-223.03 209.12,-223.03 209.12,-218.57 232.38,-214.94 261,-214.94 289.62,-214.94 312.88,-218.57 312.88,-223.03 312.88,-223.03 312.88,-295.88 312.88,-295.88"/>
<path fill="none" stroke="black" d="M312.88,-295.88C312.88,-291.41 289.62,-287.78 261,-287.78 232.38,-287.78 209.12,-291.41 209.12,-295.88"/>
<text text-anchor="middle" x="261" y="-276.43" font-family="Arial" font-size="12.00">PostgreSQL 17</text>
<text text-anchor="middle" x="261" y="-248.18" font-family="Arial" font-size="12.00">Database: dem2</text>
<text text-anchor="middle" x="261" y="-233.93" font-family="Arial" font-size="12.00">User: postgres</text>
</g>
<!-- external&#45;&gt;postgres -->
<g id="edge12" class="edge">
<title>external&#45;&gt;postgres</title>
<path fill="none" stroke="black" d="M446.31,-797.07C353.17,-749.78 109.44,-609.96 32,-407.47 24.38,-387.54 17.28,-374.91 32,-359.47 44.66,-346.18 180.92,-360.32 197,-351.47 212.69,-342.83 225.4,-328.52 235.25,-313.77"/>
<polygon fill="black" stroke="black" points="238.17,-315.69 240.5,-305.35 232.24,-311.98 238.17,-315.69"/>
<text text-anchor="middle" x="185.58" y="-576.22" font-family="Arial" font-size="10.00">PostgreSQL</text>
<text text-anchor="middle" x="185.58" y="-564.22" font-family="Arial" font-size="10.00">localhost:5432</text>
<text text-anchor="middle" x="185.58" y="-540.22" font-family="Arial" font-size="10.00">(Dev only)</text>
</g>
<!-- neo4j -->
<g id="node7" class="node">
<title>neo4j</title>
<path fill="skyblue" stroke="black" d="M550.62,-295.88C550.62,-300.34 532.42,-303.97 510,-303.97 487.58,-303.97 469.38,-300.34 469.38,-295.88 469.38,-295.88 469.38,-223.03 469.38,-223.03 469.38,-218.57 487.58,-214.94 510,-214.94 532.42,-214.94 550.62,-218.57 550.62,-223.03 550.62,-223.03 550.62,-295.88 550.62,-295.88"/>
<path fill="none" stroke="black" d="M550.62,-295.88C550.62,-291.41 532.42,-287.78 510,-287.78 487.58,-287.78 469.38,-291.41 469.38,-295.88"/>
<text text-anchor="middle" x="510" y="-276.43" font-family="Arial" font-size="12.00">Neo4j 5.x</text>
<text text-anchor="middle" x="510" y="-248.18" font-family="Arial" font-size="12.00">7474: HTTP</text>
<text text-anchor="middle" x="510" y="-233.93" font-family="Arial" font-size="12.00">7687: Bolt</text>
</g>
<!-- external&#45;&gt;neo4j -->
<g id="edge13" class="edge">
<title>external&#45;&gt;neo4j</title>
<path fill="none" stroke="black" d="M482.44,-797.3C480.6,-737.23 475.31,-541.78 484,-531.72 499.57,-513.69 517.84,-537.88 537,-523.72 579.12,-492.58 545.67,-448.32 588,-417.47 614.47,-398.18 639.47,-432.15 661,-407.47 675.02,-391.39 675.46,-375.16 661,-359.47 646.19,-343.4 581.48,-363.12 563,-351.47 548.92,-342.6 538.16,-328.53 530.13,-314.08"/>
<polygon fill="black" stroke="black" points="533.37,-312.73 525.69,-305.43 527.14,-315.92 533.37,-312.73"/>
<text text-anchor="middle" x="527.5" y="-576.22" font-family="Arial" font-size="10.00">HTTP/Bolt</text>
<text text-anchor="middle" x="527.5" y="-564.22" font-family="Arial" font-size="10.00">localhost:7474/7687</text>
<text text-anchor="middle" x="527.5" y="-540.22" font-family="Arial" font-size="10.00">(Dev only)</text>
</g>
<!-- redis -->
<g id="node8" class="node">
<title>redis</title>
<path fill="skyblue" stroke="black" d="M685.25,-287.86C685.25,-291.34 660.49,-294.17 630,-294.17 599.51,-294.17 574.75,-291.34 574.75,-287.86 574.75,-287.86 574.75,-231.05 574.75,-231.05 574.75,-227.56 599.51,-224.73 630,-224.73 660.49,-224.73 685.25,-227.56 685.25,-231.05 685.25,-231.05 685.25,-287.86 685.25,-287.86"/>
<path fill="none" stroke="black" d="M685.25,-287.86C685.25,-284.38 660.49,-281.55 630,-281.55 599.51,-281.55 574.75,-284.38 574.75,-287.86"/>
<text text-anchor="middle" x="630" y="-269.3" font-family="Arial" font-size="12.00">Redis 7.x</text>
<text text-anchor="middle" x="630" y="-241.05" font-family="Arial" font-size="12.00">Cache + Pub/Sub</text>
</g>
<!-- external&#45;&gt;redis -->
<g id="edge14" class="edge">
<title>external&#45;&gt;redis</title>
<path fill="none" stroke="black" d="M485.41,-797.11C492.02,-751.35 511.73,-630.27 539,-601.72 549.29,-590.94 560.44,-602.23 571,-591.72 590.82,-571.98 578.03,-557 590,-531.72 618.21,-472.14 652.22,-470.66 671,-407.47 681.22,-373.08 669.16,-333.95 655.54,-304.71"/>
<polygon fill="black" stroke="black" points="658.7,-303.21 651.15,-295.77 652.41,-306.29 658.7,-303.21"/>
<text text-anchor="middle" x="621.5" y="-576.22" font-family="Arial" font-size="10.00">Redis</text>
<text text-anchor="middle" x="621.5" y="-564.22" font-family="Arial" font-size="10.00">localhost:6379</text>
<text text-anchor="middle" x="621.5" y="-540.22" font-family="Arial" font-size="10.00">(Dev only)</text>
</g>
<!-- redisinsight -->
<g id="node10" class="node">
<title>redisinsight</title>
<polygon fill="gray" stroke="black" points="660.38,-660.22 577.62,-660.22 577.62,-609.72 660.38,-609.72 660.38,-660.22"/>
<text text-anchor="middle" x="619" y="-644.82" font-family="Arial" font-size="12.00">RedisInsight</text>
<text text-anchor="middle" x="619" y="-616.57" font-family="Arial" font-size="12.00">Dev Tool</text>
</g>
<!-- external&#45;&gt;redisinsight -->
<g id="edge10" class="edge">
<title>external&#45;&gt;redisinsight</title>
<path fill="none" stroke="black" d="M499.28,-797.19C518.16,-776.52 549.78,-740.76 574,-707.72 582.69,-695.86 591.46,-682.32 598.92,-670.22"/>
<polygon fill="black" stroke="black" points="601.86,-672.12 604.06,-661.75 595.88,-668.48 601.86,-672.12"/>
<text text-anchor="middle" x="598.69" y="-730.22" font-family="Arial" font-size="10.00">HTTP</text>
<text text-anchor="middle" x="598.69" y="-718.22" font-family="Arial" font-size="10.00">localhost:5540</text>
</g>
<!-- fastapi -->
<g id="node3" class="node">
<title>fastapi</title>
<polygon fill="green" stroke="black" points="416.5,-476.22 319.5,-476.22 319.5,-425.47 416.5,-425.47 416.5,-476.22"/>
<text text-anchor="middle" x="368" y="-460.82" font-family="Arial" font-size="12.00">FastAPI Server</text>
<text text-anchor="middle" x="368" y="-446.57" font-family="Arial" font-size="12.00">Python 3.13</text>
<text text-anchor="middle" x="368" y="-432.32" font-family="Arial" font-size="12.00">Uvicorn ASGI</text>
</g>
<!-- nextjs&#45;&gt;fastapi -->
<g id="edge2" class="edge">
<title>nextjs&#45;&gt;fastapi</title>
<path fill="none" stroke="black" d="M362.24,-616.5C357.37,-609.26 352.49,-600.5 350,-591.72 340.17,-556.99 347.63,-515.87 355.73,-487.24"/>
<polygon fill="black" stroke="black" points="358.98,-488.57 358.51,-477.99 352.28,-486.56 358.98,-488.57"/>
<text text-anchor="middle" x="404.75" y="-582.22" font-family="Arial" font-size="10.00">HTTP REST</text>
<text text-anchor="middle" x="404.75" y="-570.22" font-family="Arial" font-size="10.00">http://dem2:8000/api/v1/*</text>
<text text-anchor="middle" x="404.75" y="-546.22" font-family="Arial" font-size="10.00">126 OpenAPI endpoints</text>
<text text-anchor="middle" x="404.75" y="-534.22" font-family="Arial" font-size="10.00">JWT auth headers</text>
</g>
<!-- catalog_api -->
<g id="node5" class="node">
<title>catalog_api</title>
<polygon fill="pink" stroke="black" points="104.25,-284.83 23.75,-284.83 23.75,-234.08 104.25,-234.08 104.25,-284.83"/>
<text text-anchor="middle" x="64" y="-269.43" font-family="Arial" font-size="12.00">Catalog API</text>
<text text-anchor="middle" x="64" y="-255.18" font-family="Arial" font-size="12.00">Python 3.13</text>
<text text-anchor="middle" x="64" y="-240.93" font-family="Arial" font-size="12.00">FastAPI</text>
</g>
<!-- fastapi&#45;&gt;catalog_api -->
<g id="edge6" class="edge">
<title>fastapi&#45;&gt;catalog_api</title>
<path fill="none" stroke="black" d="M319.29,-450.75C239.49,-451.07 86.34,-446.44 52.25,-407.47 25.74,-377.17 36.23,-328.63 48.26,-295.69"/>
<polygon fill="black" stroke="black" points="51.45,-297.16 51.81,-286.58 44.92,-294.63 51.45,-297.16"/>
<text text-anchor="middle" x="111.12" y="-397.97" font-family="Arial" font-size="10.00">HTTP REST</text>
<text text-anchor="middle" x="111.12" y="-385.97" font-family="Arial" font-size="10.00">http://medical&#45;catalog:8001</text>
<text text-anchor="middle" x="111.12" y="-361.97" font-family="Arial" font-size="10.00">(Optional)</text>
</g>
<!-- fastapi&#45;&gt;postgres -->
<g id="edge3" class="edge">
<title>fastapi&#45;&gt;postgres</title>
<path fill="none" stroke="black" d="M333.03,-424.98C327.54,-422 321.76,-419.35 316,-417.47 301.94,-412.87 193.31,-418.31 183.25,-407.47 168.74,-391.83 172.61,-377.96 183.25,-359.47 186.77,-353.34 191.79,-356.25 197,-351.47 209.03,-340.43 220.09,-326.77 229.51,-313.41"/>
<polygon fill="black" stroke="black" points="232.16,-315.73 234.91,-305.5 226.38,-311.78 232.16,-315.73"/>
<text text-anchor="middle" x="228.62" y="-397.97" font-family="Arial" font-size="10.00">PostgreSQL protocol</text>
<text text-anchor="middle" x="228.62" y="-385.97" font-family="Arial" font-size="10.00">postgres:5432</text>
<text text-anchor="middle" x="228.62" y="-361.97" font-family="Arial" font-size="10.00">SQLAlchemy ORM</text>
</g>
<!-- fastapi&#45;&gt;neo4j -->
<g id="edge4" class="edge">
<title>fastapi&#45;&gt;neo4j</title>
<path fill="none" stroke="black" d="M328.7,-424.99C324.44,-422.41 320.14,-419.86 316,-417.47 307.82,-412.75 302.11,-415.57 297.25,-407.47 286.27,-389.18 283.7,-375.94 297.25,-359.47 308.98,-345.22 320.6,-357.63 338,-351.47 380.9,-336.28 426.27,-311.88 459.64,-292.16"/>
<polygon fill="black" stroke="black" points="461.07,-295.38 467.86,-287.25 457.48,-289.37 461.07,-295.38"/>
<text text-anchor="middle" x="324.62" y="-397.97" font-family="Arial" font-size="10.00">Bolt protocol</text>
<text text-anchor="middle" x="324.62" y="-385.97" font-family="Arial" font-size="10.00">neo4j:7687</text>
<text text-anchor="middle" x="324.62" y="-361.97" font-family="Arial" font-size="10.00">Neo4j driver</text>
</g>
<!-- fastapi&#45;&gt;redis -->
<g id="edge5" class="edge">
<title>fastapi&#45;&gt;redis</title>
<path fill="none" stroke="black" d="M360.68,-425.2C356.26,-404.72 354.31,-376.3 371,-359.47 386.03,-344.31 544.15,-361.5 563,-351.47 582.58,-341.05 597.94,-322.08 608.98,-304.15"/>
<polygon fill="black" stroke="black" points="611.91,-306.06 613.91,-295.66 605.86,-302.55 611.91,-306.06"/>
<text text-anchor="middle" x="410" y="-397.97" font-family="Arial" font-size="10.00">Redis protocol</text>
<text text-anchor="middle" x="410" y="-385.97" font-family="Arial" font-size="10.00">redis:6379</text>
<text text-anchor="middle" x="410" y="-361.97" font-family="Arial" font-size="10.00">Pub/Sub + Cache</text>
</g>
<!-- google_sso -->
<g id="node12" class="node">
<title>google_sso</title>
<polygon fill="plum" stroke="black" points="809.25,-284.7 716.75,-284.7 716.75,-234.2 809.25,-234.2 809.25,-284.7"/>
<text text-anchor="middle" x="763" y="-269.3" font-family="Arial" font-size="12.00">Google SSO</text>
<text text-anchor="middle" x="763" y="-241.05" font-family="Arial" font-size="12.00">Authentication</text>
</g>
<!-- fastapi&#45;&gt;google_sso -->
<g id="edge15" class="edge">
<title>fastapi&#45;&gt;google_sso</title>
<path fill="none" stroke="black" d="M406.87,-424.97C413.07,-421.95 419.56,-419.29 426,-417.47 451.15,-410.35 638.11,-420.08 661,-407.47 705.14,-383.16 734.3,-330.63 749.74,-295.4"/>
<polygon fill="black" stroke="black" points="752.84,-297.04 753.5,-286.47 746.39,-294.32 752.84,-297.04"/>
<text text-anchor="middle" x="732.97" y="-385.97" font-family="Arial" font-size="10.00">HTTPS</text>
<text text-anchor="middle" x="732.97" y="-373.97" font-family="Arial" font-size="10.00">OAuth 2.0</text>
</g>
<!-- agent_system -->
<g id="node4" class="node">
<title>agent_system</title>
<polygon fill="lightgreen" stroke="black" points="525.12,-469.09 434.88,-469.09 434.88,-432.59 525.12,-432.59 525.12,-469.09"/>
<text text-anchor="middle" x="480" y="-453.69" font-family="Arial" font-size="12.00">Agent System</text>
<text text-anchor="middle" x="480" y="-439.44" font-family="Arial" font-size="12.00">23 agents</text>
</g>
<!-- agent_system&#45;&gt;postgres -->
<g id="edge8" class="edge">
<title>agent_system&#45;&gt;postgres</title>
<path fill="none" stroke="black" d="M475.88,-432.33C469.85,-407.4 458.73,-364.17 453,-359.47 438.51,-347.57 386.29,-358.73 369,-351.47 346.46,-342 325.1,-326.11 307.42,-310.23"/>
<polygon fill="black" stroke="black" points="309.86,-307.72 300.15,-303.49 305.1,-312.86 309.86,-307.72"/>
<text text-anchor="middle" x="513.04" y="-385.97" font-family="Arial" font-size="10.00">PostgreSQL</text>
<text text-anchor="middle" x="513.04" y="-373.97" font-family="Arial" font-size="10.00">via internal services</text>
</g>
<!-- agent_system&#45;&gt;neo4j -->
<g id="edge9" class="edge">
<title>agent_system&#45;&gt;neo4j</title>
<path fill="none" stroke="black" d="M503.59,-432.21C511.39,-426.95 520.31,-421.51 529,-417.47 543.28,-410.83 553.56,-420.08 563,-407.47 575.78,-390.39 568.19,-380.16 563,-359.47 558.99,-343.49 551.86,-327.27 544.09,-312.71"/>
<polygon fill="black" stroke="black" points="547.3,-311.28 539.38,-304.24 541.18,-314.68 547.3,-311.28"/>
<text text-anchor="middle" x="613.52" y="-385.97" font-family="Arial" font-size="10.00">Bolt</text>
<text text-anchor="middle" x="613.52" y="-373.97" font-family="Arial" font-size="10.00">via internal services</text>
</g>
<!-- gemini_api -->
<g id="node11" class="node">
<title>gemini_api</title>
<polygon fill="plum" stroke="black" points="1087.12,-284.7 960.88,-284.7 960.88,-234.2 1087.12,-234.2 1087.12,-284.7"/>
<text text-anchor="middle" x="1024" y="-269.3" font-family="Arial" font-size="12.00">Google Gemini API</text>
<text text-anchor="middle" x="1024" y="-241.05" font-family="Arial" font-size="12.00">Agent LLM inference</text>
</g>
<!-- agent_system&#45;&gt;gemini_api -->
<g id="edge16" class="edge">
<title>agent_system&#45;&gt;gemini_api</title>
<path fill="none" stroke="black" d="M525.45,-435.88C549.7,-429.05 580.21,-421.47 608,-417.47 665.89,-409.14 815.51,-425.95 871,-407.47 929.23,-388.08 976.47,-331.65 1002.36,-294.62"/>
<polygon fill="black" stroke="black" points="1005.2,-296.68 1007.93,-286.44 999.41,-292.74 1005.2,-296.68"/>
<text text-anchor="middle" x="966.38" y="-385.97" font-family="Arial" font-size="10.00">HTTPS</text>
<text text-anchor="middle" x="966.38" y="-373.97" font-family="Arial" font-size="10.00">REST API</text>
</g>
<!-- medical_apis -->
<g id="node13" class="node">
<title>medical_apis</title>
<polygon fill="plum" stroke="black" points="942.5,-284.7 827.5,-284.7 827.5,-234.2 942.5,-234.2 942.5,-284.7"/>
<text text-anchor="middle" x="885" y="-269.3" font-family="Arial" font-size="12.00">Medical Data APIs</text>
<text text-anchor="middle" x="885" y="-241.05" font-family="Arial" font-size="12.00">RupaHealth, etc.</text>
</g>
<!-- agent_system&#45;&gt;medical_apis -->
<g id="edge17" class="edge">
<title>agent_system&#45;&gt;medical_apis</title>
<path fill="none" stroke="black" d="M525.5,-436.19C549.76,-429.46 580.27,-421.86 608,-417.47 641.22,-412.21 728.19,-420.96 759,-407.47 809.59,-385.32 847.14,-331.05 867.55,-295.01"/>
<polygon fill="black" stroke="black" points="870.62,-296.7 872.36,-286.25 864.48,-293.33 870.62,-296.7"/>
<text text-anchor="middle" x="843.85" y="-385.97" font-family="Arial" font-size="10.00">HTTPS</text>
<text text-anchor="middle" x="843.85" y="-373.97" font-family="Arial" font-size="10.00">REST API</text>
</g>
<!-- qdrant -->
<g id="node9" class="node">
<title>qdrant</title>
<path fill="skyblue" stroke="black" d="M99.38,-87.12C99.38,-90.61 83.52,-93.44 64,-93.44 44.48,-93.44 28.62,-90.61 28.62,-87.12 28.62,-87.12 28.62,-30.31 28.62,-30.31 28.62,-26.83 44.48,-24 64,-24 83.52,-24 99.38,-26.83 99.38,-30.31 99.38,-30.31 99.38,-87.12 99.38,-87.12"/>
<path fill="none" stroke="black" d="M99.38,-87.12C99.38,-83.64 83.52,-80.81 64,-80.81 44.48,-80.81 28.62,-83.64 28.62,-87.12"/>
<text text-anchor="middle" x="64" y="-68.57" font-family="Arial" font-size="12.00">Qdrant 1.x</text>
<text text-anchor="middle" x="64" y="-40.32" font-family="Arial" font-size="12.00">Vector DB</text>
</g>
<!-- catalog_api&#45;&gt;qdrant -->
<g id="edge7" class="edge">
<title>catalog_api&#45;&gt;qdrant</title>
<path fill="none" stroke="black" d="M64,-233.69C64,-201.58 64,-144.99 64,-105.09"/>
<polygon fill="black" stroke="black" points="67.5,-105.31 64,-95.31 60.5,-105.31 67.5,-105.31"/>
<text text-anchor="middle" x="94" y="-187.44" font-family="Arial" font-size="10.00">gRPC/HTTP</text>
<text text-anchor="middle" x="94" y="-175.44" font-family="Arial" font-size="10.00">qdrant:6333</text>
<text text-anchor="middle" x="94" y="-151.44" font-family="Arial" font-size="10.00">Vector search</text>
</g>
<!-- redisinsight&#45;&gt;redis -->
<g id="edge11" class="edge">
<title>redisinsight&#45;&gt;redis</title>
<path fill="none" stroke="black" d="M645.3,-609.33C649.82,-603.93 654.02,-597.95 657,-591.72 679.49,-544.79 700.44,-409.74 687,-359.47 681.78,-339.93 671.67,-320.24 661.4,-303.63"/>
<polygon fill="black" stroke="black" points="664.53,-302.03 656.18,-295.5 658.64,-305.8 664.53,-302.03"/>
<text text-anchor="middle" x="722.33" y="-465.34" font-family="Arial" font-size="10.00">Redis protocol</text>
<text text-anchor="middle" x="722.33" y="-453.34" font-family="Arial" font-size="10.00">redis:6379</text>
<text text-anchor="middle" x="722.33" y="-429.34" font-family="Arial" font-size="10.00">Monitoring</text>
</g>
<!-- note1 -->
<g id="node14" class="node">
<title>note1</title>
<polygon fill="white" stroke="black" points="886.5,-853.47 717.5,-853.47 717.5,-777.97 892.5,-777.97 892.5,-847.47 886.5,-853.47"/>
<polyline fill="none" stroke="black" points="886.5,-853.47 886.5,-847.47"/>
<polyline fill="none" stroke="black" points="892.5,-847.47 886.5,-847.47"/>
<text text-anchor="middle" x="805" y="-839.02" font-family="Arial" font-size="11.00">Docker Compose Network:</text>
<text text-anchor="middle" x="805" y="-825.52" font-family="Arial" font-size="11.00">&#45; Network: dem2_default (bridge)</text>
<text text-anchor="middle" x="805" y="-812.02" font-family="Arial" font-size="11.00">&#45; DNS: Service names resolve</text>
<text text-anchor="middle" x="805" y="-798.52" font-family="Arial" font-size="11.00">&#45; Isolation: Containers can only</text>
<text text-anchor="middle" x="805" y="-785.02" font-family="Arial" font-size="11.00"> &#160;communicate within network</text>
</g>
<!-- note2 -->
<g id="node15" class="node">
<title>note2</title>
<polygon fill="white" stroke="black" points="1073.88,-873.72 910.12,-873.72 910.12,-757.72 1079.88,-757.72 1079.88,-867.72 1073.88,-873.72"/>
<polyline fill="none" stroke="black" points="1073.88,-873.72 1073.88,-867.72"/>
<polyline fill="none" stroke="black" points="1079.88,-867.72 1073.88,-867.72"/>
<text text-anchor="middle" x="995" y="-859.27" font-family="Arial" font-size="11.00">Port Mapping:</text>
<text text-anchor="middle" x="995" y="-845.77" font-family="Arial" font-size="11.00">&#45; Host:Container format</text>
<text text-anchor="middle" x="995" y="-832.27" font-family="Arial" font-size="11.00">&#45; 3000:3000 (Frontend)</text>
<text text-anchor="middle" x="995" y="-818.77" font-family="Arial" font-size="11.00">&#45; 8000:8000 (Backend API)</text>
<text text-anchor="middle" x="995" y="-805.27" font-family="Arial" font-size="11.00">&#45; 5432:5432 (PostgreSQL)</text>
<text text-anchor="middle" x="995" y="-791.77" font-family="Arial" font-size="11.00">&#45; 7474:7474, 7687:7687 (Neo4j)</text>
<text text-anchor="middle" x="995" y="-778.27" font-family="Arial" font-size="11.00">&#45; 6379:6379 (Redis)</text>
<text text-anchor="middle" x="995" y="-764.77" font-family="Arial" font-size="11.00">&#45; 6333:6333 (Qdrant)</text>
</g>
<!-- note3 -->
<g id="node16" class="node">
<title>note3</title>
<polygon fill="white" stroke="black" points="1286.25,-853.47 1097.75,-853.47 1097.75,-777.97 1292.25,-777.97 1292.25,-847.47 1286.25,-853.47"/>
<polyline fill="none" stroke="black" points="1286.25,-853.47 1286.25,-847.47"/>
<polyline fill="none" stroke="black" points="1292.25,-847.47 1286.25,-847.47"/>
<text text-anchor="middle" x="1195" y="-839.02" font-family="Arial" font-size="11.00">Service Discovery:</text>
<text text-anchor="middle" x="1195" y="-825.52" font-family="Arial" font-size="11.00">&#45; Use container names as hostnames</text>
<text text-anchor="middle" x="1195" y="-812.02" font-family="Arial" font-size="11.00">&#45; Example: http://dem2:8000</text>
<text text-anchor="middle" x="1195" y="-798.52" font-family="Arial" font-size="11.00">&#45; Example: postgres:5432</text>
<text text-anchor="middle" x="1195" y="-785.02" font-family="Arial" font-size="11.00">&#45; No hardcoded IPs</text>
</g>
<!-- note4 -->
<g id="node17" class="node">
<title>note4</title>
<polygon fill="white" stroke="black" points="1507.38,-853.47 1310.62,-853.47 1310.62,-777.97 1513.38,-777.97 1513.38,-847.47 1507.38,-853.47"/>
<polyline fill="none" stroke="black" points="1507.38,-853.47 1507.38,-847.47"/>
<polyline fill="none" stroke="black" points="1513.38,-847.47 1507.38,-847.47"/>
<text text-anchor="middle" x="1412" y="-839.02" font-family="Arial" font-size="11.00">Hot&#45;Reload Mode:</text>
<text text-anchor="middle" x="1412" y="-825.52" font-family="Arial" font-size="11.00">&#45; Just databases in Docker</text>
<text text-anchor="middle" x="1412" y="-812.02" font-family="Arial" font-size="11.00">&#45; Apps run on host (just run, pnpm dev)</text>
<text text-anchor="middle" x="1412" y="-798.52" font-family="Arial" font-size="11.00">&#45; Apps connect via localhost:PORT</text>
<text text-anchor="middle" x="1412" y="-785.02" font-family="Arial" font-size="11.00">&#45; Faster development cycle</text>
</g>
</g>
</svg>
