<?xml version="1.0" encoding="UTF-8" standalone="no"?>
<!DOCTYPE svg PUBLIC "-//W3C//DTD SVG 1.1//EN"
 "http://www.w3.org/Graphics/SVG/1.1/DTD/svg11.dtd">
<!-- Generated by graphviz version 12.2.1 (0)
 -->
<!-- Title: MultiDatabaseArchitecture Pages: 1 -->
<svg width="1038pt" height="336pt"
 viewBox="0.00 0.00 1038.00 335.78" xmlns="http://www.w3.org/2000/svg" xmlns:xlink="http://www.w3.org/1999/xlink">
<g id="graph0" class="graph" transform="scale(1 1) rotate(0) translate(4 331.78)">
<title>MultiDatabaseArchitecture</title>
<polygon fill="#f5f5f5" stroke="none" points="-4,4 -4,-331.78 1034,-331.78 1034,4 -4,4"/>
<g id="clust1" class="cluster">
<title>cluster_app</title>
<polygon fill="lightgreen" stroke="black" points="336,-244.03 336,-319.78 539,-319.78 539,-244.03 336,-244.03"/>
<text text-anchor="middle" x="437.5" y="-302.48" font-family="Arial" font-size="14.00">Application Layer</text>
</g>
<g id="clust2" class="cluster">
<title>cluster_postgres</title>
<polygon fill="lightyellow" stroke="black" points="8,-92.5 8,-202.03 304,-202.03 304,-92.5 8,-92.5"/>
<text text-anchor="middle" x="156" y="-184.73" font-family="Arial" font-size="14.00">PostgreSQL (Port 5432)</text>
</g>
<g id="clust3" class="cluster">
<title>cluster_neo4j</title>
<polygon fill="lightcyan" stroke="black" points="606,-8 606,-202.03 856,-202.03 856,-8 606,-8"/>
<text text-anchor="middle" x="731" y="-184.73" font-family="Arial" font-size="14.00">Neo4j (Port 7474/7687)</text>
</g>
<g id="clust4" class="cluster">
<title>cluster_redis</title>
<polygon fill="lightpink" stroke="black" points="312,-102.3 312,-192.23 598,-192.23 598,-102.3 312,-102.3"/>
<text text-anchor="middle" x="455" y="-174.93" font-family="Arial" font-size="14.00">Redis (Port 6379)</text>
</g>
<g id="clust5" class="cluster">
<title>cluster_qdrant</title>
<polygon fill="lavender" stroke="black" points="864,-8.25 864,-192.23 1022,-192.23 1022,-8.25 864,-8.25"/>
<text text-anchor="middle" x="943" y="-174.93" font-family="Arial" font-size="14.00">Qdrant (Port 6333)</text>
</g>
<!-- ServiceLayer -->
<g id="node1" class="node">
<title>ServiceLayer</title>
<polygon fill="palegreen" stroke="black" points="433.75,-288.03 344.25,-288.03 344.25,-252.03 433.75,-252.03 433.75,-288.03"/>
<text text-anchor="middle" x="389" y="-265.76" font-family="Arial" font-size="12.00">Service Layer</text>
</g>
<!-- UserDB -->
<g id="node3" class="node">
<title>UserDB</title>
<path fill="skyblue" stroke="black" d="M97.62,-163.94C97.62,-167.44 79.42,-170.28 57,-170.28 34.58,-170.28 16.38,-167.44 16.38,-163.94 16.38,-163.94 16.38,-106.84 16.38,-106.84 16.38,-103.34 34.58,-100.5 57,-100.5 79.42,-100.5 97.62,-103.34 97.62,-106.84 97.62,-106.84 97.62,-163.94 97.62,-163.94"/>
<path fill="none" stroke="black" d="M97.62,-163.94C97.62,-160.44 79.42,-157.59 57,-157.59 34.58,-157.59 16.38,-160.44 16.38,-163.94"/>
<text text-anchor="middle" x="57" y="-145.37" font-family="Arial" font-size="12.00">users</text>
<text text-anchor="middle" x="57" y="-131.12" font-family="Arial" font-size="12.00">sessions</text>
<text text-anchor="middle" x="57" y="-116.87" font-family="Arial" font-size="12.00">auth_tokens</text>
</g>
<!-- ServiceLayer&#45;&gt;UserDB -->
<g id="edge1" class="edge">
<title>ServiceLayer&#45;&gt;UserDB</title>
<path fill="none" stroke="black" d="M343.8,-267.56C277.62,-264.67 158.3,-256.44 122.25,-234.03 102.05,-221.48 86.71,-200.09 75.99,-180.52"/>
<polygon fill="black" stroke="black" points="79.21,-179.13 71.51,-171.86 73,-182.35 79.21,-179.13"/>
<text text-anchor="middle" x="151.12" y="-224.53" font-family="Arial" font-size="10.00">SQLAlchemy</text>
<text text-anchor="middle" x="151.12" y="-212.53" font-family="Arial" font-size="10.00">ORM</text>
</g>
<!-- FileDB -->
<g id="node4" class="node">
<title>FileDB</title>
<path fill="skyblue" stroke="black" d="M190.25,-155.92C190.25,-158.44 173.55,-160.48 153,-160.48 132.45,-160.48 115.75,-158.44 115.75,-155.92 115.75,-155.92 115.75,-114.86 115.75,-114.86 115.75,-112.34 132.45,-110.3 153,-110.3 173.55,-110.3 190.25,-112.34 190.25,-114.86 190.25,-114.86 190.25,-155.92 190.25,-155.92"/>
<path fill="none" stroke="black" d="M190.25,-155.92C190.25,-153.4 173.55,-151.36 153,-151.36 132.45,-151.36 115.75,-153.4 115.75,-155.92"/>
<text text-anchor="middle" x="153" y="-138.24" font-family="Arial" font-size="12.00">files</text>
<text text-anchor="middle" x="153" y="-123.99" font-family="Arial" font-size="12.00">documents</text>
</g>
<!-- ServiceLayer&#45;&gt;FileDB -->
<g id="edge2" class="edge">
<title>ServiceLayer&#45;&gt;FileDB</title>
<path fill="none" stroke="black" d="M344.14,-264.76C297.6,-259.57 228.65,-249.54 207.25,-234.03 186.25,-218.82 172.39,-192.87 163.94,-171.54"/>
<polygon fill="black" stroke="black" points="167.28,-170.48 160.53,-162.31 160.71,-172.9 167.28,-170.48"/>
<text text-anchor="middle" x="236.12" y="-224.53" font-family="Arial" font-size="10.00">SQLAlchemy</text>
<text text-anchor="middle" x="236.12" y="-212.53" font-family="Arial" font-size="10.00">ORM</text>
</g>
<!-- CalDB -->
<g id="node5" class="node">
<title>CalDB</title>
<path fill="skyblue" stroke="black" d="M296,-155.92C296,-158.44 276.28,-160.48 252,-160.48 227.72,-160.48 208,-158.44 208,-155.92 208,-155.92 208,-114.86 208,-114.86 208,-112.34 227.72,-110.3 252,-110.3 276.28,-110.3 296,-112.34 296,-114.86 296,-114.86 296,-155.92 296,-155.92"/>
<path fill="none" stroke="black" d="M296,-155.92C296,-153.4 276.28,-151.36 252,-151.36 227.72,-151.36 208,-153.4 208,-155.92"/>
<text text-anchor="middle" x="252" y="-138.24" font-family="Arial" font-size="12.00">appointments</text>
<text text-anchor="middle" x="252" y="-123.99" font-family="Arial" font-size="12.00">schedules</text>
</g>
<!-- ServiceLayer&#45;&gt;CalDB -->
<g id="edge3" class="edge">
<title>ServiceLayer&#45;&gt;CalDB</title>
<path fill="none" stroke="black" d="M343.86,-263.05C323.63,-258.25 300.86,-249.6 285.25,-234.03 268.74,-217.57 260.43,-192.6 256.24,-172.04"/>
<polygon fill="black" stroke="black" points="259.71,-171.57 254.53,-162.33 252.82,-172.79 259.71,-171.57"/>
<text text-anchor="middle" x="314.12" y="-224.53" font-family="Arial" font-size="10.00">SQLAlchemy</text>
<text text-anchor="middle" x="314.12" y="-212.53" font-family="Arial" font-size="10.00">ORM</text>
</g>
<!-- Cache -->
<g id="node9" class="node">
<title>Cache</title>
<path fill="skyblue" stroke="black" d="M404.12,-150.12C404.12,-151.92 385.24,-153.39 362,-153.39 338.76,-153.39 319.88,-151.92 319.88,-150.12 319.88,-150.12 319.88,-120.66 319.88,-120.66 319.88,-118.86 338.76,-117.39 362,-117.39 385.24,-117.39 404.12,-118.86 404.12,-120.66 404.12,-120.66 404.12,-150.12 404.12,-150.12"/>
<path fill="none" stroke="black" d="M404.12,-150.12C404.12,-148.31 385.24,-146.85 362,-146.85 338.76,-146.85 319.88,-148.31 319.88,-150.12"/>
<text text-anchor="middle" x="362" y="-131.12" font-family="Arial" font-size="12.00">Cache Layer</text>
</g>
<!-- ServiceLayer&#45;&gt;Cache -->
<g id="edge7" class="edge">
<title>ServiceLayer&#45;&gt;Cache</title>
<path fill="none" stroke="black" d="M364.93,-251.73C359.69,-246.68 354.87,-240.69 352,-234.03 342.54,-212.05 346.47,-184.8 351.94,-164.68"/>
<polygon fill="black" stroke="black" points="355.26,-165.78 354.82,-155.2 348.56,-163.75 355.26,-165.78"/>
<text text-anchor="middle" x="379" y="-218.53" font-family="Arial" font-size="10.00">Redis Client</text>
</g>
<!-- PubSub -->
<g id="node10" class="node">
<title>PubSub</title>
<path fill="skyblue" stroke="black" d="M484.25,-155.92C484.25,-158.44 470.24,-160.48 453,-160.48 435.76,-160.48 421.75,-158.44 421.75,-155.92 421.75,-155.92 421.75,-114.86 421.75,-114.86 421.75,-112.34 435.76,-110.3 453,-110.3 470.24,-110.3 484.25,-112.34 484.25,-114.86 484.25,-114.86 484.25,-155.92 484.25,-155.92"/>
<path fill="none" stroke="black" d="M484.25,-155.92C484.25,-153.4 470.24,-151.36 453,-151.36 435.76,-151.36 421.75,-153.4 421.75,-155.92"/>
<text text-anchor="middle" x="453" y="-138.24" font-family="Arial" font-size="12.00">Pub/Sub</text>
<text text-anchor="middle" x="453" y="-123.99" font-family="Arial" font-size="12.00">Events</text>
</g>
<!-- ServiceLayer&#45;&gt;PubSub -->
<g id="edge8" class="edge">
<title>ServiceLayer&#45;&gt;PubSub</title>
<path fill="none" stroke="black" d="M397.49,-251.59C400.21,-245.99 403.24,-239.75 406,-234.03 416.06,-213.22 427.3,-189.89 436.25,-171.25"/>
<polygon fill="black" stroke="black" points="439.41,-172.77 440.59,-162.24 433.1,-169.74 439.41,-172.77"/>
<text text-anchor="middle" x="469.2" y="-224.53" font-family="Arial" font-size="10.00">Redis Client</text>
<text text-anchor="middle" x="469.2" y="-212.53" font-family="Arial" font-size="10.00">PUBLISH/SUBSCRIBE</text>
</g>
<!-- Sessions -->
<g id="node11" class="node">
<title>Sessions</title>
<path fill="skyblue" stroke="black" d="M590,-150.12C590,-151.92 570.28,-153.39 546,-153.39 521.72,-153.39 502,-151.92 502,-150.12 502,-150.12 502,-120.66 502,-120.66 502,-118.86 521.72,-117.39 546,-117.39 570.28,-117.39 590,-118.86 590,-120.66 590,-120.66 590,-150.12 590,-150.12"/>
<path fill="none" stroke="black" d="M590,-150.12C590,-148.31 570.28,-146.85 546,-146.85 521.72,-146.85 502,-148.31 502,-150.12"/>
<text text-anchor="middle" x="546" y="-131.12" font-family="Arial" font-size="12.00">Session Data</text>
</g>
<!-- ServiceLayer&#45;&gt;Sessions -->
<g id="edge9" class="edge">
<title>ServiceLayer&#45;&gt;Sessions</title>
<path fill="none" stroke="black" d="M422.37,-251.62C429.06,-248.69 436.14,-245.98 443,-244.03 460.87,-238.96 512.34,-246.62 526,-234.03 544.69,-216.82 548.52,-187.24 548.39,-165.13"/>
<polygon fill="black" stroke="black" points="551.89,-165.13 548.03,-155.26 544.89,-165.38 551.89,-165.13"/>
<text text-anchor="middle" x="567.59" y="-218.53" font-family="Arial" font-size="10.00">Redis Client</text>
</g>
<!-- AgentTools -->
<g id="node2" class="node">
<title>AgentTools</title>
<polygon fill="lightcyan" stroke="black" points="530.5,-288.03 451.5,-288.03 451.5,-252.03 530.5,-252.03 530.5,-288.03"/>
<text text-anchor="middle" x="491" y="-265.76" font-family="Arial" font-size="12.00">Agent Tools</text>
</g>
<!-- PatientGraph -->
<g id="node6" class="node">
<title>PatientGraph</title>
<path fill="skyblue" stroke="black" d="M715.25,-163.94C715.25,-167.44 695.86,-170.28 672,-170.28 648.14,-170.28 628.75,-167.44 628.75,-163.94 628.75,-163.94 628.75,-106.84 628.75,-106.84 628.75,-103.34 648.14,-100.5 672,-100.5 695.86,-100.5 715.25,-103.34 715.25,-106.84 715.25,-106.84 715.25,-163.94 715.25,-163.94"/>
<path fill="none" stroke="black" d="M715.25,-163.94C715.25,-160.44 695.86,-157.59 672,-157.59 648.14,-157.59 628.75,-160.44 628.75,-163.94"/>
<text text-anchor="middle" x="672" y="-145.37" font-family="Arial" font-size="12.00">Patient</text>
<text text-anchor="middle" x="672" y="-131.12" font-family="Arial" font-size="12.00">Medical Data</text>
<text text-anchor="middle" x="672" y="-116.87" font-family="Arial" font-size="12.00">Graph</text>
</g>
<!-- AgentTools&#45;&gt;PatientGraph -->
<g id="edge4" class="edge">
<title>AgentTools&#45;&gt;PatientGraph</title>
<path fill="none" stroke="black" d="M530.9,-262.24C552.54,-257.12 578.88,-248.43 599,-234.03 618.64,-219.98 635.28,-199.05 647.68,-180.17"/>
<polygon fill="black" stroke="black" points="650.58,-182.14 652.97,-171.81 644.67,-178.4 650.58,-182.14"/>
<text text-anchor="middle" x="651.64" y="-224.53" font-family="Arial" font-size="10.00">Neo4j Driver</text>
<text text-anchor="middle" x="651.64" y="-212.53" font-family="Arial" font-size="10.00">Bolt Protocol</text>
</g>
<!-- Vectors -->
<g id="node12" class="node">
<title>Vectors</title>
<path fill="skyblue" stroke="black" d="M997.12,-155.92C997.12,-158.44 970.18,-160.48 937,-160.48 903.82,-160.48 876.88,-158.44 876.88,-155.92 876.88,-155.92 876.88,-114.86 876.88,-114.86 876.88,-112.34 903.82,-110.3 937,-110.3 970.18,-110.3 997.12,-112.34 997.12,-114.86 997.12,-114.86 997.12,-155.92 997.12,-155.92"/>
<path fill="none" stroke="black" d="M997.12,-155.92C997.12,-153.4 970.18,-151.36 937,-151.36 903.82,-151.36 876.88,-153.4 876.88,-155.92"/>
<text text-anchor="middle" x="937" y="-138.24" font-family="Arial" font-size="12.00">Vector Embeddings</text>
<text text-anchor="middle" x="937" y="-123.99" font-family="Arial" font-size="12.00">Semantic Search</text>
</g>
<!-- AgentTools&#45;&gt;Vectors -->
<g id="edge10" class="edge">
<title>AgentTools&#45;&gt;Vectors</title>
<path fill="none" stroke="black" d="M530.75,-268.5C600.67,-266.15 748.82,-254.77 860,-202.03 877.19,-193.88 893.61,-180.88 906.84,-168.59"/>
<polygon fill="black" stroke="black" points="909.19,-171.19 913.96,-161.73 904.33,-166.15 909.19,-171.19"/>
<text text-anchor="middle" x="870.5" y="-224.53" font-family="Arial" font-size="10.00">Qdrant Client</text>
<text text-anchor="middle" x="870.5" y="-212.53" font-family="Arial" font-size="10.00">gRPC</text>
</g>
<!-- TypeNodes -->
<g id="node7" class="node">
<title>TypeNodes</title>
<polygon fill="lightgreen" stroke="black" points="729.5,-52.5 614.5,-52.5 614.5,-16 729.5,-16 729.5,-52.5"/>
<text text-anchor="middle" x="672" y="-37.1" font-family="Arial" font-size="12.00">Type Nodes</text>
<text text-anchor="middle" x="672" y="-22.85" font-family="Arial" font-size="12.00">Shared Definitions</text>
</g>
<!-- PatientGraph&#45;&gt;TypeNodes -->
<g id="edge5" class="edge">
<title>PatientGraph&#45;&gt;TypeNodes</title>
<path fill="none" stroke="black" d="M672,-100.27C672,-88.59 672,-75.64 672,-64.38"/>
<polygon fill="black" stroke="black" points="675.5,-64.5 672,-54.5 668.5,-64.5 675.5,-64.5"/>
<text text-anchor="middle" x="701.62" y="-73" font-family="Arial" font-size="10.00">Relationships</text>
</g>
<!-- InstanceNodes -->
<g id="node8" class="node">
<title>InstanceNodes</title>
<polygon fill="mistyrose" stroke="black" points="848,-52.5 748,-52.5 748,-16 848,-16 848,-52.5"/>
<text text-anchor="middle" x="798" y="-37.1" font-family="Arial" font-size="12.00">Instance Nodes</text>
<text text-anchor="middle" x="798" y="-22.85" font-family="Arial" font-size="12.00">Patient&#45;Specific</text>
</g>
<!-- PatientGraph&#45;&gt;InstanceNodes -->
<g id="edge6" class="edge">
<title>PatientGraph&#45;&gt;InstanceNodes</title>
<path fill="none" stroke="black" d="M712.56,-102.48C730.16,-88.63 750.46,-72.66 766.85,-59.76"/>
<polygon fill="black" stroke="black" points="768.62,-62.82 774.32,-53.88 764.3,-57.32 768.62,-62.82"/>
<text text-anchor="middle" x="779.62" y="-73" font-family="Arial" font-size="10.00">Relationships</text>
</g>
<!-- BiomarkerEmbed -->
<g id="node13" class="node">
<title>BiomarkerEmbed</title>
<path fill="skyblue" stroke="black" d="M1013.62,-48.98C1013.62,-50.78 981.97,-52.25 943,-52.25 904.03,-52.25 872.38,-50.78 872.38,-48.98 872.38,-48.98 872.38,-19.52 872.38,-19.52 872.38,-17.72 904.03,-16.25 943,-16.25 981.97,-16.25 1013.62,-17.72 1013.62,-19.52 1013.62,-19.52 1013.62,-48.98 1013.62,-48.98"/>
<path fill="none" stroke="black" d="M1013.62,-48.98C1013.62,-47.17 981.97,-45.7 943,-45.7 904.03,-45.7 872.38,-47.17 872.38,-48.98"/>
<text text-anchor="middle" x="943" y="-29.98" font-family="Arial" font-size="12.00">Biomarker Embeddings</text>
</g>
<!-- Vectors&#45;&gt;BiomarkerEmbed -->
<g id="edge11" class="edge">
<title>Vectors&#45;&gt;BiomarkerEmbed</title>
<path fill="none" stroke="black" d="M938.48,-109.88C939.32,-96 940.38,-78.55 941.26,-64.01"/>
<polygon fill="black" stroke="black" points="944.75,-64.34 941.86,-54.14 937.76,-63.92 944.75,-64.34"/>
<text text-anchor="middle" x="956.09" y="-73" font-family="Arial" font-size="10.00">Search</text>
</g>
</g>
</svg>
