<?xml version="1.0" encoding="UTF-8" standalone="no"?>
<!DOCTYPE svg PUBLIC "-//W3C//DTD SVG 1.1//EN"
 "http://www.w3.org/Graphics/SVG/1.1/DTD/svg11.dtd">
<!-- Generated by graphviz version 12.2.1 (0)
 -->
<!-- Title: BiomarkerExtraction Pages: 1 -->
<svg width="1264pt" height="128pt"
 viewBox="0.00 0.00 1264.23 128.00" xmlns="http://www.w3.org/2000/svg" xmlns:xlink="http://www.w3.org/1999/xlink">
<g id="graph0" class="graph" transform="scale(1 1) rotate(0) translate(4 124)">
<title>BiomarkerExtraction</title>
<polygon fill="#f5f5f5" stroke="none" points="-4,4 -4,-124 1260.23,-124 1260.23,4 -4,4"/>
<!-- DocPages -->
<g id="node1" class="node">
<title>DocPages</title>
<polygon fill="lightblue" stroke="black" points="108.25,-60.38 0,-60.38 0,-9.62 108.25,-9.62 108.25,-60.38"/>
<text text-anchor="middle" x="54.12" y="-44.98" font-family="Arial" font-size="12.00">Document Pages</text>
<text text-anchor="middle" x="54.12" y="-30.73" font-family="Arial" font-size="12.00">(PDF converted</text>
<text text-anchor="middle" x="54.12" y="-16.48" font-family="Arial" font-size="12.00">to images)</text>
</g>
<!-- GeminiVision -->
<g id="node2" class="node">
<title>GeminiVision</title>
<polygon fill="plum" stroke="black" points="294.5,-53 184.75,-53 184.75,-17 294.5,-17 294.5,-53"/>
<text text-anchor="middle" x="239.62" y="-30.73" font-family="Arial" font-size="12.00">Gemini 2.0 Vision</text>
</g>
<!-- DocPages&#45;&gt;GeminiVision -->
<g id="edge1" class="edge">
<title>DocPages&#45;&gt;GeminiVision</title>
<path fill="none" stroke="black" d="M108.69,-35C128.78,-35 151.83,-35 172.89,-35"/>
<polygon fill="black" stroke="black" points="172.84,-38.5 182.84,-35 172.84,-31.5 172.84,-38.5"/>
<text text-anchor="middle" x="146.5" y="-37.5" font-family="Arial" font-size="10.00">All pages</text>
</g>
<!-- ExtractTool -->
<g id="node3" class="node">
<title>ExtractTool</title>
<polygon fill="wheat" stroke="black" points="496.5,-53.25 379.25,-53.25 379.25,-16.75 496.5,-16.75 496.5,-53.25"/>
<text text-anchor="middle" x="437.88" y="-37.85" font-family="Arial" font-size="12.00">extract_biomarkers</text>
<text text-anchor="middle" x="437.88" y="-23.6" font-family="Arial" font-size="12.00">tool</text>
</g>
<!-- GeminiVision&#45;&gt;ExtractTool -->
<g id="edge2" class="edge">
<title>GeminiVision&#45;&gt;ExtractTool</title>
<path fill="none" stroke="black" d="M294.77,-35C317.2,-35 343.48,-35 367.31,-35"/>
<polygon fill="black" stroke="black" points="367.27,-38.5 377.27,-35 367.27,-31.5 367.27,-38.5"/>
<text text-anchor="middle" x="336.88" y="-37.5" font-family="Arial" font-size="10.00">Tool calling</text>
</g>
<!-- Validation -->
<g id="node4" class="node">
<title>Validation</title>
<polygon fill="wheat" stroke="black" points="595.11,-53 533.5,-35 595.11,-17 656.73,-35 595.11,-53"/>
<text text-anchor="middle" x="595.11" y="-30.73" font-family="Arial" font-size="12.00">Validation</text>
</g>
<!-- ExtractTool&#45;&gt;Validation -->
<g id="edge3" class="edge">
<title>ExtractTool&#45;&gt;Validation</title>
<path fill="none" stroke="black" d="M496.68,-35C504.47,-35 512.55,-35 520.57,-35"/>
<polygon fill="black" stroke="black" points="520.32,-38.5 530.32,-35 520.32,-31.5 520.32,-38.5"/>
</g>
<!-- BiomarkerList -->
<g id="node5" class="node">
<title>BiomarkerList</title>
<polygon fill="lightgreen" stroke="black" points="832.48,-90 721.23,-90 721.23,-54 832.48,-54 832.48,-90"/>
<text text-anchor="middle" x="776.85" y="-67.72" font-family="Arial" font-size="12.00">List of Biomarkers</text>
</g>
<!-- Validation&#45;&gt;BiomarkerList -->
<g id="edge4" class="edge">
<title>Validation&#45;&gt;BiomarkerList</title>
<path fill="none" stroke="black" d="M632.49,-42.49C654.66,-47.05 683.66,-53.02 709.77,-58.4"/>
<polygon fill="black" stroke="black" points="708.77,-61.76 719.27,-60.35 710.18,-54.91 708.77,-61.76"/>
<text text-anchor="middle" x="688.98" y="-59.31" font-family="Arial" font-size="10.00">Valid</text>
</g>
<!-- EmptyResult -->
<g id="node6" class="node">
<title>EmptyResult</title>
<polygon fill="lightcoral" stroke="black" points="817.85,-36 735.85,-36 735.85,0 817.85,0 817.85,-36"/>
<text text-anchor="middle" x="776.85" y="-13.72" font-family="Arial" font-size="12.00">Empty result</text>
</g>
<!-- Validation&#45;&gt;EmptyResult -->
<g id="edge5" class="edge">
<title>Validation&#45;&gt;EmptyResult</title>
<path fill="none" stroke="black" d="M642.87,-30.58C667.76,-28.22 698.44,-25.32 724.06,-22.9"/>
<polygon fill="black" stroke="black" points="724.3,-26.39 733.93,-21.97 723.64,-19.42 724.3,-26.39"/>
<text text-anchor="middle" x="688.98" y="-30.02" font-family="Arial" font-size="10.00">Invalid</text>
</g>
<!-- Normalizer -->
<g id="node7" class="node">
<title>Normalizer</title>
<polygon fill="lightcyan" stroke="black" points="975.48,-90 869.48,-90 869.48,-54 975.48,-54 975.48,-90"/>
<text text-anchor="middle" x="922.48" y="-67.72" font-family="Arial" font-size="12.00">NormalizerAgent</text>
</g>
<!-- BiomarkerList&#45;&gt;Normalizer -->
<g id="edge6" class="edge">
<title>BiomarkerList&#45;&gt;Normalizer</title>
<path fill="none" stroke="black" d="M832.97,-72C841.04,-72 849.4,-72 857.62,-72"/>
<polygon fill="black" stroke="black" points="857.59,-75.5 867.59,-72 857.59,-68.5 857.59,-75.5"/>
</g>
<!-- NormalizedBiomarkers -->
<g id="node8" class="node">
<title>NormalizedBiomarkers</title>
<polygon fill="palegreen" stroke="black" points="1256.23,-90.25 1114.98,-90.25 1114.98,-53.75 1256.23,-53.75 1256.23,-90.25"/>
<text text-anchor="middle" x="1185.6" y="-74.85" font-family="Arial" font-size="12.00">Normalized Biomarkers</text>
<text text-anchor="middle" x="1185.6" y="-60.6" font-family="Arial" font-size="12.00">(clean names)</text>
</g>
<!-- Normalizer&#45;&gt;NormalizedBiomarkers -->
<g id="edge7" class="edge">
<title>Normalizer&#45;&gt;NormalizedBiomarkers</title>
<path fill="none" stroke="black" d="M975.69,-72C1012.15,-72 1061.55,-72 1103.15,-72"/>
<polygon fill="black" stroke="black" points="1103.15,-75.5 1113.15,-72 1103.15,-68.5 1103.15,-75.5"/>
<text text-anchor="middle" x="1045.23" y="-110.5" font-family="Arial" font-size="10.00">Clean names:</text>
<text text-anchor="middle" x="1045.23" y="-98.5" font-family="Arial" font-size="10.00">&#45; Remove footnotes</text>
<text text-anchor="middle" x="1045.23" y="-86.5" font-family="Arial" font-size="10.00">&#45; Fix subscripts</text>
<text text-anchor="middle" x="1045.23" y="-74.5" font-family="Arial" font-size="10.00">&#45; Remove abbreviations</text>
</g>
</g>
</svg>
