<?xml version="1.0" encoding="UTF-8" standalone="no"?>
<!DOCTYPE svg PUBLIC "-//W3C//DTD SVG 1.1//EN"
 "http://www.w3.org/Graphics/SVG/1.1/DTD/svg11.dtd">
<!-- Generated by graphviz version 12.2.1 (0)
 -->
<!-- Title: EndToEndQueryResponse Pages: 1 -->
<svg width="790pt" height="1057pt"
 viewBox="0.00 0.00 790.33 1056.62" xmlns="http://www.w3.org/2000/svg" xmlns:xlink="http://www.w3.org/1999/xlink">
<g id="graph0" class="graph" transform="scale(1 1) rotate(0) translate(4 1052.62)">
<title>EndToEndQueryResponse</title>
<polygon fill="#f5f5f5" stroke="none" points="-4,4 -4,-1052.62 786.33,-1052.62 786.33,4 -4,4"/>
<!-- Browser -->
<g id="node1" class="node">
<title>Browser</title>
<polygon fill="lightblue" stroke="black" points="232.74,-1020 144.74,-1020 144.74,-984 232.74,-984 232.74,-1020"/>
<text text-anchor="middle" x="188.74" y="-997.73" font-family="Arial" font-size="12.00">Web Browser</text>
</g>
<!-- NextJS -->
<g id="node2" class="node">
<title>NextJS</title>
<polygon fill="lightyellow" stroke="black" points="240.61,-895.38 136.86,-895.38 136.86,-858.88 240.61,-858.88 240.61,-895.38"/>
<text text-anchor="middle" x="188.74" y="-879.98" font-family="Arial" font-size="12.00">Next.js Frontend</text>
<text text-anchor="middle" x="188.74" y="-865.73" font-family="Arial" font-size="12.00">Port 3000</text>
</g>
<!-- Browser&#45;&gt;NextJS -->
<g id="edge1" class="edge">
<title>Browser&#45;&gt;NextJS</title>
<path fill="none" stroke="black" d="M161.02,-983.58C137.34,-966.39 109.3,-939.02 124.49,-913.38 126.79,-909.48 129.69,-905.99 132.98,-902.87"/>
<polygon fill="black" stroke="black" points="135.01,-905.73 140.66,-896.77 130.65,-900.25 135.01,-905.73"/>
<text text-anchor="middle" x="178.11" y="-927.88" font-family="Arial" font-size="10.00">User types:</text>
<text text-anchor="middle" x="178.11" y="-915.88" font-family="Arial" font-size="10.00">&#39;What&#39;s my cholesterol?&#39;</text>
</g>
<!-- NextJS&#45;&gt;Browser -->
<g id="edge26" class="edge">
<title>NextJS&#45;&gt;Browser</title>
<path fill="none" stroke="black" stroke-dasharray="5,2" d="M217.52,-895.68C223.27,-900.64 228.52,-906.57 231.74,-913.38 236.3,-923.02 234.86,-927.18 231.74,-937.38 227.63,-950.78 219.64,-963.92 211.65,-974.73"/>
<polygon fill="black" stroke="black" points="209.06,-972.37 205.66,-982.4 214.57,-976.68 209.06,-972.37"/>
<text text-anchor="middle" x="268.39" y="-927.88" font-family="Arial" font-size="10.00">DOM update</text>
<text text-anchor="middle" x="268.39" y="-915.88" font-family="Arial" font-size="10.00">Show response</text>
</g>
<!-- FastAPI -->
<g id="node3" class="node">
<title>FastAPI</title>
<polygon fill="lightgreen" stroke="black" points="243.24,-786.88 134.24,-786.88 134.24,-750.38 243.24,-750.38 243.24,-786.88"/>
<text text-anchor="middle" x="188.74" y="-771.48" font-family="Arial" font-size="12.00">FastAPI Backend</text>
<text text-anchor="middle" x="188.74" y="-757.23" font-family="Arial" font-size="12.00">Port 8000</text>
</g>
<!-- NextJS&#45;&gt;FastAPI -->
<g id="edge2" class="edge">
<title>NextJS&#45;&gt;FastAPI</title>
<path fill="none" stroke="black" d="M147.49,-858.52C140.77,-853.79 134.72,-847.96 130.74,-840.88 122.89,-826.93 122.89,-818.82 130.74,-804.88 132.92,-801 135.71,-797.5 138.9,-794.35"/>
<polygon fill="black" stroke="black" points="140.86,-797.27 146.32,-788.2 136.39,-791.89 140.86,-797.27"/>
<text text-anchor="middle" x="178.74" y="-831.38" font-family="Arial" font-size="10.00">HTTP POST</text>
<text text-anchor="middle" x="178.74" y="-819.38" font-family="Arial" font-size="10.00">/api/v1/medical&#45;agent/</text>
<text text-anchor="middle" x="178.74" y="-807.38" font-family="Arial" font-size="10.00">session/123/send</text>
</g>
<!-- FastAPI&#45;&gt;NextJS -->
<g id="edge25" class="edge">
<title>FastAPI&#45;&gt;NextJS</title>
<path fill="none" stroke="blue" stroke-dasharray="5,2" d="M213.84,-787.34C219.07,-792.36 223.86,-798.28 226.74,-804.88 233.14,-819.54 233.14,-826.21 226.74,-840.88 225.34,-844.07 223.5,-847.11 221.38,-849.96"/>
<polygon fill="blue" stroke="blue" points="218.89,-847.48 214.85,-857.28 224.12,-852.14 218.89,-847.48"/>
<text text-anchor="middle" x="274.29" y="-825.38" font-family="Arial" font-size="10.00">Server&#45;Sent Events</text>
<text text-anchor="middle" x="274.29" y="-813.38" font-family="Arial" font-size="10.00">Streaming chunks</text>
</g>
<!-- Redis -->
<g id="node4" class="node">
<title>Redis</title>
<path fill="skyblue" stroke="black" d="M136.74,-673.81C136.74,-676.33 124.64,-678.38 109.74,-678.38 94.84,-678.38 82.74,-676.33 82.74,-673.81 82.74,-673.81 82.74,-632.75 82.74,-632.75 82.74,-630.23 94.84,-628.19 109.74,-628.19 124.64,-628.19 136.74,-630.23 136.74,-632.75 136.74,-632.75 136.74,-673.81 136.74,-673.81"/>
<path fill="none" stroke="black" d="M136.74,-673.81C136.74,-671.29 124.64,-669.25 109.74,-669.25 94.84,-669.25 82.74,-671.29 82.74,-673.81"/>
<text text-anchor="middle" x="109.74" y="-656.13" font-family="Arial" font-size="12.00">Redis</text>
<text text-anchor="middle" x="109.74" y="-641.88" font-family="Arial" font-size="12.00">6379</text>
</g>
<!-- FastAPI&#45;&gt;Redis -->
<g id="edge23" class="edge">
<title>FastAPI&#45;&gt;Redis</title>
<path fill="none" stroke="blue" d="M134.12,-764.5C86.67,-760.5 23.11,-751.63 7.24,-732.38 -2.94,-720.03 -1.67,-709.67 7.24,-696.38 21.53,-675.05 48.78,-664.52 71.59,-659.32"/>
<polygon fill="blue" stroke="blue" points="72.07,-662.8 81.2,-657.42 70.71,-655.93 72.07,-662.8"/>
<text text-anchor="middle" x="64.99" y="-716.88" font-family="Arial" font-size="10.00">Redis Protocol</text>
<text text-anchor="middle" x="64.99" y="-704.88" font-family="Arial" font-size="10.00">PUBLISH agent_response</text>
</g>
<!-- TusdiAI -->
<g id="node5" class="node">
<title>TusdiAI</title>
<polygon fill="lightcyan" stroke="black" points="312.11,-671.53 223.36,-671.53 223.36,-635.03 312.11,-635.03 312.11,-671.53"/>
<text text-anchor="middle" x="267.74" y="-656.13" font-family="Arial" font-size="12.00">TusdiAI Root</text>
<text text-anchor="middle" x="267.74" y="-641.88" font-family="Arial" font-size="12.00">ParallelAgent</text>
</g>
<!-- FastAPI&#45;&gt;TusdiAI -->
<g id="edge3" class="edge">
<title>FastAPI&#45;&gt;TusdiAI</title>
<path fill="none" stroke="black" d="M199.77,-749.93C211.9,-730.49 230.16,-701.37 233.74,-696.38 237.43,-691.22 241.54,-685.86 245.59,-680.75"/>
<polygon fill="black" stroke="black" points="248.19,-683.1 251.76,-673.13 242.75,-678.7 248.19,-683.1"/>
<text text-anchor="middle" x="271.24" y="-722.88" font-family="Arial" font-size="10.00">Python call</text>
<text text-anchor="middle" x="271.24" y="-710.88" font-family="Arial" font-size="10.00">Validate JWT,</text>
<text text-anchor="middle" x="271.24" y="-698.88" font-family="Arial" font-size="10.00">extract patient_id</text>
</g>
<!-- Redis&#45;&gt;FastAPI -->
<g id="edge24" class="edge">
<title>Redis&#45;&gt;FastAPI</title>
<path fill="none" stroke="blue" stroke-dasharray="5,2" d="M116.71,-678.85C122.15,-695.15 130.87,-716.39 143.24,-732.38 145.98,-735.92 149.16,-739.3 152.53,-742.47"/>
<polygon fill="blue" stroke="blue" points="150.18,-745.06 160.05,-748.91 154.73,-739.75 150.18,-745.06"/>
<text text-anchor="middle" x="175.49" y="-716.88" font-family="Arial" font-size="10.00">Redis Protocol</text>
<text text-anchor="middle" x="175.49" y="-704.88" font-family="Arial" font-size="10.00">SUBSCRIBE</text>
</g>
<!-- TusdiAI&#45;&gt;FastAPI -->
<g id="edge22" class="edge">
<title>TusdiAI&#45;&gt;FastAPI</title>
<path fill="none" stroke="black" stroke-dasharray="5,2" d="M291.01,-672.01C298.08,-678.77 304.97,-687.11 308.74,-696.38 314.76,-711.2 318.32,-719.57 308.74,-732.38 295.94,-749.47 275.27,-758.63 254.67,-763.43"/>
<polygon fill="black" stroke="black" points="254.22,-759.95 245.09,-765.33 255.58,-766.82 254.22,-759.95"/>
<text text-anchor="middle" x="358.17" y="-710.88" font-family="Arial" font-size="10.00">Combined response</text>
</g>
<!-- Triage -->
<g id="node6" class="node">
<title>Triage</title>
<polygon fill="lightcyan" stroke="black" points="180.36,-556.19 93.11,-556.19 93.11,-519.69 180.36,-519.69 180.36,-556.19"/>
<text text-anchor="middle" x="136.74" y="-540.79" font-family="Arial" font-size="12.00">TriageAgent</text>
<text text-anchor="middle" x="136.74" y="-526.54" font-family="Arial" font-size="12.00">Gemini Flash</text>
</g>
<!-- TusdiAI&#45;&gt;Triage -->
<g id="edge4" class="edge">
<title>TusdiAI&#45;&gt;Triage</title>
<path fill="none" stroke="black" d="M242.1,-634.55C232.01,-627.29 220.48,-618.62 210.49,-610.19 193.43,-595.79 175.39,-578.4 161.42,-564.41"/>
<polygon fill="black" stroke="black" points="164.29,-562.33 154.77,-557.68 159.31,-567.25 164.29,-562.33"/>
<text text-anchor="middle" x="237.11" y="-594.69" font-family="Arial" font-size="10.00">Branch 1:</text>
<text text-anchor="middle" x="237.11" y="-582.69" font-family="Arial" font-size="10.00">Route query</text>
</g>
<!-- ParallelExtract -->
<g id="node7" class="node">
<title>ParallelExtract</title>
<polygon fill="lightcyan" stroke="black" points="319.99,-555.94 215.49,-555.94 215.49,-519.94 319.99,-519.94 319.99,-555.94"/>
<text text-anchor="middle" x="267.74" y="-533.66" font-family="Arial" font-size="12.00">ParallelExtractor</text>
</g>
<!-- TusdiAI&#45;&gt;ParallelExtract -->
<g id="edge5" class="edge">
<title>TusdiAI&#45;&gt;ParallelExtract</title>
<path fill="none" stroke="black" d="M267.74,-634.57C267.74,-616.67 267.74,-588.71 267.74,-567.64"/>
<polygon fill="black" stroke="black" points="271.24,-567.67 267.74,-557.67 264.24,-567.67 271.24,-567.67"/>
<text text-anchor="middle" x="300.74" y="-600.69" font-family="Arial" font-size="10.00">Branch 2:</text>
<text text-anchor="middle" x="300.74" y="-588.69" font-family="Arial" font-size="10.00">Extract entities</text>
<text text-anchor="middle" x="300.74" y="-576.69" font-family="Arial" font-size="10.00">(background)</text>
</g>
<!-- Consultant -->
<g id="node8" class="node">
<title>Consultant</title>
<polygon fill="#ba68c8" stroke="black" points="437.99,-459.69 297.49,-459.69 297.49,-423.19 437.99,-423.19 437.99,-459.69"/>
<text text-anchor="middle" x="367.74" y="-444.29" font-family="Arial" font-size="12.00">HealthConsultantAgent</text>
<text text-anchor="middle" x="367.74" y="-430.04" font-family="Arial" font-size="12.00">Gemini Pro</text>
</g>
<!-- Triage&#45;&gt;Consultant -->
<g id="edge8" class="edge">
<title>Triage&#45;&gt;Consultant</title>
<path fill="none" stroke="black" d="M179.8,-519.3C208.59,-507.52 247.31,-491.67 281.49,-477.69 291.93,-473.42 303.09,-468.86 313.79,-464.48"/>
<polygon fill="black" stroke="black" points="314.97,-467.78 322.9,-460.76 312.32,-461.3 314.97,-467.78"/>
<text text-anchor="middle" x="315.61" y="-492.19" font-family="Arial" font-size="10.00">Python call</text>
<text text-anchor="middle" x="315.61" y="-480.19" font-family="Arial" font-size="10.00">Transfer control</text>
</g>
<!-- GeminiAPI -->
<g id="node12" class="node">
<title>GeminiAPI</title>
<polygon fill="plum" stroke="black" points="333.11,-351.19 214.36,-351.19 214.36,-315.19 333.11,-315.19 333.11,-351.19"/>
<text text-anchor="middle" x="273.74" y="-328.91" font-family="Arial" font-size="12.00">Google Gemini API</text>
</g>
<!-- Triage&#45;&gt;GeminiAPI -->
<g id="edge6" class="edge">
<title>Triage&#45;&gt;GeminiAPI</title>
<path fill="none" stroke="black" d="M97.43,-519.26C57.71,-498.72 5.18,-462.59 27.74,-423.19 62.19,-363.02 143.03,-342.96 202.69,-336.57"/>
<polygon fill="black" stroke="black" points="202.81,-340.08 212.43,-335.64 202.14,-333.11 202.81,-340.08"/>
<text text-anchor="middle" x="69.74" y="-443.94" font-family="Arial" font-size="10.00">HTTPS</text>
<text text-anchor="middle" x="69.74" y="-431.94" font-family="Arial" font-size="10.00">Analyze query type</text>
</g>
<!-- Consultant&#45;&gt;TusdiAI -->
<g id="edge21" class="edge">
<title>Consultant&#45;&gt;TusdiAI</title>
<path fill="none" stroke="black" stroke-dasharray="5,2" d="M369.1,-460.13C370.72,-492.81 369.88,-563.53 337.74,-610.19 332.87,-617.25 326.4,-623.32 319.35,-628.48"/>
<polygon fill="black" stroke="black" points="317.87,-625.27 311.46,-633.7 321.73,-631.11 317.87,-625.27"/>
<text text-anchor="middle" x="410.66" y="-534.44" font-family="Arial" font-size="10.00">Response complete</text>
</g>
<!-- QueryGraphTool -->
<g id="node9" class="node">
<title>QueryGraphTool</title>
<polygon fill="wheat" stroke="black" points="572.24,-170.69 463.24,-170.69 463.24,-134.19 572.24,-134.19 572.24,-170.69"/>
<text text-anchor="middle" x="517.74" y="-155.29" font-family="Arial" font-size="12.00">query_graph Tool</text>
<text text-anchor="middle" x="517.74" y="-141.04" font-family="Arial" font-size="12.00">Python function</text>
</g>
<!-- Consultant&#45;&gt;QueryGraphTool -->
<g id="edge11" class="edge">
<title>Consultant&#45;&gt;QueryGraphTool</title>
<path fill="none" stroke="red" stroke-width="2" d="M438.35,-434.39C490.27,-428.88 555.66,-419.41 578.74,-405.19 629.36,-373.98 639.27,-353.72 657.74,-297.19 674.94,-244.53 616.75,-201.82 570.19,-177.02"/>
<polygon fill="red" stroke="red" stroke-width="2" points="571.85,-173.94 561.35,-172.49 568.65,-180.17 571.85,-173.94"/>
<text text-anchor="middle" x="721.58" y="-287.69" font-family="Arial" font-size="10.00">Python call</text>
<text text-anchor="middle" x="721.58" y="-275.69" font-family="Arial" font-size="10.00">DIRECT FUNCTION CALL</text>
</g>
<!-- Consultant&#45;&gt;GeminiAPI -->
<g id="edge9" class="edge">
<title>Consultant&#45;&gt;GeminiAPI</title>
<path fill="none" stroke="black" d="M426.03,-422.91C433.43,-418.29 440.05,-412.49 444.74,-405.19 453.38,-391.72 454.85,-381.58 444.74,-369.19 431.95,-353.52 386.03,-344.68 344.99,-339.8"/>
<polygon fill="black" stroke="black" points="345.4,-336.33 335.08,-338.7 344.63,-343.28 345.4,-336.33"/>
<text text-anchor="middle" x="493.03" y="-389.69" font-family="Arial" font-size="10.00">HTTPS</text>
<text text-anchor="middle" x="493.03" y="-377.69" font-family="Arial" font-size="10.00">Need patient data?</text>
</g>
<!-- Consultant&#45;&gt;GeminiAPI -->
<g id="edge19" class="edge">
<title>Consultant&#45;&gt;GeminiAPI</title>
<path fill="none" stroke="black" d="M297.37,-436.47C250.29,-432.17 194.28,-423.31 179.24,-405.19 169.02,-392.88 170.1,-382.32 179.24,-369.19 185.39,-360.34 194.06,-353.73 203.67,-348.78"/>
<polygon fill="black" stroke="black" points="204.86,-352.08 212.58,-344.82 202.02,-345.68 204.86,-352.08"/>
<text text-anchor="middle" x="220.49" y="-395.69" font-family="Arial" font-size="10.00">HTTPS</text>
<text text-anchor="middle" x="220.49" y="-383.69" font-family="Arial" font-size="10.00">Generate response</text>
<text text-anchor="middle" x="220.49" y="-371.69" font-family="Arial" font-size="10.00">with data</text>
</g>
<!-- QueryGraphTool&#45;&gt;Consultant -->
<g id="edge18" class="edge">
<title>QueryGraphTool&#45;&gt;Consultant</title>
<path fill="none" stroke="black" stroke-dasharray="5,2" d="M533.32,-170.93C537.15,-176.27 540.73,-182.4 542.74,-188.69 544.36,-193.77 542.79,-195.35 542.74,-200.69 541.85,-291.59 596.85,-335.28 538.74,-405.19 526.92,-419.4 487.55,-428.07 449.57,-433.26"/>
<polygon fill="black" stroke="black" points="449.36,-429.75 439.89,-434.5 450.25,-436.7 449.36,-429.75"/>
<text text-anchor="middle" x="604.95" y="-281.69" font-family="Arial" font-size="10.00">Formatted markdown</text>
</g>
<!-- CypherAgent -->
<g id="node10" class="node">
<title>CypherAgent</title>
<polygon fill="lightcyan" stroke="black" points="406.36,-255.19 319.11,-255.19 319.11,-218.69 406.36,-218.69 406.36,-255.19"/>
<text text-anchor="middle" x="362.74" y="-239.79" font-family="Arial" font-size="12.00">CypherAgent</text>
<text text-anchor="middle" x="362.74" y="-225.54" font-family="Arial" font-size="12.00">Gemini Flash</text>
</g>
<!-- QueryGraphTool&#45;&gt;CypherAgent -->
<g id="edge12" class="edge">
<title>QueryGraphTool&#45;&gt;CypherAgent</title>
<path fill="none" stroke="black" d="M462.93,-165.26C444.6,-170.68 424.62,-178.29 407.99,-188.69 398.79,-194.44 390.16,-202.47 382.96,-210.28"/>
<polygon fill="black" stroke="black" points="380.67,-207.58 376.73,-217.42 385.94,-212.18 380.67,-207.58"/>
<text text-anchor="middle" x="432.36" y="-191.19" font-family="Arial" font-size="10.00">Python call</text>
</g>
<!-- Neo4j -->
<g id="node11" class="node">
<title>Neo4j</title>
<path fill="skyblue" stroke="black" d="M554.24,-45.62C554.24,-48.14 537.88,-50.19 517.74,-50.19 497.6,-50.19 481.24,-48.14 481.24,-45.62 481.24,-45.62 481.24,-4.56 481.24,-4.56 481.24,-2.04 497.6,0 517.74,0 537.88,0 554.24,-2.04 554.24,-4.56 554.24,-4.56 554.24,-45.62 554.24,-45.62"/>
<path fill="none" stroke="black" d="M554.24,-45.62C554.24,-43.11 537.88,-41.06 517.74,-41.06 497.6,-41.06 481.24,-43.11 481.24,-45.62"/>
<text text-anchor="middle" x="517.74" y="-27.94" font-family="Arial" font-size="12.00">Neo4j</text>
<text text-anchor="middle" x="517.74" y="-13.69" font-family="Arial" font-size="12.00">7474/7687</text>
</g>
<!-- QueryGraphTool&#45;&gt;Neo4j -->
<g id="edge16" class="edge">
<title>QueryGraphTool&#45;&gt;Neo4j</title>
<path fill="none" stroke="black" d="M480.95,-133.82C474.53,-129.03 468.73,-123.18 464.99,-116.19 454.93,-97.37 455.73,-87.41 464.99,-68.19 467.05,-63.91 469.77,-59.94 472.91,-56.27"/>
<polygon fill="black" stroke="black" points="475.2,-58.93 479.76,-49.37 470.23,-54 475.2,-58.93"/>
<text text-anchor="middle" x="507.36" y="-94.69" font-family="Arial" font-size="10.00">Neo4j Bolt Protocol</text>
<text text-anchor="middle" x="507.36" y="-82.69" font-family="Arial" font-size="10.00">Execute query</text>
</g>
<!-- CypherAgent&#45;&gt;QueryGraphTool -->
<g id="edge15" class="edge">
<title>CypherAgent&#45;&gt;QueryGraphTool</title>
<path fill="none" stroke="black" stroke-dasharray="5,2" d="M406.53,-222.59C422.78,-216.85 441.06,-209.43 456.74,-200.69 468.11,-194.34 479.65,-186 489.58,-178.09"/>
<polygon fill="black" stroke="black" points="491.51,-181.03 497.03,-171.98 487.07,-175.62 491.51,-181.03"/>
<text text-anchor="middle" x="506.46" y="-191.19" font-family="Arial" font-size="10.00">Return Cypher</text>
</g>
<!-- CypherAgent&#45;&gt;GeminiAPI -->
<g id="edge13" class="edge">
<title>CypherAgent&#45;&gt;GeminiAPI</title>
<path fill="none" stroke="black" d="M318.99,-246.29C303.68,-251.46 287.92,-259.79 278.24,-273.19 271.98,-281.84 270.07,-293.18 269.99,-303.61"/>
<polygon fill="black" stroke="black" points="266.48,-303.49 270.49,-313.3 273.47,-303.13 266.48,-303.49"/>
<text text-anchor="middle" x="307.49" y="-287.69" font-family="Arial" font-size="10.00">HTTPS</text>
<text text-anchor="middle" x="307.49" y="-275.69" font-family="Arial" font-size="10.00">NL to Cypher</text>
</g>
<!-- Neo4j&#45;&gt;QueryGraphTool -->
<g id="edge17" class="edge">
<title>Neo4j&#45;&gt;QueryGraphTool</title>
<path fill="none" stroke="black" stroke-dasharray="5,2" d="M540.3,-50.36C544.17,-55.85 547.63,-61.92 549.74,-68.19 556.55,-88.4 557.42,-96.29 549.74,-116.19 548.56,-119.22 547,-122.16 545.18,-124.95"/>
<polygon fill="black" stroke="black" points="542.57,-122.61 539.2,-132.66 548.1,-126.9 542.57,-122.61"/>
<text text-anchor="middle" x="591.55" y="-106.69" font-family="Arial" font-size="10.00">Results:</text>
<text text-anchor="middle" x="591.55" y="-94.69" font-family="Arial" font-size="10.00">Total: 185 mg/dL</text>
<text text-anchor="middle" x="591.55" y="-82.69" font-family="Arial" font-size="10.00">LDL: 110 mg/dL</text>
<text text-anchor="middle" x="591.55" y="-70.69" font-family="Arial" font-size="10.00">date: 2024&#45;12&#45;15</text>
</g>
<!-- GeminiAPI&#45;&gt;Triage -->
<g id="edge7" class="edge">
<title>GeminiAPI&#45;&gt;Triage</title>
<path fill="none" stroke="black" stroke-dasharray="5,2" d="M213.95,-342.17C196.81,-347.27 179.58,-355.61 167.74,-369.19 133.98,-407.89 131.73,-471.12 133.79,-507.9"/>
<polygon fill="black" stroke="black" points="130.29,-508.06 134.51,-517.78 137.28,-507.55 130.29,-508.06"/>
<text text-anchor="middle" x="174.61" y="-443.94" font-family="Arial" font-size="10.00">Classification:</text>
<text text-anchor="middle" x="174.61" y="-431.94" font-family="Arial" font-size="10.00">Patient&#45;specific</text>
</g>
<!-- GeminiAPI&#45;&gt;Consultant -->
<g id="edge10" class="edge">
<title>GeminiAPI&#45;&gt;Consultant</title>
<path fill="none" stroke="black" stroke-dasharray="5,2" d="M268.74,-351.6C265.41,-367.08 263.38,-389.61 274.24,-405.19 277.89,-410.44 282.44,-414.9 287.54,-418.71"/>
<polygon fill="black" stroke="black" points="285.65,-421.65 295.97,-424.05 289.39,-415.74 285.65,-421.65"/>
<text text-anchor="middle" x="310.99" y="-389.69" font-family="Arial" font-size="10.00">Decision:</text>
<text text-anchor="middle" x="310.99" y="-377.69" font-family="Arial" font-size="10.00">Call query_graph</text>
</g>
<!-- GeminiAPI&#45;&gt;Consultant -->
<g id="edge20" class="edge">
<title>GeminiAPI&#45;&gt;Consultant</title>
<path fill="none" stroke="black" stroke-dasharray="5,2" d="M325.52,-351.57C333.83,-356.22 341.68,-362.02 347.74,-369.19 357.71,-381 362.73,-397.44 365.24,-411.56"/>
<polygon fill="black" stroke="black" points="361.74,-411.81 366.61,-421.22 368.67,-410.83 361.74,-411.81"/>
<text text-anchor="middle" x="400.7" y="-389.69" font-family="Arial" font-size="10.00">Natural language</text>
<text text-anchor="middle" x="400.7" y="-377.69" font-family="Arial" font-size="10.00">response</text>
</g>
<!-- GeminiAPI&#45;&gt;CypherAgent -->
<g id="edge14" class="edge">
<title>GeminiAPI&#45;&gt;CypherAgent</title>
<path fill="none" stroke="black" stroke-dasharray="5,2" d="M314.21,-314.85C322.4,-310 330.42,-304.13 336.74,-297.19 344.76,-288.37 350.6,-276.68 354.69,-266.02"/>
<polygon fill="black" stroke="black" points="357.89,-267.46 357.84,-256.87 351.28,-265.18 357.89,-267.46"/>
<text text-anchor="middle" x="380.86" y="-281.69" font-family="Arial" font-size="10.00">Cypher query</text>
</g>
<!-- TimingNote -->
<g id="node13" class="node">
<title>TimingNote</title>
<polygon fill="lightyellow" stroke="black" stroke-dasharray="5,2" points="402.61,-1048.62 250.86,-1048.62 250.86,-955.38 408.61,-955.38 408.61,-1042.62 402.61,-1048.62"/>
<polyline fill="none" stroke="black" stroke-dasharray="5,2" points="402.61,-1048.62 402.61,-1042.62"/>
<polyline fill="none" stroke="black" stroke-dasharray="5,2" points="408.61,-1042.62 402.61,-1042.62"/>
<text text-anchor="middle" x="329.74" y="-1033.22" font-family="Arial" font-size="12.00">Key Timings:</text>
<text text-anchor="middle" x="329.74" y="-1018.98" font-family="Arial" font-size="12.00">&#45; Routing: &lt;1s</text>
<text text-anchor="middle" x="329.74" y="-1004.73" font-family="Arial" font-size="12.00">&#45; Pro model + query: 2&#45;3s</text>
<text text-anchor="middle" x="329.74" y="-990.48" font-family="Arial" font-size="12.00">&#45; Response delivery: &lt;0.5s</text>
<text text-anchor="middle" x="329.74" y="-962.23" font-family="Arial" font-size="12.00">Total: 3&#45;5s end&#45;to&#45;end</text>
</g>
</g>
</svg>
