<?xml version="1.0" encoding="UTF-8" standalone="no"?>
<!DOCTYPE svg PUBLIC "-//W3C//DTD SVG 1.1//EN"
 "http://www.w3.org/Graphics/SVG/1.1/DTD/svg11.dtd">
<!-- Generated by graphviz version 12.2.1 (0)
 -->
<!-- Title: DocumentProcessing Pages: 1 -->
<svg width="557pt" height="724pt"
 viewBox="0.00 0.00 556.61 723.56" xmlns="http://www.w3.org/2000/svg" xmlns:xlink="http://www.w3.org/1999/xlink">
<g id="graph0" class="graph" transform="scale(1 1) rotate(0) translate(4 719.56)">
<title>DocumentProcessing</title>
<polygon fill="#f5f5f5" stroke="none" points="-4,4 -4,-719.56 552.61,-719.56 552.61,4 -4,4"/>
<!-- Browser -->
<g id="node1" class="node">
<title>Browser</title>
<polygon fill="lightblue" stroke="black" points="283.62,-715.31 195.62,-715.31 195.62,-679.31 283.62,-679.31 283.62,-715.31"/>
<text text-anchor="middle" x="239.62" y="-693.04" font-family="Arial" font-size="12.00">Web Browser</text>
</g>
<!-- NextJS -->
<g id="node2" class="node">
<title>NextJS</title>
<polygon fill="lightyellow" stroke="black" points="291.5,-619.06 187.75,-619.06 187.75,-582.56 291.5,-582.56 291.5,-619.06"/>
<text text-anchor="middle" x="239.62" y="-603.66" font-family="Arial" font-size="12.00">Next.js Frontend</text>
<text text-anchor="middle" x="239.62" y="-589.41" font-family="Arial" font-size="12.00">Port 3000</text>
</g>
<!-- Browser&#45;&gt;NextJS -->
<g id="edge1" class="edge">
<title>Browser&#45;&gt;NextJS</title>
<path fill="none" stroke="black" d="M204.55,-678.89C198.15,-674.04 192.32,-668.12 188.62,-661.06 183.67,-651.62 183.67,-646.51 188.62,-637.06 190.56,-633.37 193.09,-629.98 195.97,-626.9"/>
<polygon fill="black" stroke="black" points="198.06,-629.72 203.17,-620.44 193.39,-624.51 198.06,-629.72"/>
<text text-anchor="middle" x="229.12" y="-645.56" font-family="Arial" font-size="10.00">User uploads PDF</text>
</g>
<!-- NextJS&#45;&gt;Browser -->
<g id="edge23" class="edge">
<title>NextJS&#45;&gt;Browser</title>
<path fill="none" stroke="black" stroke-dasharray="5,2" d="M258.59,-619.22C263.07,-624.47 267.24,-630.58 269.62,-637.06 273.31,-647.07 273.31,-651.05 269.62,-661.06 268.51,-664.1 267,-667.06 265.25,-669.88"/>
<polygon fill="black" stroke="black" points="262.61,-667.56 259.48,-677.69 268.24,-671.72 262.61,-667.56"/>
<text text-anchor="middle" x="310.26" y="-651.56" font-family="Arial" font-size="10.00">UI update</text>
<text text-anchor="middle" x="310.26" y="-639.56" font-family="Arial" font-size="10.00">Show biomarkers</text>
</g>
<!-- FileStorageAPI -->
<g id="node4" class="node">
<title>FileStorageAPI</title>
<polygon fill="wheat" stroke="black" points="140.5,-510.56 36.75,-510.56 36.75,-474.56 140.5,-474.56 140.5,-510.56"/>
<text text-anchor="middle" x="88.62" y="-488.29" font-family="Arial" font-size="12.00">File Storage API</text>
</g>
<!-- NextJS&#45;&gt;FileStorageAPI -->
<g id="edge2" class="edge">
<title>NextJS&#45;&gt;FileStorageAPI</title>
<path fill="none" stroke="black" d="M187.51,-594.36C149.25,-589.17 101.9,-579.84 89.62,-564.56 80.27,-552.93 79.54,-536.41 81.37,-522.24"/>
<polygon fill="black" stroke="black" points="84.79,-522.99 83.11,-512.53 77.9,-521.76 84.79,-522.99"/>
<text text-anchor="middle" x="119.62" y="-555.06" font-family="Arial" font-size="10.00">HTTP POST</text>
<text text-anchor="middle" x="119.62" y="-543.06" font-family="Arial" font-size="10.00">/files/upload</text>
<text text-anchor="middle" x="119.62" y="-531.06" font-family="Arial" font-size="10.00">Multipart form</text>
</g>
<!-- DocProcAPI -->
<g id="node5" class="node">
<title>DocProcAPI</title>
<polygon fill="wheat" stroke="black" points="393.12,-510.56 308.12,-510.56 308.12,-474.56 393.12,-474.56 393.12,-510.56"/>
<text text-anchor="middle" x="350.62" y="-488.29" font-family="Arial" font-size="12.00">DocProc API</text>
</g>
<!-- NextJS&#45;&gt;DocProcAPI -->
<g id="edge7" class="edge">
<title>NextJS&#45;&gt;DocProcAPI</title>
<path fill="none" stroke="black" d="M234.72,-582.16C231.5,-566.51 229.73,-543.83 241.12,-528.56 254.18,-511.07 276.06,-502.14 296.84,-497.64"/>
<polygon fill="black" stroke="black" points="297.19,-501.14 306.4,-495.9 295.93,-494.25 297.19,-501.14"/>
<text text-anchor="middle" x="283.88" y="-555.06" font-family="Arial" font-size="10.00">HTTP POST</text>
<text text-anchor="middle" x="283.88" y="-543.06" font-family="Arial" font-size="10.00">/process_document</text>
<text text-anchor="middle" x="283.88" y="-531.06" font-family="Arial" font-size="10.00">file_id</text>
</g>
<!-- FastAPI -->
<g id="node3" class="node">
<title>FastAPI</title>
<polygon fill="lightgreen" stroke="black" points="411.12,-715.56 302.12,-715.56 302.12,-679.06 411.12,-679.06 411.12,-715.56"/>
<text text-anchor="middle" x="356.62" y="-700.16" font-family="Arial" font-size="12.00">FastAPI Backend</text>
<text text-anchor="middle" x="356.62" y="-685.91" font-family="Arial" font-size="12.00">Port 8000</text>
</g>
<!-- FileStorageAPI&#45;&gt;NextJS -->
<g id="edge6" class="edge">
<title>FileStorageAPI&#45;&gt;NextJS</title>
<path fill="none" stroke="black" stroke-dasharray="5,2" d="M123.01,-510.95C132.01,-516.12 141.47,-522.14 149.62,-528.56 166.91,-542.18 166.62,-550.59 183.62,-564.56 188.4,-568.48 193.63,-572.31 198.93,-575.91"/>
<polygon fill="black" stroke="black" points="196.88,-578.76 207.17,-581.29 200.71,-572.9 196.88,-578.76"/>
<text text-anchor="middle" x="206.12" y="-549.06" font-family="Arial" font-size="10.00">HTTP 200</text>
<text text-anchor="middle" x="206.12" y="-537.06" font-family="Arial" font-size="10.00">file_id</text>
</g>
<!-- GCS -->
<g id="node9" class="node">
<title>GCS</title>
<path fill="lavender" stroke="black" d="M135.25,-289.1C135.25,-290.91 104.94,-292.38 67.62,-292.38 30.31,-292.38 0,-290.91 0,-289.1 0,-289.1 0,-259.65 0,-259.65 0,-257.84 30.31,-256.38 67.62,-256.38 104.94,-256.38 135.25,-257.84 135.25,-259.65 135.25,-259.65 135.25,-289.1 135.25,-289.1"/>
<path fill="none" stroke="black" d="M135.25,-289.1C135.25,-287.3 104.94,-285.83 67.62,-285.83 30.31,-285.83 0,-287.3 0,-289.1"/>
<text text-anchor="middle" x="67.62" y="-270.1" font-family="Arial" font-size="12.00">Google Cloud Storage</text>
</g>
<!-- FileStorageAPI&#45;&gt;GCS -->
<g id="edge3" class="edge">
<title>FileStorageAPI&#45;&gt;GCS</title>
<path fill="none" stroke="black" d="M73.56,-474.33C61.74,-459.6 46.23,-437.23 39.62,-414.56 28.55,-376.54 42.41,-331.42 54.26,-303.08"/>
<polygon fill="black" stroke="black" points="57.38,-304.69 58.2,-294.13 50.97,-301.87 57.38,-304.69"/>
<text text-anchor="middle" x="69.62" y="-391.97" font-family="Arial" font-size="10.00">GCS API</text>
<text text-anchor="middle" x="69.62" y="-379.97" font-family="Arial" font-size="10.00">Upload binary</text>
</g>
<!-- Postgres -->
<g id="node10" class="node">
<title>Postgres</title>
<path fill="skyblue" stroke="black" d="M190.25,-410C190.25,-412.52 172.04,-414.56 149.62,-414.56 127.21,-414.56 109,-412.52 109,-410 109,-410 109,-368.94 109,-368.94 109,-366.42 127.21,-364.38 149.62,-364.38 172.04,-364.38 190.25,-366.42 190.25,-368.94 190.25,-368.94 190.25,-410 190.25,-410"/>
<path fill="none" stroke="black" d="M190.25,-410C190.25,-407.48 172.04,-405.44 149.62,-405.44 127.21,-405.44 109,-407.48 109,-410"/>
<text text-anchor="middle" x="149.62" y="-392.32" font-family="Arial" font-size="12.00">PostgreSQL</text>
<text text-anchor="middle" x="149.62" y="-378.07" font-family="Arial" font-size="12.00">5432</text>
</g>
<!-- FileStorageAPI&#45;&gt;Postgres -->
<g id="edge4" class="edge">
<title>FileStorageAPI&#45;&gt;Postgres</title>
<path fill="none" stroke="black" d="M82.74,-474.24C79.63,-461.89 77.71,-445.28 84.62,-432.56 88.29,-425.82 93.56,-419.99 99.53,-415"/>
<polygon fill="black" stroke="black" points="101.46,-417.92 107.45,-409.18 97.32,-412.28 101.46,-417.92"/>
<text text-anchor="middle" x="128.12" y="-447.06" font-family="Arial" font-size="10.00">PostgreSQL</text>
<text text-anchor="middle" x="128.12" y="-435.06" font-family="Arial" font-size="10.00">INSERT FileRecord</text>
</g>
<!-- DocProcAPI&#45;&gt;NextJS -->
<g id="edge8" class="edge">
<title>DocProcAPI&#45;&gt;NextJS</title>
<path fill="none" stroke="blue" d="M348.87,-510.84C346.41,-526.66 340.55,-549.79 326.62,-564.56 319.8,-571.8 311.29,-577.59 302.28,-582.21"/>
<polygon fill="blue" stroke="blue" points="300.96,-578.96 293.33,-586.32 303.88,-585.33 300.96,-578.96"/>
<text text-anchor="middle" x="374.94" y="-549.06" font-family="Arial" font-size="10.00">SSE stream</text>
<text text-anchor="middle" x="374.94" y="-537.06" font-family="Arial" font-size="10.00">/tasks/stream</text>
</g>
<!-- DocProcAPI&#45;&gt;NextJS -->
<g id="edge22" class="edge">
<title>DocProcAPI&#45;&gt;NextJS</title>
<path fill="none" stroke="blue" stroke-dasharray="5,2" d="M391.87,-510.99C398.58,-515.7 404.64,-521.5 408.62,-528.56 416.49,-542.5 418.72,-552.15 408.62,-564.56 395.29,-580.97 345.34,-590 303.17,-594.8"/>
<polygon fill="blue" stroke="blue" points="302.88,-591.31 293.3,-595.85 303.62,-598.27 302.88,-591.31"/>
<text text-anchor="middle" x="448.38" y="-543.06" font-family="Arial" font-size="10.00">SSE: complete</text>
</g>
<!-- ExtractionPipeline -->
<g id="node6" class="node">
<title>ExtractionPipeline</title>
<polygon fill="wheat" stroke="black" points="324.88,-407.47 208.38,-407.47 208.38,-371.47 324.88,-371.47 324.88,-407.47"/>
<text text-anchor="middle" x="266.62" y="-385.19" font-family="Arial" font-size="12.00">Extraction Pipeline</text>
</g>
<!-- DocProcAPI&#45;&gt;ExtractionPipeline -->
<g id="edge9" class="edge">
<title>DocProcAPI&#45;&gt;ExtractionPipeline</title>
<path fill="none" stroke="black" d="M308.05,-486.31C289.5,-481.67 269.45,-472.95 258.12,-456.56 250.57,-445.63 251.51,-431.21 254.83,-418.62"/>
<polygon fill="black" stroke="black" points="258.14,-419.77 257.92,-409.17 251.49,-417.6 258.14,-419.77"/>
<text text-anchor="middle" x="294.88" y="-447.06" font-family="Arial" font-size="10.00">Background task</text>
<text text-anchor="middle" x="294.88" y="-435.06" font-family="Arial" font-size="10.00">Python asyncio</text>
</g>
<!-- ExtractionPipeline&#45;&gt;DocProcAPI -->
<g id="edge20" class="edge">
<title>ExtractionPipeline&#45;&gt;DocProcAPI</title>
<path fill="none" stroke="blue" stroke-dasharray="1,5" d="M302.87,-407.86C313.36,-414.37 324.02,-422.64 331.62,-432.56 338.38,-441.38 342.77,-452.67 345.62,-463.01"/>
<polygon fill="blue" stroke="blue" points="342.18,-463.68 347.86,-472.63 349,-462.09 342.18,-463.68"/>
<text text-anchor="middle" x="379.28" y="-441.06" font-family="Arial" font-size="10.00">Progress events</text>
</g>
<!-- MedicalDataEngine -->
<g id="node7" class="node">
<title>MedicalDataEngine</title>
<polygon fill="palegreen" stroke="black" points="421.5,-292.38 293.75,-292.38 293.75,-256.38 421.5,-256.38 421.5,-292.38"/>
<text text-anchor="middle" x="357.62" y="-270.1" font-family="Arial" font-size="12.00">Medical Data Engine</text>
</g>
<!-- ExtractionPipeline&#45;&gt;MedicalDataEngine -->
<g id="edge13" class="edge">
<title>ExtractionPipeline&#45;&gt;MedicalDataEngine</title>
<path fill="none" stroke="black" d="M294.16,-371.13C303.66,-364.24 313.86,-355.71 321.62,-346.38 332.29,-333.54 340.9,-317.02 347.03,-303.15"/>
<polygon fill="black" stroke="black" points="350.18,-304.68 350.81,-294.11 343.72,-301.98 350.18,-304.68"/>
<text text-anchor="middle" x="405.43" y="-330.88" font-family="Arial" font-size="10.00">Python call</text>
<text text-anchor="middle" x="405.43" y="-318.88" font-family="Arial" font-size="10.00">process_raw_medical_data()</text>
</g>
<!-- ExtractionPipeline&#45;&gt;GCS -->
<g id="edge10" class="edge">
<title>ExtractionPipeline&#45;&gt;GCS</title>
<path fill="none" stroke="black" d="M221.17,-371C214.02,-368.58 206.67,-366.28 199.62,-364.38 157.08,-352.88 137.19,-373.06 102.12,-346.38 88.39,-335.93 79.82,-318.58 74.66,-303.65"/>
<polygon fill="black" stroke="black" points="78.07,-302.84 71.79,-294.3 71.38,-304.89 78.07,-302.84"/>
<text text-anchor="middle" x="122.38" y="-330.88" font-family="Arial" font-size="10.00">GCS API</text>
<text text-anchor="middle" x="122.38" y="-318.88" font-family="Arial" font-size="10.00">Fetch file</text>
</g>
<!-- GeminiAPI -->
<g id="node13" class="node">
<title>GeminiAPI</title>
<polygon fill="plum" stroke="black" points="275,-292.38 156.25,-292.38 156.25,-256.38 275,-256.38 275,-292.38"/>
<text text-anchor="middle" x="215.62" y="-270.1" font-family="Arial" font-size="12.00">Google Gemini API</text>
</g>
<!-- ExtractionPipeline&#45;&gt;GeminiAPI -->
<g id="edge11" class="edge">
<title>ExtractionPipeline&#45;&gt;GeminiAPI</title>
<path fill="none" stroke="black" d="M218.81,-371.08C188.03,-359.83 153.65,-347.14 153.12,-346.38 143.99,-333.24 145.03,-324.18 153.12,-310.38 155.43,-306.44 158.35,-302.92 161.67,-299.77"/>
<polygon fill="black" stroke="black" points="163.77,-302.58 169.43,-293.62 159.42,-297.09 163.77,-302.58"/>
<text text-anchor="middle" x="194.38" y="-336.88" font-family="Arial" font-size="10.00">HTTPS</text>
<text text-anchor="middle" x="194.38" y="-324.88" font-family="Arial" font-size="10.00">Vision API</text>
<text text-anchor="middle" x="194.38" y="-312.88" font-family="Arial" font-size="10.00">Extract biomarkers</text>
</g>
<!-- MedicalDataEngine&#45;&gt;DocProcAPI -->
<g id="edge21" class="edge">
<title>MedicalDataEngine&#45;&gt;DocProcAPI</title>
<path fill="none" stroke="blue" stroke-dasharray="1,5" d="M421.71,-280.57C440.83,-285.47 459.81,-294.39 471.62,-310.38 481.13,-323.24 475.18,-330.78 471.62,-346.38 459.54,-399.36 456.53,-417.62 418.62,-456.56 414.06,-461.26 408.72,-465.44 403.09,-469.14"/>
<polygon fill="blue" stroke="blue" points="401.51,-466 394.71,-474.13 405.09,-472.02 401.51,-466"/>
<text text-anchor="middle" x="501.67" y="-385.97" font-family="Arial" font-size="10.00">Complete event</text>
</g>
<!-- MedicalCatalog -->
<g id="node8" class="node">
<title>MedicalCatalog</title>
<polygon fill="lightpink" stroke="black" points="322.12,-153.53 219.12,-153.53 219.12,-117.03 322.12,-117.03 322.12,-153.53"/>
<text text-anchor="middle" x="270.62" y="-138.13" font-family="Arial" font-size="12.00">Medical Catalog</text>
<text text-anchor="middle" x="270.62" y="-123.88" font-family="Arial" font-size="12.00">Port 8001</text>
</g>
<!-- MedicalDataEngine&#45;&gt;MedicalCatalog -->
<g id="edge14" class="edge">
<title>MedicalDataEngine&#45;&gt;MedicalCatalog</title>
<path fill="none" stroke="black" d="M293.51,-258.37C290.17,-257.67 286.86,-257 283.62,-256.38 258.77,-251.54 187.55,-257.64 171.12,-238.38 153.82,-218.08 156.39,-200.6 171.12,-178.38 179.84,-165.23 193.56,-156.18 208.07,-149.95"/>
<polygon fill="black" stroke="black" points="209.19,-153.26 217.29,-146.43 206.7,-146.72 209.19,-153.26"/>
<text text-anchor="middle" x="227.38" y="-210.88" font-family="Arial" font-size="10.00">HTTP POST</text>
<text text-anchor="middle" x="227.38" y="-198.88" font-family="Arial" font-size="10.00">/biomarkers/search_batch</text>
</g>
<!-- Neo4j -->
<g id="node11" class="node">
<title>Neo4j</title>
<path fill="skyblue" stroke="black" d="M479.12,-155.81C479.12,-158.33 462.77,-160.38 442.62,-160.38 422.48,-160.38 406.12,-158.33 406.12,-155.81 406.12,-155.81 406.12,-114.75 406.12,-114.75 406.12,-112.23 422.48,-110.19 442.62,-110.19 462.77,-110.19 479.12,-112.23 479.12,-114.75 479.12,-114.75 479.12,-155.81 479.12,-155.81"/>
<path fill="none" stroke="black" d="M479.12,-155.81C479.12,-153.29 462.77,-151.25 442.62,-151.25 422.48,-151.25 406.12,-153.29 406.12,-155.81"/>
<text text-anchor="middle" x="442.62" y="-138.13" font-family="Arial" font-size="12.00">Neo4j</text>
<text text-anchor="middle" x="442.62" y="-123.88" font-family="Arial" font-size="12.00">7474/7687</text>
</g>
<!-- MedicalDataEngine&#45;&gt;Neo4j -->
<g id="edge18" class="edge">
<title>MedicalDataEngine&#45;&gt;Neo4j</title>
<path fill="none" stroke="black" d="M373.87,-256.05C378.39,-250.65 383.04,-244.51 386.62,-238.38 401.04,-213.72 395.55,-203.22 409.62,-178.38 411.31,-175.4 413.19,-172.41 415.18,-169.47"/>
<polygon fill="black" stroke="black" points="417.87,-171.72 420.9,-161.57 412.2,-167.62 417.87,-171.72"/>
<text text-anchor="middle" x="454.62" y="-228.88" font-family="Arial" font-size="10.00">Neo4j Bolt Protocol</text>
<text text-anchor="middle" x="454.62" y="-216.88" font-family="Arial" font-size="10.00">CREATE nodes:</text>
<text text-anchor="middle" x="454.62" y="-204.88" font-family="Arial" font-size="10.00">DocumentReference</text>
<text text-anchor="middle" x="454.62" y="-192.88" font-family="Arial" font-size="10.00">ObservationType</text>
<text text-anchor="middle" x="454.62" y="-180.88" font-family="Arial" font-size="10.00">ObservationValue</text>
</g>
<!-- MedicalCatalog&#45;&gt;MedicalDataEngine -->
<g id="edge17" class="edge">
<title>MedicalCatalog&#45;&gt;MedicalDataEngine</title>
<path fill="none" stroke="black" stroke-dasharray="5,2" d="M276,-153.7C284.89,-182.39 301.8,-236.64 303.12,-238.38 306.17,-242.35 309.8,-246 313.73,-249.32"/>
<polygon fill="black" stroke="black" points="311.37,-251.92 321.47,-255.14 315.58,-246.33 311.37,-251.92"/>
<text text-anchor="middle" x="342.88" y="-210.88" font-family="Arial" font-size="10.00">HTTP 200</text>
<text text-anchor="middle" x="342.88" y="-198.88" font-family="Arial" font-size="10.00">catalog_id, names</text>
</g>
<!-- Qdrant -->
<g id="node12" class="node">
<title>Qdrant</title>
<path fill="skyblue" stroke="black" d="M297.62,-45.62C297.62,-48.14 285.52,-50.19 270.62,-50.19 255.73,-50.19 243.62,-48.14 243.62,-45.62 243.62,-45.62 243.62,-4.56 243.62,-4.56 243.62,-2.04 255.73,0 270.62,0 285.52,0 297.62,-2.04 297.62,-4.56 297.62,-4.56 297.62,-45.62 297.62,-45.62"/>
<path fill="none" stroke="black" d="M297.62,-45.62C297.62,-43.11 285.52,-41.06 270.62,-41.06 255.73,-41.06 243.62,-43.11 243.62,-45.62"/>
<text text-anchor="middle" x="270.62" y="-27.94" font-family="Arial" font-size="12.00">Qdrant</text>
<text text-anchor="middle" x="270.62" y="-13.69" font-family="Arial" font-size="12.00">6333</text>
</g>
<!-- MedicalCatalog&#45;&gt;Qdrant -->
<g id="edge15" class="edge">
<title>MedicalCatalog&#45;&gt;Qdrant</title>
<path fill="none" stroke="black" d="M248.33,-116.87C241.29,-110.02 234.36,-101.55 230.62,-92.19 226.67,-82.28 226.67,-78.09 230.62,-68.19 232.17,-64.31 234.27,-60.58 236.69,-57.06"/>
<polygon fill="black" stroke="black" points="239.28,-59.43 242.79,-49.44 233.81,-55.06 239.28,-59.43"/>
<text text-anchor="middle" x="260.62" y="-82.69" font-family="Arial" font-size="10.00">Qdrant gRPC</text>
<text text-anchor="middle" x="260.62" y="-70.69" font-family="Arial" font-size="10.00">Vector search</text>
</g>
<!-- Postgres&#45;&gt;FileStorageAPI -->
<g id="edge5" class="edge">
<title>Postgres&#45;&gt;FileStorageAPI</title>
<path fill="none" stroke="black" stroke-dasharray="5,2" d="M167.58,-414.78C174.93,-427.91 179.98,-443.97 171.62,-456.56 166.46,-464.34 159.19,-470.4 151.08,-475.11"/>
<polygon fill="black" stroke="black" points="149.58,-471.94 142.2,-479.54 152.71,-478.21 149.58,-471.94"/>
<text text-anchor="middle" x="188.71" y="-441.06" font-family="Arial" font-size="10.00">file_id</text>
</g>
<!-- Neo4j&#45;&gt;MedicalDataEngine -->
<g id="edge19" class="edge">
<title>Neo4j&#45;&gt;MedicalDataEngine</title>
<path fill="none" stroke="black" stroke-dasharray="5,2" d="M479.53,-155.7C487.6,-161.81 495.08,-169.37 499.62,-178.38 511.64,-202.18 516.07,-217.38 499.62,-238.38 490.81,-249.63 462.27,-257.75 433.07,-263.33"/>
<polygon fill="black" stroke="black" points="432.59,-259.86 423.37,-265.07 433.83,-266.74 432.59,-259.86"/>
<text text-anchor="middle" x="529.49" y="-204.88" font-family="Arial" font-size="10.00">Success</text>
</g>
<!-- Qdrant&#45;&gt;MedicalCatalog -->
<g id="edge16" class="edge">
<title>Qdrant&#45;&gt;MedicalCatalog</title>
<path fill="none" stroke="black" stroke-dasharray="5,2" d="M284.38,-50.36C286.96,-56.04 289.27,-62.19 290.62,-68.19 292.97,-78.59 292.97,-81.78 290.62,-92.19 289.54,-96.98 287.85,-101.87 285.89,-106.54"/>
<polygon fill="black" stroke="black" points="282.76,-104.98 281.67,-115.52 289.09,-107.96 282.76,-104.98"/>
<text text-anchor="middle" x="329.51" y="-76.69" font-family="Arial" font-size="10.00">Catalog matches</text>
</g>
<!-- GeminiAPI&#45;&gt;ExtractionPipeline -->
<g id="edge12" class="edge">
<title>GeminiAPI&#45;&gt;ExtractionPipeline</title>
<path fill="none" stroke="black" stroke-dasharray="5,2" d="M226.09,-292.56C229.32,-298.15 232.77,-304.45 235.62,-310.38 243.44,-326.61 250.93,-345.36 256.59,-360.42"/>
<polygon fill="black" stroke="black" points="253.26,-361.52 260.01,-369.69 259.83,-359.09 253.26,-361.52"/>
<text text-anchor="middle" x="284.13" y="-324.88" font-family="Arial" font-size="10.00">List[Biomarker]</text>
</g>
</g>
</svg>
