<?xml version="1.0" encoding="UTF-8" standalone="no"?>
<!DOCTYPE svg PUBLIC "-//W3C//DTD SVG 1.1//EN"
 "http://www.w3.org/Graphics/SVG/1.1/DTD/svg11.dtd">
<!-- Generated by graphviz version 12.2.1 (0)
 -->
<!-- Title: DockerComposeServices Pages: 1 -->
<svg width="890pt" height="500pt"
 viewBox="0.00 0.00 890.32 499.87" xmlns="http://www.w3.org/2000/svg" xmlns:xlink="http://www.w3.org/1999/xlink">
<g id="graph0" class="graph" transform="scale(1 1) rotate(0) translate(4 495.87)">
<title>DockerComposeServices</title>
<polygon fill="#f5f5f5" stroke="none" points="-4,4 -4,-495.87 886.32,-495.87 886.32,4 -4,4"/>
<g id="clust1" class="cluster">
<title>cluster_app</title>
<polygon fill="lightyellow" stroke="black" points="260.32,-114.25 260.32,-402.25 411.32,-402.25 411.32,-114.25 260.32,-114.25"/>
<text text-anchor="middle" x="335.82" y="-384.95" font-family="Arial" font-size="14.00">Application Containers</text>
</g>
<g id="clust2" class="cluster">
<title>cluster_db</title>
<polygon fill="lightcyan" stroke="black" points="367.32,-8 367.32,-84.25 798.32,-84.25 798.32,-8 367.32,-8"/>
<text text-anchor="middle" x="582.82" y="-66.95" font-family="Arial" font-size="14.00">Database Containers</text>
</g>
<g id="clust3" class="cluster">
<title>cluster_tools</title>
<polygon fill="lavender" stroke="black" points="780.32,-318.88 780.32,-395.12 874.32,-395.12 874.32,-318.88 780.32,-318.88"/>
<text text-anchor="middle" x="827.32" y="-377.82" font-family="Arial" font-size="14.00">Dev Tools</text>
</g>
<!-- AppNet -->
<g id="node1" class="node">
<title>AppNet</title>
<ellipse fill="lightblue" stroke="black" cx="538.32" cy="-466.06" rx="67" ry="25.81"/>
<text text-anchor="middle" x="538.32" y="-468.91" font-family="Arial" font-size="12.00">dem2&#45;network</text>
<text text-anchor="middle" x="538.32" y="-454.66" font-family="Arial" font-size="12.00">bridge network</text>
</g>
<!-- Frontend -->
<g id="node2" class="node">
<title>Frontend</title>
<polygon fill="lightyellow" stroke="black" points="350.32,-370.5 268.32,-370.5 268.32,-319.75 350.32,-319.75 350.32,-370.5"/>
<text text-anchor="middle" x="309.32" y="-355.1" font-family="Arial" font-size="12.00">dem2&#45;webui</text>
<text text-anchor="middle" x="309.32" y="-340.85" font-family="Arial" font-size="12.00">next:alpine</text>
<text text-anchor="middle" x="309.32" y="-326.6" font-family="Arial" font-size="12.00">Port 3000</text>
</g>
<!-- AppNet&#45;&gt;Frontend -->
<g id="edge1" class="edge">
<title>AppNet&#45;&gt;Frontend</title>
<path fill="none" stroke="black" stroke-dasharray="1,5" d="M471.82,-462.05C410.66,-457.72 326.41,-447.27 305.57,-422.25 296.35,-411.18 295.65,-395.75 297.89,-381.68"/>
<polygon fill="black" stroke="black" points="301.24,-382.78 299.9,-372.27 294.39,-381.32 301.24,-382.78"/>
<text text-anchor="middle" x="338.94" y="-412.75" font-family="Arial" font-size="10.00">docker network</text>
</g>
<!-- Backend -->
<g id="node3" class="node">
<title>Backend</title>
<polygon fill="lightgreen" stroke="black" points="347.44,-271.75 269.19,-271.75 269.19,-221 347.44,-221 347.44,-271.75"/>
<text text-anchor="middle" x="308.32" y="-256.35" font-family="Arial" font-size="12.00">dem2</text>
<text text-anchor="middle" x="308.32" y="-242.1" font-family="Arial" font-size="12.00">python:3.13</text>
<text text-anchor="middle" x="308.32" y="-227.85" font-family="Arial" font-size="12.00">Port 8000</text>
</g>
<!-- AppNet&#45;&gt;Backend -->
<g id="edge2" class="edge">
<title>AppNet&#45;&gt;Backend</title>
<path fill="none" stroke="black" stroke-dasharray="1,5" d="M484.89,-450.27C457.03,-440.37 423.98,-424.93 400.57,-402.25 370.88,-373.48 380.24,-354.53 359.32,-318.88 351.37,-305.33 348.4,-302.56 339.32,-289.75 337.33,-286.94 335.25,-284.04 333.15,-281.13"/>
<polygon fill="black" stroke="black" points="336.07,-279.19 327.36,-273.16 330.41,-283.31 336.07,-279.19"/>
<text text-anchor="middle" x="433.94" y="-341.62" font-family="Arial" font-size="10.00">docker network</text>
</g>
<!-- MedCat -->
<g id="node4" class="node">
<title>MedCat</title>
<polygon fill="lightpink" stroke="black" points="403.69,-173 302.94,-173 302.94,-122.25 403.69,-122.25 403.69,-173"/>
<text text-anchor="middle" x="353.32" y="-157.6" font-family="Arial" font-size="12.00">medical&#45;catalog</text>
<text text-anchor="middle" x="353.32" y="-143.35" font-family="Arial" font-size="12.00">python:3.13</text>
<text text-anchor="middle" x="353.32" y="-129.1" font-family="Arial" font-size="12.00">Port 8001</text>
</g>
<!-- AppNet&#45;&gt;MedCat -->
<g id="edge3" class="edge">
<title>AppNet&#45;&gt;MedCat</title>
<path fill="none" stroke="black" stroke-dasharray="1,5" d="M517.77,-441.04C513.3,-435.13 508.86,-428.66 505.32,-422.25 481.66,-379.4 499.62,-355.66 467.32,-318.88 456.48,-306.53 446.69,-312.84 434.57,-301.75 422.88,-291.06 423.17,-285.51 415.32,-271.75 398.61,-242.47 381.52,-208.13 369.52,-183.16"/>
<polygon fill="black" stroke="black" points="372.83,-181.96 365.36,-174.45 366.51,-184.98 372.83,-181.96"/>
<text text-anchor="middle" x="467.94" y="-292.25" font-family="Arial" font-size="10.00">docker network</text>
</g>
<!-- Postgres -->
<g id="node5" class="node">
<title>Postgres</title>
<polygon fill="skyblue" stroke="black" points="453.44,-52.5 375.19,-52.5 375.19,-16 453.44,-16 453.44,-52.5"/>
<text text-anchor="middle" x="414.32" y="-37.1" font-family="Arial" font-size="12.00">postgres:15</text>
<text text-anchor="middle" x="414.32" y="-22.85" font-family="Arial" font-size="12.00">Port 5432</text>
</g>
<!-- AppNet&#45;&gt;Postgres -->
<g id="edge4" class="edge">
<title>AppNet&#45;&gt;Postgres</title>
<path fill="none" stroke="black" stroke-dasharray="1,5" d="M534.3,-439.84C526.83,-394.16 510.72,-301.35 501.32,-289.75 488.85,-274.37 472.93,-287.22 460.57,-271.75 435.15,-239.93 421.64,-119.7 416.63,-63.95"/>
<polygon fill="black" stroke="black" points="420.14,-63.95 415.79,-54.29 413.17,-64.56 420.14,-63.95"/>
<text text-anchor="middle" x="493.94" y="-242.88" font-family="Arial" font-size="10.00">docker network</text>
</g>
<!-- Neo4j -->
<g id="node6" class="node">
<title>Neo4j</title>
<polygon fill="skyblue" stroke="black" points="578.69,-52.5 471.94,-52.5 471.94,-16 578.69,-16 578.69,-52.5"/>
<text text-anchor="middle" x="525.32" y="-37.1" font-family="Arial" font-size="12.00">neo4j:5</text>
<text text-anchor="middle" x="525.32" y="-22.85" font-family="Arial" font-size="12.00">Ports 7474, 7687</text>
</g>
<!-- AppNet&#45;&gt;Neo4j -->
<g id="edge5" class="edge">
<title>AppNet&#45;&gt;Neo4j</title>
<path fill="none" stroke="black" stroke-dasharray="1,5" d="M537.55,-439.78C535.28,-364.64 528.58,-143 526.18,-63.79"/>
<polygon fill="black" stroke="black" points="529.69,-64.16 525.89,-54.27 522.7,-64.37 529.69,-64.16"/>
<text text-anchor="middle" x="565.77" y="-242.88" font-family="Arial" font-size="10.00">docker network</text>
</g>
<!-- Redis -->
<g id="node7" class="node">
<title>Redis</title>
<polygon fill="skyblue" stroke="black" points="790.69,-52.5 701.94,-52.5 701.94,-16 790.69,-16 790.69,-52.5"/>
<text text-anchor="middle" x="746.32" y="-37.1" font-family="Arial" font-size="12.00">redis:7&#45;alpine</text>
<text text-anchor="middle" x="746.32" y="-22.85" font-family="Arial" font-size="12.00">Port 6379</text>
</g>
<!-- AppNet&#45;&gt;Redis -->
<g id="edge6" class="edge">
<title>AppNet&#45;&gt;Redis</title>
<path fill="none" stroke="black" stroke-dasharray="1,5" d="M600.73,-456.22C661.99,-443.61 746.32,-413.93 746.32,-346.12 746.32,-346.12 746.32,-346.12 746.32,-146.62 746.32,-118.73 746.32,-86.9 746.32,-64.43"/>
<polygon fill="black" stroke="black" points="749.82,-64.51 746.32,-54.51 742.82,-64.51 749.82,-64.51"/>
<text text-anchor="middle" x="779.69" y="-242.88" font-family="Arial" font-size="10.00">docker network</text>
</g>
<!-- Qdrant -->
<g id="node8" class="node">
<title>Qdrant</title>
<polygon fill="skyblue" stroke="black" points="683.57,-52.5 597.07,-52.5 597.07,-16 683.57,-16 683.57,-52.5"/>
<text text-anchor="middle" x="640.32" y="-37.1" font-family="Arial" font-size="12.00">qdrant/qdrant</text>
<text text-anchor="middle" x="640.32" y="-22.85" font-family="Arial" font-size="12.00">Port 6333</text>
</g>
<!-- AppNet&#45;&gt;Qdrant -->
<g id="edge7" class="edge">
<title>AppNet&#45;&gt;Qdrant</title>
<path fill="none" stroke="black" stroke-dasharray="1,5" d="M548.22,-440.13C562.34,-403.69 588.22,-333.49 603.32,-271.75 621.35,-197.98 632.5,-109.01 637.39,-64.14"/>
<polygon fill="black" stroke="black" points="640.85,-64.78 638.42,-54.46 633.89,-64.03 640.85,-64.78"/>
<text text-anchor="middle" x="647.34" y="-242.88" font-family="Arial" font-size="10.00">docker network</text>
</g>
<!-- RedisUI -->
<g id="node9" class="node">
<title>RedisUI</title>
<polygon fill="wheat" stroke="black" points="866.07,-363.38 788.57,-363.38 788.57,-326.88 866.07,-326.88 866.07,-363.38"/>
<text text-anchor="middle" x="827.32" y="-347.98" font-family="Arial" font-size="12.00">redisinsight</text>
<text text-anchor="middle" x="827.32" y="-333.73" font-family="Arial" font-size="12.00">Port 5540</text>
</g>
<!-- AppNet&#45;&gt;RedisUI -->
<g id="edge8" class="edge">
<title>AppNet&#45;&gt;RedisUI</title>
<path fill="none" stroke="black" stroke-dasharray="1,5" d="M605.37,-463.39C651.58,-459.64 712.96,-449.35 760.32,-422.25 781.01,-410.41 798.56,-389.79 810.5,-373"/>
<polygon fill="black" stroke="black" points="813.28,-375.14 816.01,-364.9 807.49,-371.2 813.28,-375.14"/>
<text text-anchor="middle" x="809.42" y="-412.75" font-family="Arial" font-size="10.00">docker network</text>
</g>
<!-- Frontend&#45;&gt;Backend -->
<g id="edge9" class="edge">
<title>Frontend&#45;&gt;Backend</title>
<path fill="none" stroke="black" d="M309.06,-319.46C308.95,-308.54 308.82,-295.49 308.69,-283.5"/>
<polygon fill="black" stroke="black" points="312.19,-283.47 308.59,-273.51 305.19,-283.54 312.19,-283.47"/>
<text text-anchor="middle" x="322" y="-292.25" font-family="Arial" font-size="10.00">HTTP</text>
</g>
<!-- Backend&#45;&gt;MedCat -->
<g id="edge10" class="edge">
<title>Backend&#45;&gt;MedCat</title>
<path fill="none" stroke="black" d="M319.79,-220.71C325.03,-209.45 331.32,-195.92 337.04,-183.63"/>
<polygon fill="black" stroke="black" points="340.19,-185.16 341.23,-174.62 333.84,-182.21 340.19,-185.16"/>
<text text-anchor="middle" x="346.64" y="-193.5" font-family="Arial" font-size="10.00">HTTP</text>
</g>
<!-- Backend&#45;&gt;Postgres -->
<g id="edge11" class="edge">
<title>Backend&#45;&gt;Postgres</title>
<path fill="none" stroke="black" d="M268.92,-242.35C173.18,-233.55 -58.64,-202.72 14.07,-114.25 57.77,-61.08 265.8,-43.11 363.46,-37.54"/>
<polygon fill="black" stroke="black" points="363.5,-41.04 373.3,-37 363.12,-34.05 363.5,-41.04"/>
<text text-anchor="middle" x="60.19" y="-144.12" font-family="Arial" font-size="10.00">PostgreSQL Protocol</text>
</g>
<!-- Backend&#45;&gt;Neo4j -->
<g id="edge12" class="edge">
<title>Backend&#45;&gt;Neo4j</title>
<path fill="none" stroke="black" d="M268.98,-240.73C229.12,-233.68 169.54,-216.15 142.07,-173 128.04,-150.97 124.49,-133.56 142.07,-114.25 190.2,-61.4 395.87,-110.58 462.32,-84.25 476.01,-78.83 489.18,-69.47 499.92,-60.37"/>
<polygon fill="black" stroke="black" points="502.05,-63.15 507.19,-53.89 497.39,-57.93 502.05,-63.15"/>
<text text-anchor="middle" x="170.19" y="-144.12" font-family="Arial" font-size="10.00">Bolt Protocol</text>
</g>
<!-- Backend&#45;&gt;Redis -->
<g id="edge13" class="edge">
<title>Backend&#45;&gt;Redis</title>
<path fill="none" stroke="black" d="M270.07,-220.81C254.51,-208.54 238.23,-192.19 229.82,-173 219.34,-149.08 211.61,-132.96 229.82,-114.25 244.22,-99.46 580.82,-106.75 601.32,-104.25 642.42,-99.23 655.52,-103.25 692.32,-84.25 703.74,-78.35 714.6,-69.42 723.54,-60.8"/>
<polygon fill="black" stroke="black" points="725.9,-63.39 730.42,-53.8 720.91,-58.48 725.9,-63.39"/>
<text text-anchor="middle" x="262.07" y="-144.12" font-family="Arial" font-size="10.00">Redis Protocol</text>
</g>
<!-- MedCat&#45;&gt;Qdrant -->
<g id="edge14" class="edge">
<title>MedCat&#45;&gt;Qdrant</title>
<path fill="none" stroke="black" d="M403.89,-140.36C453.15,-132.65 528.94,-116.39 587.32,-84.25 598.19,-78.27 608.57,-69.58 617.23,-61.18"/>
<polygon fill="black" stroke="black" points="619.7,-63.66 624.2,-54.07 614.7,-58.76 619.7,-63.66"/>
<text text-anchor="middle" x="583.4" y="-94.75" font-family="Arial" font-size="10.00">gRPC</text>
</g>
<!-- RedisUI&#45;&gt;Redis -->
<g id="edge15" class="edge">
<title>RedisUI&#45;&gt;Redis</title>
<path fill="none" stroke="black" d="M827.45,-326.76C827.28,-302.71 825.72,-258.02 817.32,-221 804.13,-162.87 776.44,-98.67 759.81,-63.02"/>
<polygon fill="black" stroke="black" points="763.11,-61.82 755.67,-54.28 756.78,-64.82 763.11,-61.82"/>
<text text-anchor="middle" x="845.08" y="-193.5" font-family="Arial" font-size="10.00">Redis Protocol</text>
</g>
</g>
</svg>
