<?xml version="1.0" encoding="UTF-8" standalone="no"?>
<!DOCTYPE svg PUBLIC "-//W3C//DTD SVG 1.1//EN"
 "http://www.w3.org/Graphics/SVG/1.1/DTD/svg11.dtd">
<!-- Generated by graphviz version 12.2.1 (0)
 -->
<!-- Title: UserInteraction Pages: 1 -->
<svg width="769pt" height="102pt"
 viewBox="0.00 0.00 768.75 102.23" xmlns="http://www.w3.org/2000/svg" xmlns:xlink="http://www.w3.org/1999/xlink">
<g id="graph0" class="graph" transform="scale(1 1) rotate(0) translate(4 98.23)">
<title>UserInteraction</title>
<polygon fill="#f5f5f5" stroke="none" points="-4,4 -4,-98.23 764.75,-98.23 764.75,4 -4,4"/>
<!-- Browser -->
<g id="node1" class="node">
<title>Browser</title>
<polygon fill="lightblue" stroke="black" points="88,-49.77 0,-49.77 0,-13.77 88,-13.77 88,-49.77"/>
<text text-anchor="middle" x="44" y="-27.49" font-family="Arial" font-size="12.00">Web Browser</text>
</g>
<!-- NextJS -->
<g id="node2" class="node">
<title>NextJS</title>
<polygon fill="lightyellow" stroke="black" points="299.75,-50.02 196,-50.02 196,-13.52 299.75,-13.52 299.75,-50.02"/>
<text text-anchor="middle" x="247.88" y="-34.62" font-family="Arial" font-size="12.00">Next.js Frontend</text>
<text text-anchor="middle" x="247.88" y="-20.37" font-family="Arial" font-size="12.00">Port 3000</text>
</g>
<!-- Browser&#45;&gt;NextJS -->
<g id="edge1" class="edge">
<title>Browser&#45;&gt;NextJS</title>
<path fill="none" stroke="black" d="M88.32,-33.36C94.26,-33.53 100.28,-33.68 106,-33.77 138,-34.29 146,-34.23 178,-33.77 180.06,-33.74 182.16,-33.7 184.28,-33.66"/>
<polygon fill="black" stroke="black" points="184.29,-37.17 194.21,-33.45 184.14,-30.17 184.29,-37.17"/>
<text text-anchor="middle" x="142" y="-48.64" font-family="Arial" font-size="10.00">User clicks</text>
<text text-anchor="middle" x="142" y="-36.64" font-family="Arial" font-size="10.00">&#39;Add Medication&#39;</text>
</g>
<!-- NextJS&#45;&gt;Browser -->
<g id="edge6" class="edge">
<title>NextJS&#45;&gt;Browser</title>
<path fill="none" stroke="black" stroke-dasharray="5,2" d="M204.57,-13.08C195.94,-10.05 186.8,-7.37 178,-5.77 146.52,-0.02 137.35,0.63 106,-5.77 101.43,-6.7 96.78,-7.99 92.19,-9.5"/>
<polygon fill="black" stroke="black" points="91.26,-6.11 83.07,-12.83 93.67,-12.69 91.26,-6.11"/>
<text text-anchor="middle" x="142" y="-20.27" font-family="Arial" font-size="10.00">UI update</text>
<text text-anchor="middle" x="142" y="-8.27" font-family="Arial" font-size="10.00">Show success</text>
</g>
<!-- FastAPI -->
<g id="node3" class="node">
<title>FastAPI</title>
<polygon fill="lightgreen" stroke="black" points="542.25,-50.02 433.25,-50.02 433.25,-13.52 542.25,-13.52 542.25,-50.02"/>
<text text-anchor="middle" x="487.75" y="-34.62" font-family="Arial" font-size="12.00">FastAPI Backend</text>
<text text-anchor="middle" x="487.75" y="-20.37" font-family="Arial" font-size="12.00">Port 8000</text>
</g>
<!-- NextJS&#45;&gt;FastAPI -->
<g id="edge2" class="edge">
<title>NextJS&#45;&gt;FastAPI</title>
<path fill="none" stroke="black" d="M300.02,-33.42C306,-33.56 312.01,-33.69 317.75,-33.77 361.08,-34.4 371.92,-34.37 415.25,-33.77 417.3,-33.74 419.39,-33.71 421.49,-33.67"/>
<polygon fill="black" stroke="black" points="421.44,-37.17 431.36,-33.47 421.29,-30.17 421.44,-37.17"/>
<text text-anchor="middle" x="366.5" y="-84.73" font-family="Arial" font-size="10.00">HTTP POST</text>
<text text-anchor="middle" x="366.5" y="-72.73" font-family="Arial" font-size="10.00">/api/v1/graph&#45;memory/</text>
<text text-anchor="middle" x="366.5" y="-60.73" font-family="Arial" font-size="10.00">medical/medication/</text>
<text text-anchor="middle" x="366.5" y="-48.73" font-family="Arial" font-size="10.00">intake&#45;regimens</text>
<text text-anchor="middle" x="366.5" y="-36.73" font-family="Arial" font-size="10.00">Auth: JWT</text>
</g>
<!-- FastAPI&#45;&gt;NextJS -->
<g id="edge5" class="edge">
<title>FastAPI&#45;&gt;NextJS</title>
<path fill="none" stroke="black" stroke-dasharray="5,2" d="M442.78,-13.08C433.83,-10.04 424.36,-7.37 415.25,-5.77 372.57,1.75 360.38,2.01 317.75,-5.77 312.52,-6.72 307.18,-8.05 301.89,-9.61"/>
<polygon fill="black" stroke="black" points="301.05,-6.2 292.62,-12.61 303.21,-12.86 301.05,-6.2"/>
<text text-anchor="middle" x="366.5" y="-20.27" font-family="Arial" font-size="10.00">HTTP 200</text>
<text text-anchor="middle" x="366.5" y="-8.27" font-family="Arial" font-size="10.00">JSON response</text>
</g>
<!-- Neo4j -->
<g id="node4" class="node">
<title>Neo4j</title>
<path fill="skyblue" stroke="black" d="M760.75,-52.3C760.75,-54.82 744.39,-56.86 724.25,-56.86 704.11,-56.86 687.75,-54.82 687.75,-52.3 687.75,-52.3 687.75,-11.24 687.75,-11.24 687.75,-8.72 704.11,-6.68 724.25,-6.68 744.39,-6.68 760.75,-8.72 760.75,-11.24 760.75,-11.24 760.75,-52.3 760.75,-52.3"/>
<path fill="none" stroke="black" d="M760.75,-52.3C760.75,-49.78 744.39,-47.74 724.25,-47.74 704.11,-47.74 687.75,-49.78 687.75,-52.3"/>
<text text-anchor="middle" x="724.25" y="-34.62" font-family="Arial" font-size="12.00">Neo4j</text>
<text text-anchor="middle" x="724.25" y="-20.37" font-family="Arial" font-size="12.00">7474/7687</text>
</g>
<!-- FastAPI&#45;&gt;Neo4j -->
<g id="edge3" class="edge">
<title>FastAPI&#45;&gt;Neo4j</title>
<path fill="none" stroke="black" d="M542.55,-31.77C582.87,-31.77 637.51,-31.77 676.11,-31.77"/>
<polygon fill="black" stroke="black" points="676.03,-35.27 686.03,-31.77 676.03,-28.27 676.03,-35.27"/>
<text text-anchor="middle" x="615" y="-46.27" font-family="Arial" font-size="10.00">Cypher Query</text>
<text text-anchor="middle" x="615" y="-34.27" font-family="Arial" font-size="10.00">CREATE IntakeRegimen</text>
</g>
<!-- Neo4j&#45;&gt;FastAPI -->
<g id="edge4" class="edge">
<title>Neo4j&#45;&gt;FastAPI</title>
<path fill="none" stroke="black" stroke-dasharray="5,2" d="M687.31,-19.47C681.5,-17.94 675.51,-16.61 669.75,-15.77 621.6,-8.72 608.62,-10.42 560.25,-15.77 558.07,-16.01 555.86,-16.29 553.63,-16.61"/>
<polygon fill="black" stroke="black" points="553.22,-13.13 543.91,-18.19 554.34,-20.04 553.22,-13.13"/>
<text text-anchor="middle" x="615" y="-18.27" font-family="Arial" font-size="10.00">Success</text>
</g>
</g>
</svg>
