<?xml version="1.0" encoding="UTF-8" standalone="no"?>
<!DOCTYPE svg PUBLIC "-//W3C//DTD SVG 1.1//EN"
 "http://www.w3.org/Graphics/SVG/1.1/DTD/svg11.dtd">
<!-- Generated by graphviz version 12.2.1 (0)
 -->
<!-- Title: BiomarkerDataModel Pages: 1 -->
<svg width="191pt" height="544pt"
 viewBox="0.00 0.00 190.50 543.50" xmlns="http://www.w3.org/2000/svg" xmlns:xlink="http://www.w3.org/1999/xlink">
<g id="graph0" class="graph" transform="scale(1 1) rotate(0) translate(4 539.5)">
<title>BiomarkerDataModel</title>
<polygon fill="#f5f5f5" stroke="none" points="-4,4 -4,-539.5 186.5,-539.5 186.5,4 -4,4"/>
<!-- Biomarker -->
<g id="node1" class="node">
<title>Biomarker</title>
<polygon fill="lightcyan" stroke="black" points="0,-357 0,-535 182.5,-535 182.5,-357 0,-357"/>
<text text-anchor="middle" x="91.25" y="-520.55" font-family="Arial" font-size="11.00">Biomarker</text>
<polyline fill="none" stroke="black" points="0,-513.5 182.5,-513.5"/>
<text text-anchor="start" x="8" y="-499.05" font-family="Arial" font-size="11.00">+ long_name: string</text>
<text text-anchor="start" x="8" y="-485.55" font-family="Arial" font-size="11.00">+ short_name: string</text>
<text text-anchor="start" x="8" y="-472.05" font-family="Arial" font-size="11.00">+ document_name: string</text>
<text text-anchor="start" x="8" y="-458.55" font-family="Arial" font-size="11.00">+ document_name_modifier: string</text>
<text text-anchor="start" x="8" y="-445.05" font-family="Arial" font-size="11.00">+ document_footnote: string</text>
<text text-anchor="start" x="8" y="-431.55" font-family="Arial" font-size="11.00">+ aliases: list[string]</text>
<text text-anchor="start" x="8" y="-418.05" font-family="Arial" font-size="11.00">+ values: list[BiomarkerValue]</text>
<text text-anchor="start" x="8" y="-404.55" font-family="Arial" font-size="11.00">+ confidence: float</text>
<text text-anchor="start" x="8" y="-391.05" font-family="Arial" font-size="11.00">+ is_biomarker_derivative: bool</text>
<text text-anchor="start" x="8" y="-377.55" font-family="Arial" font-size="11.00">+ specimen_type: string</text>
<text text-anchor="start" x="8" y="-364.05" font-family="Arial" font-size="11.00">+ panel_name: string</text>
</g>
<!-- BiomarkerValue -->
<g id="node2" class="node">
<title>BiomarkerValue</title>
<polygon fill="lightyellow" stroke="black" points="3,-158.5 3,-296 179.5,-296 179.5,-158.5 3,-158.5"/>
<text text-anchor="middle" x="91.25" y="-281.55" font-family="Arial" font-size="11.00">BiomarkerValue</text>
<polyline fill="none" stroke="black" points="3,-274.5 179.5,-274.5"/>
<text text-anchor="start" x="11" y="-260.05" font-family="Arial" font-size="11.00">+ value: string</text>
<text text-anchor="start" x="11" y="-246.55" font-family="Arial" font-size="11.00">+ observation_date: string</text>
<text text-anchor="start" x="11" y="-233.05" font-family="Arial" font-size="11.00">+ observation_time: string</text>
<text text-anchor="start" x="11" y="-219.55" font-family="Arial" font-size="11.00">+ unit: string</text>
<text text-anchor="start" x="11" y="-206.05" font-family="Arial" font-size="11.00">+ label: string</text>
<text text-anchor="start" x="11" y="-192.55" font-family="Arial" font-size="11.00">+ name_location: SourceLocation</text>
<text text-anchor="start" x="11" y="-179.05" font-family="Arial" font-size="11.00">+ value_location: SourceLocation</text>
<text text-anchor="start" x="11" y="-165.55" font-family="Arial" font-size="11.00">+ unit_location: SourceLocation</text>
</g>
<!-- Biomarker&#45;&gt;BiomarkerValue -->
<g id="edge1" class="edge">
<title>Biomarker&#45;&gt;BiomarkerValue</title>
<path fill="none" stroke="black" d="M91.25,-356.53C91.25,-340.33 91.25,-323.51 91.25,-307.59"/>
<polygon fill="black" stroke="black" points="94.75,-307.7 91.25,-297.7 87.75,-307.7 94.75,-307.7"/>
<text text-anchor="middle" x="113" y="-329" font-family="Arial" font-size="10.00">1 to many</text>
<text text-anchor="middle" x="113" y="-317" font-family="Arial" font-size="10.00">values</text>
</g>
<!-- SourceLocation -->
<g id="node3" class="node">
<title>SourceLocation</title>
<polygon fill="wheat" stroke="black" points="36.38,-0.5 36.38,-97.5 146.12,-97.5 146.12,-0.5 36.38,-0.5"/>
<text text-anchor="middle" x="91.25" y="-83.05" font-family="Arial" font-size="11.00">SourceLocation</text>
<polyline fill="none" stroke="black" points="36.38,-76 146.12,-76"/>
<text text-anchor="start" x="44.38" y="-61.55" font-family="Arial" font-size="11.00">+ page_number: int</text>
<text text-anchor="start" x="44.38" y="-48.05" font-family="Arial" font-size="11.00">+ x: int</text>
<text text-anchor="start" x="44.38" y="-34.55" font-family="Arial" font-size="11.00">+ y: int</text>
<text text-anchor="start" x="44.38" y="-21.05" font-family="Arial" font-size="11.00">+ width: int</text>
<text text-anchor="start" x="44.38" y="-7.55" font-family="Arial" font-size="11.00">+ height: int</text>
</g>
<!-- BiomarkerValue&#45;&gt;SourceLocation -->
<g id="edge2" class="edge">
<title>BiomarkerValue&#45;&gt;SourceLocation</title>
<path fill="none" stroke="black" d="M91.25,-158.11C91.25,-141.89 91.25,-124.73 91.25,-108.96"/>
<polygon fill="black" stroke="black" points="94.75,-109.28 91.25,-99.28 87.75,-109.28 94.75,-109.28"/>
<text text-anchor="middle" x="110.75" y="-130.5" font-family="Arial" font-size="10.00">0 to 3</text>
<text text-anchor="middle" x="110.75" y="-118.5" font-family="Arial" font-size="10.00">locations</text>
</g>
</g>
</svg>
