<?xml version="1.0" encoding="UTF-8" standalone="no"?>
<!DOCTYPE svg PUBLIC "-//W3C//DTD SVG 1.1//EN"
 "http://www.w3.org/Graphics/SVG/1.1/DTD/svg11.dtd">
<!-- Generated by graphviz version 12.2.1 (0)
 -->
<!-- Title: CompleteDocumentFlow Pages: 1 -->
<svg width="356pt" height="1821pt"
 viewBox="0.00 0.00 355.88 1820.50" xmlns="http://www.w3.org/2000/svg" xmlns:xlink="http://www.w3.org/1999/xlink">
<g id="graph0" class="graph" transform="scale(1 1) rotate(0) translate(4 1816.5)">
<title>CompleteDocumentFlow</title>
<polygon fill="#f5f5f5" stroke="none" points="-4,4 -4,-1816.5 351.88,-1816.5 351.88,4 -4,4"/>
<!-- Start -->
<g id="node1" class="node">
<title>Start</title>
<ellipse fill="lightblue" stroke="black" cx="256" cy="-1794.5" rx="65.61" ry="18"/>
<text text-anchor="middle" x="256" y="-1790.8" font-family="Arial" font-size="11.00">User uploads PDF</text>
</g>
<!-- Upload -->
<g id="node2" class="node">
<title>Upload</title>
<polygon fill="wheat" stroke="black" points="309,-1740.5 203,-1740.5 203,-1704.5 309,-1704.5 309,-1740.5"/>
<text text-anchor="middle" x="256" y="-1718.8" font-family="Arial" font-size="11.00">POST /files/upload</text>
</g>
<!-- Start&#45;&gt;Upload -->
<g id="edge1" class="edge">
<title>Start&#45;&gt;Upload</title>
<path fill="none" stroke="black" d="M256,-1776.2C256,-1768.91 256,-1760.23 256,-1752.04"/>
<polygon fill="black" stroke="black" points="259.5,-1752.12 256,-1742.12 252.5,-1752.12 259.5,-1752.12"/>
</g>
<!-- Store -->
<g id="node3" class="node">
<title>Store</title>
<polygon fill="wheat" stroke="black" points="310.5,-1668.5 201.5,-1668.5 201.5,-1632.5 310.5,-1632.5 310.5,-1668.5"/>
<text text-anchor="middle" x="256" y="-1646.8" font-family="Arial" font-size="11.00">Store in GCS/Local</text>
</g>
<!-- Upload&#45;&gt;Store -->
<g id="edge2" class="edge">
<title>Upload&#45;&gt;Store</title>
<path fill="none" stroke="black" d="M256,-1704.2C256,-1696.91 256,-1688.23 256,-1680.04"/>
<polygon fill="black" stroke="black" points="259.5,-1680.12 256,-1670.12 252.5,-1680.12 259.5,-1680.12"/>
</g>
<!-- FileRecord -->
<g id="node4" class="node">
<title>FileRecord</title>
<path fill="skyblue" stroke="black" d="M293.62,-1592.12C293.62,-1594.54 276.76,-1596.5 256,-1596.5 235.24,-1596.5 218.38,-1594.54 218.38,-1592.12 218.38,-1592.12 218.38,-1552.75 218.38,-1552.75 218.38,-1550.34 235.24,-1548.38 256,-1548.38 276.76,-1548.38 293.62,-1550.34 293.62,-1552.75 293.62,-1552.75 293.62,-1592.12 293.62,-1592.12"/>
<path fill="none" stroke="black" d="M293.62,-1592.12C293.62,-1589.71 276.76,-1587.75 256,-1587.75 235.24,-1587.75 218.38,-1589.71 218.38,-1592.12"/>
<text text-anchor="middle" x="256" y="-1575.49" font-family="Arial" font-size="11.00">PostgreSQL</text>
<text text-anchor="middle" x="256" y="-1561.99" font-family="Arial" font-size="11.00">FileRecord</text>
</g>
<!-- Store&#45;&gt;FileRecord -->
<g id="edge3" class="edge">
<title>Store&#45;&gt;FileRecord</title>
<path fill="none" stroke="black" d="M256,-1632.24C256,-1625.15 256,-1616.67 256,-1608.39"/>
<polygon fill="black" stroke="black" points="259.5,-1608.49 256,-1598.49 252.5,-1608.49 259.5,-1608.49"/>
</g>
<!-- QueueDoc -->
<g id="node5" class="node">
<title>QueueDoc</title>
<polygon fill="wheat" stroke="black" points="327.38,-1512.38 184.62,-1512.38 184.62,-1476.38 327.38,-1476.38 327.38,-1512.38"/>
<text text-anchor="middle" x="256" y="-1490.67" font-family="Arial" font-size="11.00">POST /process_document</text>
</g>
<!-- FileRecord&#45;&gt;QueueDoc -->
<g id="edge4" class="edge">
<title>FileRecord&#45;&gt;QueueDoc</title>
<path fill="none" stroke="black" d="M256,-1548.2C256,-1540.54 256,-1531.94 256,-1523.93"/>
<polygon fill="black" stroke="black" points="259.5,-1523.95 256,-1513.95 252.5,-1523.95 259.5,-1523.95"/>
</g>
<!-- TaskQueue -->
<g id="node6" class="node">
<title>TaskQueue</title>
<polygon fill="wheat" stroke="black" points="315.38,-1440.38 196.62,-1440.38 196.62,-1404.38 315.38,-1404.38 315.38,-1440.38"/>
<text text-anchor="middle" x="256" y="-1418.67" font-family="Arial" font-size="11.00">Task Queue Manager</text>
</g>
<!-- QueueDoc&#45;&gt;TaskQueue -->
<g id="edge5" class="edge">
<title>QueueDoc&#45;&gt;TaskQueue</title>
<path fill="none" stroke="black" d="M256,-1476.07C256,-1468.78 256,-1460.1 256,-1451.91"/>
<polygon fill="black" stroke="black" points="259.5,-1451.99 256,-1441.99 252.5,-1451.99 259.5,-1451.99"/>
</g>
<!-- Worker -->
<g id="node7" class="node">
<title>Worker</title>
<polygon fill="wheat" stroke="black" points="312,-1368.38 200,-1368.38 200,-1332.38 312,-1332.38 312,-1368.38"/>
<text text-anchor="middle" x="256" y="-1346.67" font-family="Arial" font-size="11.00">Background Worker</text>
</g>
<!-- TaskQueue&#45;&gt;Worker -->
<g id="edge6" class="edge">
<title>TaskQueue&#45;&gt;Worker</title>
<path fill="none" stroke="black" d="M256,-1404.07C256,-1396.78 256,-1388.1 256,-1379.91"/>
<polygon fill="black" stroke="black" points="259.5,-1379.99 256,-1369.99 252.5,-1379.99 259.5,-1379.99"/>
</g>
<!-- Load -->
<g id="node8" class="node">
<title>Load</title>
<polygon fill="wheat" stroke="black" points="316.12,-1296.38 195.88,-1296.38 195.88,-1260.38 316.12,-1260.38 316.12,-1296.38"/>
<text text-anchor="middle" x="256" y="-1274.67" font-family="Arial" font-size="11.00">Load file from storage</text>
</g>
<!-- Worker&#45;&gt;Load -->
<g id="edge7" class="edge">
<title>Worker&#45;&gt;Load</title>
<path fill="none" stroke="black" d="M256,-1332.07C256,-1324.78 256,-1316.1 256,-1307.91"/>
<polygon fill="black" stroke="black" points="259.5,-1307.99 256,-1297.99 252.5,-1307.99 259.5,-1307.99"/>
</g>
<!-- Convert -->
<g id="node9" class="node">
<title>Convert</title>
<polygon fill="wheat" stroke="black" points="320.62,-1224.38 191.38,-1224.38 191.38,-1188.38 320.62,-1188.38 320.62,-1224.38"/>
<text text-anchor="middle" x="256" y="-1202.67" font-family="Arial" font-size="11.00">Convert PDF to images</text>
</g>
<!-- Load&#45;&gt;Convert -->
<g id="edge8" class="edge">
<title>Load&#45;&gt;Convert</title>
<path fill="none" stroke="black" d="M256,-1260.07C256,-1252.78 256,-1244.1 256,-1235.91"/>
<polygon fill="black" stroke="black" points="259.5,-1235.99 256,-1225.99 252.5,-1235.99 259.5,-1235.99"/>
</g>
<!-- ExtractMeta -->
<g id="node10" class="node">
<title>ExtractMeta</title>
<polygon fill="plum" stroke="black" points="304.88,-1152.38 207.12,-1152.38 207.12,-1116.38 304.88,-1116.38 304.88,-1152.38"/>
<text text-anchor="middle" x="256" y="-1137.42" font-family="Arial" font-size="11.00">Extract Metadata</text>
<text text-anchor="middle" x="256" y="-1123.92" font-family="Arial" font-size="11.00">Gemini Vision</text>
</g>
<!-- Convert&#45;&gt;ExtractMeta -->
<g id="edge9" class="edge">
<title>Convert&#45;&gt;ExtractMeta</title>
<path fill="none" stroke="black" d="M256,-1188.07C256,-1180.78 256,-1172.1 256,-1163.91"/>
<polygon fill="black" stroke="black" points="259.5,-1163.99 256,-1153.99 252.5,-1163.99 259.5,-1163.99"/>
</g>
<!-- ExtractBio -->
<g id="node11" class="node">
<title>ExtractBio</title>
<polygon fill="plum" stroke="black" points="255.75,-1080.38 148.25,-1080.38 148.25,-1044.38 255.75,-1044.38 255.75,-1080.38"/>
<text text-anchor="middle" x="202" y="-1065.42" font-family="Arial" font-size="11.00">Extract Biomarkers</text>
<text text-anchor="middle" x="202" y="-1051.92" font-family="Arial" font-size="11.00">Gemini Vision</text>
</g>
<!-- ExtractMeta&#45;&gt;ExtractBio -->
<g id="edge10" class="edge">
<title>ExtractMeta&#45;&gt;ExtractBio</title>
<path fill="none" stroke="black" d="M242.65,-1116.07C236.44,-1108.02 228.92,-1098.27 222.04,-1089.36"/>
<polygon fill="black" stroke="black" points="225,-1087.46 216.12,-1081.68 219.46,-1091.73 225,-1087.46"/>
</g>
<!-- SSE1 -->
<g id="node27" class="node">
<title>SSE1</title>
<polygon fill="none" stroke="black" stroke-dasharray="5,2" points="347.88,-1080.38 274.12,-1080.38 274.12,-1044.38 347.88,-1044.38 347.88,-1080.38"/>
<text text-anchor="middle" x="311" y="-1058.67" font-family="Arial" font-size="11.00">SSE: detect</text>
</g>
<!-- ExtractMeta&#45;&gt;SSE1 -->
<g id="edge26" class="edge">
<title>ExtractMeta&#45;&gt;SSE1</title>
<path fill="none" stroke="blue" stroke-dasharray="1,5" d="M269.6,-1116.07C275.92,-1108.02 283.58,-1098.27 290.59,-1089.36"/>
<polygon fill="blue" stroke="blue" points="293.2,-1091.7 296.63,-1081.67 287.7,-1087.37 293.2,-1091.7"/>
</g>
<!-- Normalize -->
<g id="node12" class="node">
<title>Normalize</title>
<polygon fill="lightcyan" stroke="black" points="198,-1008.38 98,-1008.38 98,-972.38 198,-972.38 198,-1008.38"/>
<text text-anchor="middle" x="148" y="-993.42" font-family="Arial" font-size="11.00">Normalize names</text>
<text text-anchor="middle" x="148" y="-979.92" font-family="Arial" font-size="11.00">NormalizerAgent</text>
</g>
<!-- ExtractBio&#45;&gt;Normalize -->
<g id="edge11" class="edge">
<title>ExtractBio&#45;&gt;Normalize</title>
<path fill="none" stroke="black" d="M188.65,-1044.07C182.44,-1036.02 174.92,-1026.27 168.04,-1017.36"/>
<polygon fill="black" stroke="black" points="171,-1015.46 162.12,-1009.68 165.46,-1019.73 171,-1015.46"/>
</g>
<!-- SSE2 -->
<g id="node28" class="node">
<title>SSE2</title>
<polygon fill="none" stroke="black" stroke-dasharray="5,2" points="298,-1008.38 216,-1008.38 216,-972.38 298,-972.38 298,-1008.38"/>
<text text-anchor="middle" x="257" y="-986.67" font-family="Arial" font-size="11.00">SSE: process</text>
</g>
<!-- ExtractBio&#45;&gt;SSE2 -->
<g id="edge27" class="edge">
<title>ExtractBio&#45;&gt;SSE2</title>
<path fill="none" stroke="blue" stroke-dasharray="1,5" d="M215.6,-1044.07C221.92,-1036.02 229.58,-1026.27 236.59,-1017.36"/>
<polygon fill="blue" stroke="blue" points="239.2,-1019.7 242.63,-1009.67 233.7,-1015.37 239.2,-1019.7"/>
</g>
<!-- DocResources -->
<g id="node13" class="node">
<title>DocResources</title>
<polygon fill="palegreen" stroke="black" points="217.88,-936.38 78.12,-936.38 78.12,-900.38 217.88,-900.38 217.88,-936.38"/>
<text text-anchor="middle" x="148" y="-914.67" font-family="Arial" font-size="11.00">DocumentResourcesNew</text>
</g>
<!-- Normalize&#45;&gt;DocResources -->
<g id="edge12" class="edge">
<title>Normalize&#45;&gt;DocResources</title>
<path fill="none" stroke="black" d="M148,-972.07C148,-964.78 148,-956.1 148,-947.91"/>
<polygon fill="black" stroke="black" points="151.5,-947.99 148,-937.99 144.5,-947.99 151.5,-947.99"/>
</g>
<!-- DataEngine -->
<g id="node14" class="node">
<title>DataEngine</title>
<polygon fill="palegreen" stroke="black" points="205.88,-864.38 90.12,-864.38 90.12,-828.38 205.88,-828.38 205.88,-864.38"/>
<text text-anchor="middle" x="148" y="-842.67" font-family="Arial" font-size="11.00">Medical Data Engine</text>
</g>
<!-- DocResources&#45;&gt;DataEngine -->
<g id="edge13" class="edge">
<title>DocResources&#45;&gt;DataEngine</title>
<path fill="none" stroke="black" d="M148,-900.07C148,-892.78 148,-884.1 148,-875.91"/>
<polygon fill="black" stroke="black" points="151.5,-875.99 148,-865.99 144.5,-875.99 151.5,-875.99"/>
</g>
<!-- CreateDoc -->
<g id="node15" class="node">
<title>CreateDoc</title>
<polygon fill="wheat" stroke="black" points="142,-792.38 0,-792.38 0,-756.38 142,-756.38 142,-792.38"/>
<text text-anchor="middle" x="71" y="-777.42" font-family="Arial" font-size="11.00">Create</text>
<text text-anchor="middle" x="71" y="-763.92" font-family="Arial" font-size="11.00">DocumentReferenceNode</text>
</g>
<!-- DataEngine&#45;&gt;CreateDoc -->
<g id="edge14" class="edge">
<title>DataEngine&#45;&gt;CreateDoc</title>
<path fill="none" stroke="black" d="M128.97,-828.07C119.8,-819.74 108.65,-809.6 98.57,-800.44"/>
<polygon fill="black" stroke="black" points="100.96,-797.88 91.2,-793.74 96.25,-803.06 100.96,-797.88"/>
</g>
<!-- SearchCatalog -->
<g id="node17" class="node">
<title>SearchCatalog</title>
<polygon fill="lightpink" stroke="black" points="290.38,-792.38 159.62,-792.38 159.62,-756.38 290.38,-756.38 290.38,-792.38"/>
<text text-anchor="middle" x="225" y="-770.67" font-family="Arial" font-size="11.00">Search Medical Catalog</text>
</g>
<!-- DataEngine&#45;&gt;SearchCatalog -->
<g id="edge16" class="edge">
<title>DataEngine&#45;&gt;SearchCatalog</title>
<path fill="none" stroke="black" d="M167.03,-828.07C176.2,-819.74 187.35,-809.6 197.43,-800.44"/>
<polygon fill="black" stroke="black" points="199.75,-803.06 204.8,-793.74 195.04,-797.88 199.75,-803.06"/>
</g>
<!-- Neo4jDoc -->
<g id="node16" class="node">
<title>Neo4jDoc</title>
<path fill="skyblue" stroke="black" d="M128.88,-716C128.88,-718.41 102.93,-720.38 71,-720.38 39.07,-720.38 13.12,-718.41 13.12,-716 13.12,-716 13.12,-676.62 13.12,-676.62 13.12,-674.21 39.07,-672.25 71,-672.25 102.93,-672.25 128.88,-674.21 128.88,-676.62 128.88,-676.62 128.88,-716 128.88,-716"/>
<path fill="none" stroke="black" d="M128.88,-716C128.88,-713.59 102.93,-711.62 71,-711.62 39.07,-711.62 13.12,-713.59 13.12,-716"/>
<text text-anchor="middle" x="71" y="-699.36" font-family="Arial" font-size="11.00">Neo4j</text>
<text text-anchor="middle" x="71" y="-685.86" font-family="Arial" font-size="11.00">DocumentReference</text>
</g>
<!-- CreateDoc&#45;&gt;Neo4jDoc -->
<g id="edge15" class="edge">
<title>CreateDoc&#45;&gt;Neo4jDoc</title>
<path fill="none" stroke="black" d="M71,-756.12C71,-749.02 71,-740.54 71,-732.26"/>
<polygon fill="black" stroke="black" points="74.5,-732.36 71,-722.36 67.5,-732.36 74.5,-732.36"/>
</g>
<!-- QdrantSearch -->
<g id="node18" class="node">
<title>QdrantSearch</title>
<path fill="skyblue" stroke="black" d="M267.12,-716C267.12,-718.41 248.24,-720.38 225,-720.38 201.76,-720.38 182.88,-718.41 182.88,-716 182.88,-716 182.88,-676.62 182.88,-676.62 182.88,-674.21 201.76,-672.25 225,-672.25 248.24,-672.25 267.12,-674.21 267.12,-676.62 267.12,-676.62 267.12,-716 267.12,-716"/>
<path fill="none" stroke="black" d="M267.12,-716C267.12,-713.59 248.24,-711.62 225,-711.62 201.76,-711.62 182.88,-713.59 182.88,-716"/>
<text text-anchor="middle" x="225" y="-699.36" font-family="Arial" font-size="11.00">Qdrant</text>
<text text-anchor="middle" x="225" y="-685.86" font-family="Arial" font-size="11.00">Vector Search</text>
</g>
<!-- SearchCatalog&#45;&gt;QdrantSearch -->
<g id="edge17" class="edge">
<title>SearchCatalog&#45;&gt;QdrantSearch</title>
<path fill="none" stroke="black" d="M225,-756.12C225,-749.02 225,-740.54 225,-732.26"/>
<polygon fill="black" stroke="black" points="228.5,-732.36 225,-722.36 221.5,-732.36 228.5,-732.36"/>
</g>
<!-- CatalogResults -->
<g id="node19" class="node">
<title>CatalogResults</title>
<polygon fill="palegreen" stroke="black" points="288.5,-636.25 161.5,-636.25 161.5,-600.25 288.5,-600.25 288.5,-636.25"/>
<text text-anchor="middle" x="225" y="-614.55" font-family="Arial" font-size="11.00">BiomarkerEntryResults</text>
</g>
<!-- QdrantSearch&#45;&gt;CatalogResults -->
<g id="edge18" class="edge">
<title>QdrantSearch&#45;&gt;CatalogResults</title>
<path fill="none" stroke="black" d="M225,-672.08C225,-664.42 225,-655.81 225,-647.8"/>
<polygon fill="black" stroke="black" points="228.5,-647.82 225,-637.82 221.5,-647.82 228.5,-647.82"/>
</g>
<!-- Dedup -->
<g id="node20" class="node">
<title>Dedup</title>
<polygon fill="wheat" stroke="black" points="272.38,-564.25 177.62,-564.25 177.62,-528.25 272.38,-528.25 272.38,-564.25"/>
<text text-anchor="middle" x="225" y="-549.3" font-family="Arial" font-size="11.00">Deduplicate by</text>
<text text-anchor="middle" x="225" y="-535.8" font-family="Arial" font-size="11.00">catalog_id + unit</text>
</g>
<!-- CatalogResults&#45;&gt;Dedup -->
<g id="edge19" class="edge">
<title>CatalogResults&#45;&gt;Dedup</title>
<path fill="none" stroke="black" d="M225,-599.95C225,-592.66 225,-583.98 225,-575.79"/>
<polygon fill="black" stroke="black" points="228.5,-575.87 225,-565.87 221.5,-575.87 228.5,-575.87"/>
</g>
<!-- CreateTypes -->
<g id="node21" class="node">
<title>CreateTypes</title>
<polygon fill="wheat" stroke="black" points="229.25,-492.25 100.75,-492.25 100.75,-456.25 229.25,-456.25 229.25,-492.25"/>
<text text-anchor="middle" x="165" y="-477.3" font-family="Arial" font-size="11.00">Create</text>
<text text-anchor="middle" x="165" y="-463.8" font-family="Arial" font-size="11.00">ObservationTypeNodes</text>
</g>
<!-- Dedup&#45;&gt;CreateTypes -->
<g id="edge20" class="edge">
<title>Dedup&#45;&gt;CreateTypes</title>
<path fill="none" stroke="black" d="M210.17,-527.95C203.19,-519.81 194.73,-509.94 187.03,-500.95"/>
<polygon fill="black" stroke="black" points="189.81,-498.82 180.65,-493.5 184.5,-503.37 189.81,-498.82"/>
</g>
<!-- SSE3 -->
<g id="node29" class="node">
<title>SSE3</title>
<polygon fill="none" stroke="black" stroke-dasharray="5,2" points="324.38,-492.25 247.62,-492.25 247.62,-456.25 324.38,-456.25 324.38,-492.25"/>
<text text-anchor="middle" x="286" y="-470.55" font-family="Arial" font-size="11.00">SSE: upload</text>
</g>
<!-- Dedup&#45;&gt;SSE3 -->
<g id="edge28" class="edge">
<title>Dedup&#45;&gt;SSE3</title>
<path fill="none" stroke="blue" stroke-dasharray="1,5" d="M240.08,-527.95C247.17,-519.81 255.77,-509.94 263.6,-500.95"/>
<polygon fill="blue" stroke="blue" points="266.17,-503.33 270.1,-493.5 260.89,-498.74 266.17,-503.33"/>
</g>
<!-- Neo4jTypes -->
<g id="node22" class="node">
<title>Neo4jTypes</title>
<path fill="skyblue" stroke="black" d="M216.12,-415.88C216.12,-418.29 193.21,-420.25 165,-420.25 136.79,-420.25 113.88,-418.29 113.88,-415.88 113.88,-415.88 113.88,-376.5 113.88,-376.5 113.88,-374.09 136.79,-372.12 165,-372.12 193.21,-372.12 216.12,-374.09 216.12,-376.5 216.12,-376.5 216.12,-415.88 216.12,-415.88"/>
<path fill="none" stroke="black" d="M216.12,-415.88C216.12,-413.46 193.21,-411.5 165,-411.5 136.79,-411.5 113.88,-413.46 113.88,-415.88"/>
<text text-anchor="middle" x="165" y="-399.24" font-family="Arial" font-size="11.00">Neo4j</text>
<text text-anchor="middle" x="165" y="-385.74" font-family="Arial" font-size="11.00">ObservationTypes</text>
</g>
<!-- CreateTypes&#45;&gt;Neo4jTypes -->
<g id="edge21" class="edge">
<title>CreateTypes&#45;&gt;Neo4jTypes</title>
<path fill="none" stroke="black" d="M165,-455.99C165,-448.9 165,-440.42 165,-432.14"/>
<polygon fill="black" stroke="black" points="168.5,-432.24 165,-422.24 161.5,-432.24 168.5,-432.24"/>
</g>
<!-- CreateValues -->
<g id="node23" class="node">
<title>CreateValues</title>
<polygon fill="wheat" stroke="black" points="231.12,-336.12 98.88,-336.12 98.88,-300.12 231.12,-300.12 231.12,-336.12"/>
<text text-anchor="middle" x="165" y="-321.18" font-family="Arial" font-size="11.00">Create</text>
<text text-anchor="middle" x="165" y="-307.68" font-family="Arial" font-size="11.00">ObservationValueNodes</text>
</g>
<!-- Neo4jTypes&#45;&gt;CreateValues -->
<g id="edge22" class="edge">
<title>Neo4jTypes&#45;&gt;CreateValues</title>
<path fill="none" stroke="black" d="M165,-371.95C165,-364.29 165,-355.69 165,-347.68"/>
<polygon fill="black" stroke="black" points="168.5,-347.7 165,-337.7 161.5,-347.7 168.5,-347.7"/>
</g>
<!-- Neo4jValues -->
<g id="node24" class="node">
<title>Neo4jValues</title>
<path fill="skyblue" stroke="black" d="M218,-259.75C218,-262.16 194.24,-264.12 165,-264.12 135.76,-264.12 112,-262.16 112,-259.75 112,-259.75 112,-220.38 112,-220.38 112,-217.96 135.76,-216 165,-216 194.24,-216 218,-217.96 218,-220.38 218,-220.38 218,-259.75 218,-259.75"/>
<path fill="none" stroke="black" d="M218,-259.75C218,-257.34 194.24,-255.38 165,-255.38 135.76,-255.38 112,-257.34 112,-259.75"/>
<text text-anchor="middle" x="165" y="-243.11" font-family="Arial" font-size="11.00">Neo4j</text>
<text text-anchor="middle" x="165" y="-229.61" font-family="Arial" font-size="11.00">ObservationValues</text>
</g>
<!-- CreateValues&#45;&gt;Neo4jValues -->
<g id="edge23" class="edge">
<title>CreateValues&#45;&gt;Neo4jValues</title>
<path fill="none" stroke="black" d="M165,-299.87C165,-292.77 165,-284.29 165,-276.01"/>
<polygon fill="black" stroke="black" points="168.5,-276.11 165,-266.11 161.5,-276.11 168.5,-276.11"/>
</g>
<!-- Link -->
<g id="node25" class="node">
<title>Link</title>
<polygon fill="wheat" stroke="black" points="221,-180 109,-180 109,-144 221,-144 221,-180"/>
<text text-anchor="middle" x="165" y="-158.3" font-family="Arial" font-size="11.00">Create relationships</text>
</g>
<!-- Neo4jValues&#45;&gt;Link -->
<g id="edge24" class="edge">
<title>Neo4jValues&#45;&gt;Link</title>
<path fill="none" stroke="black" d="M165,-215.83C165,-208.17 165,-199.56 165,-191.55"/>
<polygon fill="black" stroke="black" points="168.5,-191.57 165,-181.57 161.5,-191.57 168.5,-191.57"/>
</g>
<!-- Complete -->
<g id="node26" class="node">
<title>Complete</title>
<ellipse fill="lightgreen" stroke="black" cx="165" cy="-90" rx="38.96" ry="18"/>
<text text-anchor="middle" x="165" y="-86.3" font-family="Arial" font-size="11.00">Complete</text>
</g>
<!-- Link&#45;&gt;Complete -->
<g id="edge25" class="edge">
<title>Link&#45;&gt;Complete</title>
<path fill="none" stroke="black" d="M165,-143.7C165,-136.41 165,-127.73 165,-119.54"/>
<polygon fill="black" stroke="black" points="168.5,-119.62 165,-109.62 161.5,-119.62 168.5,-119.62"/>
</g>
<!-- SSE4 -->
<g id="node30" class="node">
<title>SSE4</title>
<polygon fill="none" stroke="black" stroke-dasharray="5,2" points="209,-36 121,-36 121,0 209,0 209,-36"/>
<text text-anchor="middle" x="165" y="-14.3" font-family="Arial" font-size="11.00">SSE: complete</text>
</g>
<!-- Complete&#45;&gt;SSE4 -->
<g id="edge29" class="edge">
<title>Complete&#45;&gt;SSE4</title>
<path fill="none" stroke="blue" stroke-dasharray="1,5" d="M165,-71.7C165,-64.41 165,-55.73 165,-47.54"/>
<polygon fill="blue" stroke="blue" points="168.5,-47.62 165,-37.62 161.5,-47.62 168.5,-47.62"/>
</g>
</g>
</svg>
