<?xml version="1.0" encoding="UTF-8" standalone="no"?>
<!DOCTYPE svg PUBLIC "-//W3C//DTD SVG 1.1//EN"
 "http://www.w3.org/Graphics/SVG/1.1/DTD/svg11.dtd">
<!-- Generated by graphviz version 12.2.1 (0)
 -->
<!-- Title: GoogleCloudIntegration Pages: 1 -->
<svg width="833pt" height="172pt"
 viewBox="0.00 0.00 833.00 172.26" xmlns="http://www.w3.org/2000/svg" xmlns:xlink="http://www.w3.org/1999/xlink">
<g id="graph0" class="graph" transform="scale(1 1) rotate(0) translate(4 168.26)">
<title>GoogleCloudIntegration</title>
<polygon fill="#f5f5f5" stroke="none" points="-4,4 -4,-168.26 829,-168.26 829,4 -4,4"/>
<g id="clust1" class="cluster">
<title>cluster_backend</title>
<polygon fill="lightgreen" stroke="black" points="0,-22.6 0,-153.6 151,-153.6 151,-22.6 0,-22.6"/>
<text text-anchor="middle" x="75.5" y="-136.3" font-family="Arial" font-size="14.00">MachinaMed Backend</text>
</g>
<g id="clust2" class="cluster">
<title>cluster_gcp</title>
<polygon fill="lavender" stroke="black" points="485.5,-14.6 485.5,-145.6 817,-145.6 817,-14.6 485.5,-14.6"/>
<text text-anchor="middle" x="651.25" y="-128.3" font-family="Arial" font-size="14.00">Google Cloud Platform</text>
</g>
<!-- FastAPI -->
<g id="node1" class="node">
<title>FastAPI</title>
<polygon fill="lightgreen" stroke="black" points="129.5,-121.85 20.5,-121.85 20.5,-85.35 129.5,-85.35 129.5,-121.85"/>
<text text-anchor="middle" x="75" y="-106.45" font-family="Arial" font-size="12.00">FastAPI Backend</text>
<text text-anchor="middle" x="75" y="-92.2" font-family="Arial" font-size="12.00">Port 8000</text>
</g>
<!-- GCS -->
<g id="node5" class="node">
<title>GCS</title>
<polygon fill="lavender" stroke="black" points="809,-113.6 673.75,-113.6 673.75,-77.6 809,-77.6 809,-113.6"/>
<text text-anchor="middle" x="741.38" y="-91.33" font-family="Arial" font-size="12.00">Google Cloud Storage</text>
</g>
<!-- FastAPI&#45;&gt;GCS -->
<g id="edge5" class="edge">
<title>FastAPI&#45;&gt;GCS</title>
<path fill="none" stroke="black" d="M129.79,-116.15C164.05,-123.4 209.49,-131.65 250.25,-134.6 403.83,-145.73 443.64,-141.13 596.5,-122.6 617.89,-120.01 640.88,-116.17 662.08,-112.2"/>
<polygon fill="black" stroke="black" points="662.66,-115.66 671.83,-110.34 661.35,-108.78 662.66,-115.66"/>
<text text-anchor="middle" x="441" y="-154.76" font-family="Arial" font-size="10.00">GCS Client API</text>
<text text-anchor="middle" x="441" y="-142.76" font-family="Arial" font-size="10.00">File upload</text>
</g>
<!-- ServiceAcct -->
<g id="node7" class="node">
<title>ServiceAcct</title>
<polygon fill="lightyellow" stroke="black" points="388.5,-125.85 250.25,-125.85 250.25,-89.35 388.5,-89.35 388.5,-125.85"/>
<text text-anchor="middle" x="319.38" y="-110.45" font-family="Arial" font-size="12.00">Service Account JSON</text>
<text text-anchor="middle" x="319.38" y="-96.2" font-family="Arial" font-size="12.00">n1&#45;machina1&#45;*.json</text>
</g>
<!-- FastAPI&#45;&gt;ServiceAcct -->
<g id="edge1" class="edge">
<title>FastAPI&#45;&gt;ServiceAcct</title>
<path fill="none" stroke="black" d="M129.79,-104.49C161.76,-105.02 202.89,-105.7 238.58,-106.29"/>
<polygon fill="black" stroke="black" points="238.39,-109.78 248.45,-106.45 238.51,-102.78 238.39,-109.78"/>
<text text-anchor="middle" x="196.62" y="-108.58" font-family="Arial" font-size="10.00">Load credentials</text>
</g>
<!-- AgentSystem -->
<g id="node2" class="node">
<title>AgentSystem</title>
<polygon fill="lightcyan" stroke="black" points="120.12,-66.85 29.88,-66.85 29.88,-30.35 120.12,-30.35 120.12,-66.85"/>
<text text-anchor="middle" x="75" y="-51.45" font-family="Arial" font-size="12.00">Agent System</text>
<text text-anchor="middle" x="75" y="-37.2" font-family="Arial" font-size="12.00">23 agents</text>
</g>
<!-- VertexAI -->
<g id="node3" class="node">
<title>VertexAI</title>
<polygon fill="plum" stroke="black" points="779,-59.85 703.75,-59.85 703.75,-23.35 779,-23.35 779,-59.85"/>
<text text-anchor="middle" x="741.38" y="-44.45" font-family="Arial" font-size="12.00">Vertex AI</text>
<text text-anchor="middle" x="741.38" y="-30.2" font-family="Arial" font-size="12.00">us&#45;central1</text>
</g>
<!-- AgentSystem&#45;&gt;VertexAI -->
<g id="edge3" class="edge">
<title>AgentSystem&#45;&gt;VertexAI</title>
<path fill="none" stroke="black" d="M120.47,-38.48C194.07,-22.83 345.94,4.81 475.5,-1.6 529.48,-4.27 543.03,-5.77 596.5,-13.6 628.59,-18.31 664.38,-25.26 692.24,-31.07"/>
<polygon fill="black" stroke="black" points="691.29,-34.44 701.79,-33.08 692.73,-27.59 691.29,-34.44"/>
<text text-anchor="middle" x="441" y="-28.1" font-family="Arial" font-size="10.00">HTTPS</text>
<text text-anchor="middle" x="441" y="-16.1" font-family="Arial" font-size="10.00">LLM API calls</text>
<text text-anchor="middle" x="441" y="-4.1" font-family="Arial" font-size="10.00">(primary)</text>
</g>
<!-- GeminiAPI -->
<g id="node4" class="node">
<title>GeminiAPI</title>
<polygon fill="plum" stroke="black" points="583.38,-58.85 506.62,-58.85 506.62,-22.35 583.38,-22.35 583.38,-58.85"/>
<text text-anchor="middle" x="545" y="-43.45" font-family="Arial" font-size="12.00">Gemini API</text>
<text text-anchor="middle" x="545" y="-29.2" font-family="Arial" font-size="12.00">AI Studio</text>
</g>
<!-- AgentSystem&#45;&gt;GeminiAPI -->
<g id="edge4" class="edge">
<title>AgentSystem&#45;&gt;GeminiAPI</title>
<path fill="none" stroke="black" d="M120.4,-47.47C155.61,-46.6 206.08,-45.41 250.25,-44.6 336.36,-43.03 436.69,-41.79 495,-41.13"/>
<polygon fill="black" stroke="black" points="494.96,-44.63 504.92,-41.02 494.89,-37.63 494.96,-44.63"/>
<text text-anchor="middle" x="319.38" y="-71.1" font-family="Arial" font-size="10.00">HTTPS</text>
<text text-anchor="middle" x="319.38" y="-59.1" font-family="Arial" font-size="10.00">LLM API calls</text>
<text text-anchor="middle" x="319.38" y="-47.1" font-family="Arial" font-size="10.00">(alternative)</text>
</g>
<!-- IAM -->
<g id="node6" class="node">
<title>IAM</title>
<polygon fill="wheat" stroke="black" points="596.5,-113.85 493.5,-113.85 493.5,-77.35 596.5,-77.35 596.5,-113.85"/>
<text text-anchor="middle" x="545" y="-98.45" font-family="Arial" font-size="12.00">IAM</text>
<text text-anchor="middle" x="545" y="-84.2" font-family="Arial" font-size="12.00">Service Account</text>
</g>
<!-- IAM&#45;&gt;VertexAI -->
<g id="edge6" class="edge">
<title>IAM&#45;&gt;VertexAI</title>
<path fill="none" stroke="black" d="M596.82,-81.48C626.44,-73.26 663.57,-62.94 692.65,-54.86"/>
<polygon fill="black" stroke="black" points="693.21,-58.34 701.91,-52.29 691.33,-51.59 693.21,-58.34"/>
<text text-anchor="middle" x="635.12" y="-77.53" font-family="Arial" font-size="10.00">Authorize</text>
</g>
<!-- IAM&#45;&gt;GCS -->
<g id="edge7" class="edge">
<title>IAM&#45;&gt;GCS</title>
<path fill="none" stroke="black" d="M596.82,-95.6C616.74,-95.6 640.06,-95.6 662.04,-95.6"/>
<polygon fill="black" stroke="black" points="661.88,-99.1 671.88,-95.6 661.88,-92.1 661.88,-99.1"/>
<text text-anchor="middle" x="635.12" y="-98.1" font-family="Arial" font-size="10.00">Authorize</text>
</g>
<!-- ServiceAcct&#45;&gt;IAM -->
<g id="edge2" class="edge">
<title>ServiceAcct&#45;&gt;IAM</title>
<path fill="none" stroke="black" d="M388.99,-103.92C418.69,-102.33 453.19,-100.48 482.09,-98.92"/>
<polygon fill="black" stroke="black" points="481.97,-102.44 491.77,-98.41 481.59,-95.45 481.97,-102.44"/>
<text text-anchor="middle" x="441" y="-105.18" font-family="Arial" font-size="10.00">Authenticate</text>
</g>
</g>
</svg>
