<?xml version="1.0" encoding="UTF-8" standalone="no"?>
<!DOCTYPE svg PUBLIC "-//W3C//DTD SVG 1.1//EN"
 "http://www.w3.org/Graphics/SVG/1.1/DTD/svg11.dtd">
<!-- Generated by graphviz version 12.2.1 (0)
 -->
<!-- Title: ServiceCommunication Pages: 1 -->
<svg width="1319pt" height="184pt"
 viewBox="0.00 0.00 1319.00 184.00" xmlns="http://www.w3.org/2000/svg" xmlns:xlink="http://www.w3.org/1999/xlink">
<g id="graph0" class="graph" transform="scale(1 1) rotate(0) translate(4 180)">
<title>ServiceCommunication</title>
<polygon fill="#f5f5f5" stroke="none" points="-4,4 -4,-180 1315,-180 1315,4 -4,4"/>
<g id="clust1" class="cluster">
<title>cluster_frontend</title>
<polygon fill="lightyellow" stroke="black" points="8,-92 8,-168 511.5,-168 511.5,-92 8,-92"/>
<text text-anchor="middle" x="259.75" y="-150.7" font-family="Arial" font-size="14.00">Frontend (Port 3000)</text>
</g>
<g id="clust2" class="cluster">
<title>cluster_backend</title>
<polygon fill="lightgreen" stroke="black" points="657.5,-92 657.5,-168 1149.75,-168 1149.75,-92 657.5,-92"/>
<text text-anchor="middle" x="903.62" y="-150.7" font-family="Arial" font-size="14.00">Backend (Port 8000)</text>
</g>
<g id="clust3" class="cluster">
<title>cluster_catalog</title>
<polygon fill="lightpink" stroke="black" points="1038.25,-8 1038.25,-84 1303,-84 1303,-8 1038.25,-8"/>
<text text-anchor="middle" x="1170.62" y="-66.7" font-family="Arial" font-size="14.00">Medical Catalog (Port 8001)</text>
</g>
<!-- UI -->
<g id="node1" class="node">
<title>UI</title>
<polygon fill="#ffebee" stroke="black" points="149.75,-136 16,-136 16,-100 149.75,-100 149.75,-136"/>
<text text-anchor="middle" x="82.88" y="-113.72" font-family="Arial" font-size="12.00">React UI Components</text>
</g>
<!-- Store -->
<g id="node2" class="node">
<title>Store</title>
<polygon fill="wheat" stroke="black" points="332.25,-136 242,-136 242,-100 332.25,-100 332.25,-136"/>
<text text-anchor="middle" x="287.12" y="-113.72" font-family="Arial" font-size="12.00">Zustand State</text>
</g>
<!-- UI&#45;&gt;Store -->
<g id="edge1" class="edge">
<title>UI&#45;&gt;Store</title>
<path fill="none" stroke="black" d="M150.1,-118C176.06,-118 205.51,-118 230.36,-118"/>
<polygon fill="black" stroke="black" points="230.27,-121.5 240.27,-118 230.27,-114.5 230.27,-121.5"/>
<text text-anchor="middle" x="195.88" y="-120.5" font-family="Arial" font-size="10.00">User Actions</text>
</g>
<!-- API -->
<g id="node3" class="node">
<title>API</title>
<polygon fill="wheat" stroke="black" points="503.5,-136.25 433.5,-136.25 433.5,-99.75 503.5,-99.75 503.5,-136.25"/>
<text text-anchor="middle" x="468.5" y="-120.85" font-family="Arial" font-size="12.00">API Client</text>
<text text-anchor="middle" x="468.5" y="-106.6" font-family="Arial" font-size="12.00">wretch</text>
</g>
<!-- Store&#45;&gt;API -->
<g id="edge2" class="edge">
<title>Store&#45;&gt;API</title>
<path fill="none" stroke="black" d="M332.46,-118C359.7,-118 394.5,-118 421.95,-118"/>
<polygon fill="black" stroke="black" points="421.71,-121.5 431.71,-118 421.71,-114.5 421.71,-121.5"/>
<text text-anchor="middle" x="382.88" y="-120.5" font-family="Arial" font-size="10.00">State Changes</text>
</g>
<!-- Router -->
<g id="node4" class="node">
<title>Router</title>
<polygon fill="#e8f5e9" stroke="black" points="769.25,-136.25 665.5,-136.25 665.5,-99.75 769.25,-99.75 769.25,-136.25"/>
<text text-anchor="middle" x="717.38" y="-120.85" font-family="Arial" font-size="12.00">FastAPI Routers</text>
<text text-anchor="middle" x="717.38" y="-106.6" font-family="Arial" font-size="12.00">126 endpoints</text>
</g>
<!-- API&#45;&gt;Router -->
<g id="edge3" class="edge">
<title>API&#45;&gt;Router</title>
<path fill="none" stroke="black" d="M502.83,-136.69C508.87,-139.3 515.25,-141.58 521.5,-143 576.1,-155.44 592.35,-152.7 647.5,-143 651.88,-142.23 656.36,-141.2 660.81,-140"/>
<polygon fill="black" stroke="black" points="661.77,-143.37 670.34,-137.15 659.76,-136.66 661.77,-143.37"/>
<text text-anchor="middle" x="584.5" y="-165.83" font-family="Arial" font-size="10.00">POST /api/v1/medical&#45;agent/</text>
<text text-anchor="middle" x="584.5" y="-153.83" font-family="Arial" font-size="10.00">session/{id}/send</text>
</g>
<!-- API&#45;&gt;Router -->
<g id="edge4" class="edge">
<title>API&#45;&gt;Router</title>
<path fill="none" stroke="black" d="M503.89,-115.74C509.76,-115.43 515.81,-115.16 521.5,-115 577.48,-113.39 591.51,-113.78 647.5,-115 649.56,-115.04 651.66,-115.1 653.78,-115.16"/>
<polygon fill="black" stroke="black" points="653.61,-118.65 663.72,-115.48 653.84,-111.66 653.61,-118.65"/>
<text text-anchor="middle" x="584.5" y="-129.5" font-family="Arial" font-size="10.00">GET /api/v1/graph&#45;memory/</text>
<text text-anchor="middle" x="584.5" y="-117.5" font-family="Arial" font-size="10.00">medical/*</text>
</g>
<!-- API&#45;&gt;Router -->
<g id="edge5" class="edge">
<title>API&#45;&gt;Router</title>
<path fill="none" stroke="black" d="M503.95,-102.74C509.71,-100.78 515.7,-99.08 521.5,-98 576.56,-87.78 592.06,-90.11 647.5,-98 649.67,-98.31 651.87,-98.67 654.09,-99.08"/>
<polygon fill="black" stroke="black" points="653.21,-102.47 663.72,-101.11 654.66,-95.62 653.21,-102.47"/>
<text text-anchor="middle" x="584.5" y="-100.5" font-family="Arial" font-size="10.00">POST /api/v1/auth/*</text>
</g>
<!-- Service -->
<g id="node5" class="node">
<title>Service</title>
<polygon fill="palegreen" stroke="black" points="957.75,-136 868.25,-136 868.25,-100 957.75,-100 957.75,-136"/>
<text text-anchor="middle" x="913" y="-113.72" font-family="Arial" font-size="12.00">Service Layer</text>
</g>
<!-- Router&#45;&gt;Service -->
<g id="edge6" class="edge">
<title>Router&#45;&gt;Service</title>
<path fill="none" stroke="black" d="M769.5,-118C796.26,-118 829.07,-118 856.46,-118"/>
<polygon fill="black" stroke="black" points="856.32,-121.5 866.32,-118 856.32,-114.5 856.32,-121.5"/>
<text text-anchor="middle" x="818.75" y="-120.5" font-family="Arial" font-size="10.00">Route Handler</text>
</g>
<!-- AgentMgr -->
<g id="node6" class="node">
<title>AgentMgr</title>
<polygon fill="palegreen" stroke="black" points="1141.75,-136 1044,-136 1044,-100 1141.75,-100 1141.75,-136"/>
<text text-anchor="middle" x="1092.88" y="-113.72" font-family="Arial" font-size="12.00">Agent Manager</text>
</g>
<!-- Service&#45;&gt;AgentMgr -->
<g id="edge7" class="edge">
<title>Service&#45;&gt;AgentMgr</title>
<path fill="none" stroke="black" d="M957.97,-118C980.44,-118 1008.11,-118 1032.45,-118"/>
<polygon fill="black" stroke="black" points="1032.21,-121.5 1042.21,-118 1032.21,-114.5 1032.21,-121.5"/>
<text text-anchor="middle" x="1000.88" y="-120.5" font-family="Arial" font-size="10.00">Create/Run</text>
</g>
<!-- CatAPI -->
<g id="node7" class="node">
<title>CatAPI</title>
<polygon fill="#fff3e0" stroke="black" points="1139.5,-52.25 1046.25,-52.25 1046.25,-15.75 1139.5,-15.75 1139.5,-52.25"/>
<text text-anchor="middle" x="1092.88" y="-36.85" font-family="Arial" font-size="12.00">Biomarker API</text>
<text text-anchor="middle" x="1092.88" y="-22.6" font-family="Arial" font-size="12.00">21 endpoints</text>
</g>
<!-- Service&#45;&gt;CatAPI -->
<g id="edge8" class="edge">
<title>Service&#45;&gt;CatAPI</title>
<path fill="none" stroke="black" d="M953.04,-99.57C979.27,-87.18 1014.06,-70.75 1042.26,-57.43"/>
<polygon fill="black" stroke="black" points="1043.4,-60.76 1050.95,-53.33 1040.41,-54.43 1043.4,-60.76"/>
<text text-anchor="middle" x="1000.88" y="-90.93" font-family="Arial" font-size="10.00">HTTP GET</text>
</g>
<!-- Qdrant2 -->
<g id="node8" class="node">
<title>Qdrant2</title>
<polygon fill="pink" stroke="black" points="1295,-52 1208.5,-52 1208.5,-16 1295,-16 1295,-52"/>
<text text-anchor="middle" x="1251.75" y="-29.73" font-family="Arial" font-size="12.00">Qdrant Client</text>
</g>
<!-- CatAPI&#45;&gt;Qdrant2 -->
<g id="edge9" class="edge">
<title>CatAPI&#45;&gt;Qdrant2</title>
<path fill="none" stroke="black" d="M1139.67,-34C1157.57,-34 1178.23,-34 1196.84,-34"/>
<polygon fill="black" stroke="black" points="1196.61,-37.5 1206.61,-34 1196.61,-30.5 1196.61,-37.5"/>
<text text-anchor="middle" x="1175.12" y="-36.5" font-family="Arial" font-size="10.00">Search</text>
</g>
</g>
</svg>
